{"glyphs":{"0":{"ha":833,"x_min":72,"x_max":799,"o":"m 353 -14 q 142 67 213 -14 q 94 285 72 149 l 165 729 q 228 888 181 821 q 350 991 275 954 q 518 1028 425 1028 q 728 947 658 1028 q 776 729 799 865 l 706 285 q 643 127 692 194 q 520 23 594 60 q 353 -14 446 -14 m 371 93 q 513 147 454 93 q 585 285 571 200 l 656 729 q 627 867 669 814 q 501 921 585 921 q 359 867 418 921 q 286 729 300 814 l 215 285 q 244 147 201 200 q 371 93 288 93 m 436 425 q 376 449 399 425 q 353 511 353 472 q 376 572 353 549 q 436 594 399 594 q 497 572 474 594 q 519 511 519 549 q 497 449 519 472 q 436 425 474 425 z "},"1":{"ha":833,"x_min":64,"x_max":707,"o":"m 64 0 l 82 114 l 357 114 l 483 910 l 175 704 l 197 843 l 454 1014 l 625 1014 l 482 114 l 707 114 l 689 0 l 64 0 z "},"2":{"ha":833,"x_min":67,"x_max":790,"o":"m 67 0 l 86 124 l 465 476 q 592 615 550 554 q 644 735 635 676 q 617 867 657 818 q 493 917 576 917 q 351 866 408 917 q 279 729 293 815 l 154 729 q 276 947 181 867 q 510 1028 372 1028 q 720 949 650 1028 q 769 733 790 869 q 707 581 758 661 q 544 400 656 501 l 231 114 l 688 114 l 669 0 l 67 0 z "},"3":{"ha":833,"x_min":67,"x_max":776,"o":"m 338 -14 q 183 23 246 -14 q 94 125 121 60 q 81 278 67 190 l 206 278 q 232 145 192 193 q 357 97 272 97 q 498 147 443 97 q 567 278 553 197 l 578 347 q 551 481 592 433 q 425 528 511 528 l 315 528 l 333 636 l 617 900 l 221 900 l 239 1014 l 776 1014 l 757 897 l 479 638 q 662 550 601 628 q 703 347 722 472 l 692 278 q 576 65 671 143 q 338 -14 481 -14 z "},"4":{"ha":833,"x_min":71,"x_max":713,"o":"m 494 0 l 529 222 l 71 222 l 103 418 l 567 1014 l 704 1014 l 222 389 l 214 336 l 547 336 l 588 583 l 713 583 l 619 0 l 494 0 z "},"5":{"ha":833,"x_min":89,"x_max":779,"o":"m 350 -14 q 158 50 226 -14 q 92 222 89 114 l 217 222 q 254 130 215 163 q 369 97 293 97 q 508 144 457 97 q 574 278 560 192 l 589 376 q 567 510 603 463 q 444 557 531 557 q 345 528 390 557 q 275 453 300 500 l 150 453 l 246 1014 l 779 1014 l 761 900 l 349 900 l 290 563 l 296 563 q 370 639 317 611 q 499 667 424 667 q 678 591 622 668 q 714 376 735 514 l 699 278 q 585 65 678 143 q 350 -14 493 -14 z "},"6":{"ha":833,"x_min":63,"x_max":750,"o":"m 356 -14 q 190 27 257 -14 q 92 141 122 68 q 78 310 63 214 q 122 447 89 376 q 211 593 156 517 l 521 1014 l 658 1014 l 310 546 l 314 542 q 395 601 346 579 q 504 624 444 624 q 644 585 588 624 q 726 477 701 546 q 735 315 750 408 q 667 142 719 217 q 534 27 614 68 q 356 -14 454 -14 m 372 97 q 528 156 463 97 q 608 313 593 215 q 577 469 624 410 q 440 528 531 528 q 284 469 350 528 q 203 313 218 410 q 235 156 188 215 q 372 97 282 97 z "},"7":{"ha":833,"x_min":167,"x_max":857,"o":"m 204 0 l 707 900 l 318 900 l 292 736 l 167 736 l 211 1014 l 857 1014 l 838 897 l 344 0 l 204 0 z "},"8":{"ha":833,"x_min":58,"x_max":792,"o":"m 353 -14 q 188 20 256 -14 q 89 115 119 54 q 71 254 58 175 q 151 415 85 340 q 315 531 217 489 q 197 637 232 575 q 174 769 163 699 q 235 904 186 846 q 357 996 283 963 q 518 1029 431 1029 q 669 996 606 1029 q 762 904 732 963 q 779 769 792 846 q 714 638 768 700 q 563 531 660 576 q 692 415 649 489 q 721 254 735 340 q 658 115 708 175 q 530 20 608 54 q 353 -14 451 -14 m 408 593 l 446 578 l 483 592 q 600 663 553 617 q 657 765 647 710 q 624 876 668 833 q 500 918 581 918 q 363 875 419 918 q 296 765 307 832 q 318 663 286 708 q 408 593 350 617 m 371 97 q 526 145 463 97 q 600 271 589 193 q 581 381 611 332 q 488 457 551 431 l 431 481 l 364 456 q 249 380 293 429 q 194 271 204 331 q 231 145 183 193 q 371 97 279 97 z "},"9":{"ha":833,"x_min":126,"x_max":811,"o":"m 214 0 l 560 468 l 556 472 q 478 413 525 435 q 371 390 431 390 q 231 429 288 390 q 150 538 174 468 q 140 699 126 607 q 208 872 156 797 q 340 987 260 946 q 518 1028 421 1028 q 684 987 617 1028 q 781 874 751 946 q 796 704 811 801 q 752 567 786 638 q 663 421 718 497 l 358 0 l 214 0 m 433 486 q 590 545 524 486 q 671 701 656 604 q 640 858 686 799 q 503 917 593 917 q 347 858 413 917 q 265 701 281 799 q 297 545 250 604 q 433 486 343 486 z "},"\u0000":{"ha":833,"x_min":15,"x_max":804,"o":"m 16 340 l 69 675 l 123 675 l 181 388 q 183 417 181 400 q 186 452 184 433 q 192 487 189 470 l 221 675 l 261 675 l 208 340 l 153 340 l 97 627 q 94 599 96 616 q 90 564 93 582 q 85 528 88 545 l 55 340 l 16 340 m 387 336 q 320 362 341 336 q 307 432 299 387 l 345 675 l 386 675 l 348 432 q 354 388 343 404 q 393 372 365 372 q 437 388 421 372 q 458 432 453 404 l 496 675 l 538 675 l 499 432 q 463 361 492 387 q 387 336 434 336 m 606 340 l 659 675 l 700 675 l 653 378 l 804 378 l 798 340 l 606 340 z "},"\u0001":{"ha":833,"x_min":14,"x_max":831,"o":"m 113 336 q 39 360 64 336 q 21 427 15 385 l 62 427 q 73 387 58 402 q 119 373 88 373 q 166 387 148 373 q 189 426 185 401 q 184 463 192 448 q 157 484 175 478 l 114 498 q 66 533 82 509 q 56 591 51 558 q 76 638 60 618 q 115 669 91 657 q 168 680 138 680 q 235 655 212 680 q 252 590 258 631 l 210 590 q 202 629 214 615 q 162 643 189 643 q 119 630 136 643 q 98 594 102 617 q 103 558 95 573 q 131 536 112 542 l 174 521 q 220 486 206 510 q 230 427 235 461 q 210 379 226 400 q 168 347 193 359 q 113 336 143 336 m 387 336 q 320 361 342 336 q 306 432 298 387 l 330 583 q 367 654 337 628 q 442 679 397 679 q 509 654 487 679 q 524 584 531 629 l 500 432 q 462 361 493 387 q 387 336 432 336 m 393 373 q 437 388 420 373 q 459 432 454 404 l 483 583 q 475 627 487 612 q 436 642 463 642 q 392 627 409 642 q 371 583 375 612 l 347 432 q 354 388 342 404 q 393 373 367 373 m 586 340 l 640 675 l 681 675 l 658 532 l 765 532 l 788 675 l 829 675 l 776 340 l 735 340 l 759 494 l 652 494 l 628 340 l 586 340 z "},"\u0002":{"ha":833,"x_min":14,"x_max":849,"o":"m 113 336 q 39 360 64 336 q 21 427 15 385 l 62 427 q 73 387 58 402 q 119 373 88 373 q 166 387 148 373 q 189 426 185 401 q 184 463 192 448 q 157 484 175 478 l 114 498 q 66 533 82 509 q 56 591 51 558 q 76 638 60 618 q 115 669 91 657 q 168 680 138 680 q 235 655 212 680 q 252 590 258 631 l 210 590 q 202 629 214 615 q 162 643 189 643 q 119 630 136 643 q 98 594 102 617 q 103 558 95 573 q 131 536 112 542 l 174 521 q 220 486 206 510 q 230 427 235 461 q 210 379 226 400 q 168 347 193 359 q 113 336 143 336 m 368 340 l 415 637 l 323 637 l 329 675 l 554 675 l 548 637 l 456 637 l 409 340 l 368 340 m 562 340 l 685 511 l 620 675 l 666 675 l 702 576 q 709 559 705 568 q 714 545 712 550 q 722 559 717 550 q 733 576 728 568 l 801 675 l 849 675 l 732 512 l 800 340 l 755 340 l 714 447 q 708 463 711 454 q 704 478 705 472 q 695 464 700 472 q 684 447 689 455 l 610 340 l 562 340 z "},"\u0003":{"ha":833,"x_min":19,"x_max":849,"o":"m 20 340 l 73 675 l 266 675 l 260 637 l 108 637 l 92 534 l 227 534 l 221 497 l 86 497 l 67 378 l 219 378 l 213 340 l 20 340 m 368 340 l 415 637 l 323 637 l 329 675 l 554 675 l 548 637 l 456 637 l 409 340 l 368 340 m 562 340 l 685 511 l 620 675 l 666 675 l 702 576 q 709 559 705 568 q 714 545 712 550 q 722 559 717 550 q 733 576 728 568 l 801 675 l 849 675 l 732 512 l 800 340 l 755 340 l 714 447 q 708 463 711 454 q 704 478 705 472 q 695 464 700 472 q 684 447 689 455 l 610 340 l 562 340 z "},"\u0004":{"ha":833,"x_min":19,"x_max":847,"o":"m 20 340 l 73 675 l 266 675 l 260 637 l 108 637 l 92 534 l 227 534 l 221 497 l 86 497 l 67 378 l 219 378 l 213 340 l 20 340 m 387 336 q 320 361 342 336 q 306 432 298 387 l 330 583 q 367 654 337 628 q 442 679 397 679 q 509 654 487 679 q 524 584 531 629 l 500 432 q 462 361 493 387 q 387 336 432 336 m 393 373 q 437 388 420 373 q 459 432 454 404 l 483 583 q 475 627 487 612 q 436 642 463 642 q 392 627 409 642 q 371 583 375 612 l 347 432 q 354 388 342 404 q 393 373 367 373 m 661 340 l 708 637 l 616 637 l 622 675 l 847 675 l 841 637 l 749 637 l 702 340 l 661 340 z "},"\u0005":{"ha":833,"x_min":19,"x_max":828,"o":"m 20 340 l 73 675 l 266 675 l 260 637 l 108 637 l 92 534 l 227 534 l 221 497 l 86 497 l 67 378 l 219 378 l 213 340 l 20 340 m 292 340 l 345 675 l 400 675 l 457 388 q 459 417 458 400 q 463 452 461 433 q 468 487 465 470 l 498 675 l 538 675 l 484 340 l 430 340 l 373 627 q 371 599 372 616 q 367 564 369 582 q 362 528 364 545 l 332 340 l 292 340 m 725 258 l 690 337 q 680 336 685 336 q 611 363 634 336 q 595 434 588 389 l 618 581 q 639 633 623 611 q 679 667 655 655 q 735 679 704 679 q 804 653 781 679 q 820 581 827 626 l 797 434 q 775 380 792 403 q 731 346 757 357 l 770 258 l 725 258 m 686 372 q 732 389 713 372 q 755 434 751 406 l 779 581 q 770 626 783 609 q 729 643 756 643 q 683 626 702 643 q 660 581 664 609 l 636 434 q 645 389 632 406 q 686 372 659 372 z "},"\u0006":{"ha":833,"x_min":-4,"x_max":850,"o":"m -3 340 l 137 675 l 193 675 l 226 340 l 186 340 l 178 429 l 77 429 l 41 340 l -3 340 m 91 464 l 175 464 l 165 567 q 162 616 163 596 q 161 642 161 636 q 152 616 159 636 q 133 568 145 596 l 91 464 m 389 336 q 321 361 343 336 q 306 432 298 387 l 330 583 q 367 654 337 628 q 444 679 398 679 q 511 654 489 679 q 527 583 533 628 l 485 583 q 477 627 490 612 q 438 642 465 642 q 393 627 411 642 q 371 584 375 612 l 347 432 q 355 388 342 404 q 395 373 368 373 q 440 388 422 373 q 462 432 457 404 l 503 432 q 465 362 495 387 q 389 336 434 336 m 586 340 l 639 675 l 680 675 l 657 531 l 706 531 l 803 675 l 849 675 l 740 513 l 800 340 l 755 340 l 701 495 l 652 495 l 627 340 l 586 340 z "},"\u0007":{"ha":833,"x_min":17,"x_max":804,"o":"m 17 340 l 70 675 l 165 675 q 233 652 211 675 q 249 588 255 629 q 228 542 245 561 q 187 517 212 524 q 225 487 213 509 q 232 433 237 465 q 195 365 225 390 q 119 340 164 340 l 17 340 m 87 532 l 142 532 q 186 547 168 532 q 208 585 203 561 q 198 624 211 609 q 159 638 186 638 l 104 638 l 87 532 m 63 377 l 120 377 q 168 393 149 377 q 192 435 187 408 q 182 479 196 462 q 139 497 168 497 l 82 497 l 63 377 m 305 340 l 358 675 l 551 675 l 545 637 l 393 637 l 376 534 l 512 534 l 506 497 l 370 497 l 352 378 l 503 378 l 497 340 l 305 340 m 606 340 l 659 675 l 700 675 l 653 378 l 804 378 l 798 340 l 606 340 z "},"\b":{"ha":833,"x_min":160,"x_max":683,"o":"m 160 340 l 213 675 l 308 675 q 376 652 354 675 q 392 588 398 629 q 371 542 388 561 q 330 517 355 524 q 368 487 356 509 q 375 433 380 465 q 338 365 368 390 q 262 340 308 340 l 160 340 m 231 532 l 285 532 q 329 547 311 532 q 351 585 347 561 q 341 624 354 609 q 302 638 329 638 l 248 638 l 231 532 m 206 377 l 263 377 q 311 393 292 377 q 335 435 330 408 q 325 479 339 462 q 282 497 311 497 l 225 497 l 206 377 m 538 336 q 464 360 489 336 q 446 427 440 385 l 487 427 q 498 387 483 402 q 544 373 513 373 q 591 387 573 373 q 614 426 610 401 q 609 463 617 448 q 582 484 600 478 l 539 498 q 491 533 507 509 q 481 591 476 558 q 501 638 485 618 q 540 669 516 657 q 593 680 563 680 q 660 655 637 680 q 677 590 683 631 l 635 590 q 627 629 639 615 q 587 643 614 643 q 544 630 561 643 q 523 594 527 617 q 528 558 520 573 q 556 536 537 542 l 599 521 q 645 486 631 510 q 655 427 660 461 q 635 379 651 400 q 593 347 618 359 q 538 336 568 336 z "},"\u000b":{"ha":833,"x_min":193,"x_max":703,"o":"m 226 340 l 193 675 l 235 675 l 256 448 q 259 403 258 424 q 260 372 260 383 q 271 403 264 383 q 287 448 278 424 l 380 675 l 423 675 l 283 340 l 226 340 m 516 340 l 563 637 l 472 637 l 478 675 l 702 675 l 696 637 l 605 637 l 557 340 l 516 340 z "},"\f":{"ha":833,"x_min":160,"x_max":694,"o":"m 161 340 l 214 675 l 411 675 l 405 637 l 248 637 l 231 526 l 375 526 l 369 489 l 226 489 l 202 340 l 161 340 m 443 340 l 496 675 l 693 675 l 687 637 l 530 637 l 512 526 l 657 526 l 651 489 l 507 489 l 484 340 l 443 340 z "},"\r":{"ha":833,"x_min":0,"x_max":0,"o":""},"\u000e":{"ha":833,"x_min":157,"x_max":681,"o":"m 256 336 q 182 360 207 336 q 164 427 158 385 l 205 427 q 216 387 201 402 q 262 373 231 373 q 309 387 291 373 q 332 426 328 401 q 327 463 335 448 q 300 484 318 478 l 257 498 q 209 533 225 509 q 199 591 194 558 q 219 638 204 618 q 258 669 234 657 q 311 680 281 680 q 378 655 355 680 q 395 590 401 631 l 353 590 q 345 629 358 615 q 305 643 332 643 q 262 630 279 643 q 241 594 245 617 q 246 558 238 573 q 274 536 255 542 l 317 521 q 363 486 349 510 q 373 427 378 461 q 353 379 369 400 q 311 347 336 359 q 256 336 286 336 m 536 336 q 469 361 491 336 q 454 432 447 387 l 478 583 q 515 654 485 628 q 590 679 545 679 q 657 654 635 679 q 672 584 679 629 l 649 432 q 611 361 641 387 q 536 336 581 336 m 542 373 q 586 388 569 373 q 607 432 603 404 l 631 583 q 624 627 636 612 q 584 642 611 642 q 541 627 558 642 q 519 583 524 612 l 496 432 q 503 388 491 404 q 542 373 515 373 z "},"\u000f":{"ha":833,"x_min":157,"x_max":681,"o":"m 256 336 q 182 360 207 336 q 164 427 158 385 l 205 427 q 216 387 201 402 q 262 373 231 373 q 309 387 291 373 q 332 426 328 401 q 327 463 335 448 q 300 484 318 478 l 257 498 q 209 533 225 509 q 199 591 194 558 q 219 638 204 618 q 258 669 234 657 q 311 680 281 680 q 378 655 355 680 q 395 590 401 631 l 353 590 q 345 629 358 615 q 305 643 332 643 q 262 630 279 643 q 241 594 245 617 q 246 558 238 573 q 274 536 255 542 l 317 521 q 363 486 349 510 q 373 427 378 461 q 353 379 369 400 q 311 347 336 359 q 256 336 286 336 m 447 340 l 453 378 l 522 378 l 563 637 l 495 637 l 501 675 l 679 675 l 673 637 l 605 637 l 564 378 l 632 378 l 626 340 l 447 340 z "},"\u0010":{"ha":833,"x_min":15,"x_max":836,"o":"m 16 340 l 70 675 l 156 675 q 229 648 205 675 q 246 574 253 620 l 225 441 q 204 388 220 410 q 161 353 187 365 q 103 340 136 340 l 16 340 m 64 377 l 109 377 q 159 394 139 377 q 184 441 179 411 l 205 574 q 195 621 210 604 q 150 638 181 638 l 105 638 l 64 377 m 313 340 l 366 675 l 407 675 l 360 378 l 511 378 l 505 340 l 313 340 m 590 340 l 643 675 l 835 675 l 829 637 l 678 637 l 661 534 l 797 534 l 791 497 l 655 497 l 636 378 l 788 378 l 782 340 l 590 340 z "},"\u0011":{"ha":833,"x_min":15,"x_max":797,"o":"m 16 340 l 70 675 l 156 675 q 229 648 205 675 q 246 574 253 620 l 225 441 q 204 388 220 410 q 161 353 187 365 q 103 340 136 340 l 16 340 m 64 377 l 109 377 q 159 394 139 377 q 184 441 179 411 l 205 574 q 195 621 210 604 q 150 638 181 638 l 105 638 l 64 377 m 389 336 q 321 361 343 336 q 306 432 298 387 l 330 583 q 367 654 337 628 q 444 679 398 679 q 511 654 489 679 q 527 583 533 628 l 485 583 q 477 627 490 612 q 438 642 465 642 q 393 627 411 642 q 371 584 375 612 l 347 432 q 355 388 342 404 q 395 373 368 373 q 440 388 422 373 q 462 432 457 404 l 503 432 q 465 362 495 387 q 389 336 434 336 m 585 340 l 591 378 l 682 378 l 723 641 l 622 573 l 629 619 l 714 675 l 770 675 l 723 378 l 797 378 l 791 340 l 585 340 z "},"\u0012":{"ha":833,"x_min":15,"x_max":825,"o":"m 16 340 l 70 675 l 156 675 q 229 648 205 675 q 246 574 253 620 l 225 441 q 204 388 220 410 q 161 353 187 365 q 103 340 136 340 l 16 340 m 64 377 l 109 377 q 159 394 139 377 q 184 441 179 411 l 205 574 q 195 621 210 604 q 150 638 181 638 l 105 638 l 64 377 m 389 336 q 321 361 343 336 q 306 432 298 387 l 330 583 q 367 654 337 628 q 444 679 398 679 q 511 654 489 679 q 527 583 533 628 l 485 583 q 477 627 490 612 q 438 642 465 642 q 393 627 411 642 q 371 584 375 612 l 347 432 q 355 388 342 404 q 395 373 368 373 q 440 388 422 373 q 462 432 457 404 l 503 432 q 465 362 495 387 q 389 336 434 336 m 586 340 l 592 381 l 717 497 q 759 543 745 523 q 777 583 773 563 q 767 627 781 610 q 727 643 754 643 q 680 626 699 643 q 656 581 661 609 l 615 581 q 655 653 623 626 q 732 679 687 679 q 802 653 778 679 q 818 582 825 627 q 797 532 814 558 q 744 472 780 506 l 640 378 l 791 378 l 785 340 l 586 340 z "},"\u0013":{"ha":833,"x_min":15,"x_max":821,"o":"m 16 340 l 70 675 l 156 675 q 229 648 205 675 q 246 574 253 620 l 225 441 q 204 388 220 410 q 161 353 187 365 q 103 340 136 340 l 16 340 m 64 377 l 109 377 q 159 394 139 377 q 184 441 179 411 l 205 574 q 195 621 210 604 q 150 638 181 638 l 105 638 l 64 377 m 389 336 q 321 361 343 336 q 306 432 298 387 l 330 583 q 367 654 337 628 q 444 679 398 679 q 511 654 489 679 q 527 583 533 628 l 485 583 q 477 627 490 612 q 438 642 465 642 q 393 627 411 642 q 371 584 375 612 l 347 432 q 355 388 342 404 q 395 373 368 373 q 440 388 422 373 q 462 432 457 404 l 503 432 q 465 362 495 387 q 389 336 434 336 m 675 336 q 624 348 645 336 q 595 382 604 360 q 590 432 586 403 l 632 432 q 640 388 627 404 q 682 372 654 372 q 728 389 710 372 q 751 432 746 405 l 755 455 q 746 499 759 483 q 704 514 733 514 l 668 514 l 674 550 l 767 637 l 637 637 l 643 675 l 820 675 l 814 636 l 722 551 q 782 522 762 547 q 796 455 802 496 l 792 432 q 754 362 785 387 q 675 336 722 336 z "},"\u0014":{"ha":833,"x_min":15,"x_max":800,"o":"m 16 340 l 70 675 l 156 675 q 229 648 205 675 q 246 574 253 620 l 225 441 q 204 388 220 410 q 161 353 187 365 q 103 340 136 340 l 16 340 m 64 377 l 109 377 q 159 394 139 377 q 184 441 179 411 l 205 574 q 195 621 210 604 q 150 638 181 638 l 105 638 l 64 377 m 389 336 q 321 361 343 336 q 306 432 298 387 l 330 583 q 367 654 337 628 q 444 679 398 679 q 511 654 489 679 q 527 583 533 628 l 485 583 q 477 627 490 612 q 438 642 465 642 q 393 627 411 642 q 371 584 375 612 l 347 432 q 355 388 342 404 q 395 373 368 373 q 440 388 422 373 q 462 432 457 404 l 503 432 q 465 362 495 387 q 389 336 434 336 m 727 340 l 739 414 l 587 414 l 598 478 l 751 675 l 796 675 l 637 469 l 634 451 l 744 451 l 758 533 l 799 533 l 768 340 l 727 340 z "},"\u0015":{"ha":833,"x_min":15,"x_max":850,"o":"m 16 340 l 69 675 l 123 675 l 181 388 q 183 417 181 400 q 186 452 184 433 q 192 487 189 470 l 221 675 l 261 675 l 208 340 l 153 340 l 97 627 q 94 599 96 616 q 90 564 93 582 q 85 528 88 545 l 55 340 l 16 340 m 274 340 l 414 675 l 469 675 l 503 340 l 462 340 l 455 429 l 353 429 l 317 340 l 274 340 m 367 464 l 451 464 l 442 567 q 438 616 439 596 q 437 642 437 636 q 428 616 435 636 q 409 568 421 596 l 367 464 m 586 340 l 639 675 l 680 675 l 657 531 l 706 531 l 803 675 l 849 675 l 740 513 l 800 340 l 755 340 l 701 495 l 652 495 l 627 340 l 586 340 z "},"\u0016":{"ha":833,"x_min":14,"x_max":832,"o":"m 113 336 q 39 360 64 336 q 21 427 15 385 l 62 427 q 73 387 58 402 q 119 373 88 373 q 166 387 148 373 q 189 426 185 401 q 184 463 192 448 q 157 484 175 478 l 114 498 q 66 533 82 509 q 56 591 51 558 q 76 638 60 618 q 115 669 91 657 q 168 680 138 680 q 235 655 212 680 q 252 590 258 631 l 210 590 q 202 629 214 615 q 162 643 189 643 q 119 630 136 643 q 98 594 102 617 q 103 558 95 573 q 131 536 112 542 l 174 521 q 220 486 206 510 q 230 427 235 461 q 210 379 226 400 q 168 347 193 359 q 113 336 143 336 m 368 340 l 387 465 l 320 675 l 362 675 l 406 537 q 412 518 410 526 q 414 506 414 510 q 420 518 416 510 q 432 537 425 526 l 519 675 l 563 675 l 429 465 l 409 340 l 368 340 m 585 340 l 638 675 l 693 675 l 750 388 q 752 417 751 400 q 756 452 754 433 q 761 487 758 470 l 791 675 l 831 675 l 777 340 l 723 340 l 666 627 q 664 599 665 616 q 660 564 662 582 q 655 528 657 545 l 625 340 l 585 340 z "},"\u0017":{"ha":833,"x_min":19,"x_max":825,"o":"m 20 340 l 73 675 l 266 675 l 260 637 l 108 637 l 92 534 l 227 534 l 221 497 l 86 497 l 67 378 l 219 378 l 213 340 l 20 340 m 368 340 l 415 637 l 323 637 l 329 675 l 554 675 l 548 637 l 456 637 l 409 340 l 368 340 m 586 340 l 640 675 l 734 675 q 802 652 780 675 q 818 588 825 629 q 798 542 814 561 q 756 517 782 524 q 794 487 783 509 q 801 433 806 465 q 764 365 794 390 q 688 340 734 340 l 586 340 m 657 532 l 711 532 q 755 547 738 532 q 777 585 773 561 q 768 624 781 609 q 728 638 755 638 l 674 638 l 657 532 m 633 377 l 689 377 q 737 393 718 377 q 761 435 756 408 q 751 479 765 462 q 708 497 737 497 l 651 497 l 633 377 z "},"\u0018":{"ha":833,"x_min":21,"x_max":832,"o":"m 113 336 q 44 361 67 336 q 29 432 22 387 l 53 583 q 91 654 60 628 q 167 679 121 679 q 235 654 212 679 q 250 583 257 628 l 209 583 q 201 627 214 612 q 161 642 188 642 q 117 627 134 642 q 94 584 99 612 l 71 432 q 79 388 66 404 q 119 373 92 373 q 163 388 146 373 q 185 432 181 404 l 226 432 q 188 362 219 387 q 113 336 158 336 m 274 340 l 414 675 l 469 675 l 503 340 l 462 340 l 455 429 l 353 429 l 317 340 l 274 340 m 367 464 l 451 464 l 442 567 q 438 616 439 596 q 437 642 437 636 q 428 616 435 636 q 409 568 421 596 l 367 464 m 585 340 l 638 675 l 693 675 l 750 388 q 752 417 751 400 q 756 452 754 433 q 761 487 758 470 l 791 675 l 831 675 l 777 340 l 723 340 l 666 627 q 664 599 665 616 q 660 564 662 582 q 655 528 657 545 l 625 340 l 585 340 z "},"\u0019":{"ha":833,"x_min":163,"x_max":693,"o":"m 163 340 l 216 675 l 409 675 l 403 637 l 251 637 l 235 534 l 370 534 l 364 497 l 229 497 l 210 378 l 362 378 l 356 340 l 163 340 m 434 340 l 487 675 l 540 675 l 558 567 q 562 538 560 552 q 565 515 564 523 q 574 538 568 523 q 587 567 580 552 l 638 675 l 693 675 l 639 340 l 599 340 l 618 462 q 627 509 622 483 q 639 561 633 535 q 652 612 645 587 q 663 654 658 636 l 583 487 l 539 487 l 511 654 q 509 613 510 636 q 505 563 507 589 q 500 510 503 536 q 494 462 497 484 l 474 340 l 434 340 z "},"\u001a":{"ha":833,"x_min":14,"x_max":825,"o":"m 113 336 q 39 360 64 336 q 21 427 15 385 l 62 427 q 73 387 58 402 q 119 373 88 373 q 166 387 148 373 q 189 426 185 401 q 184 463 192 448 q 157 484 175 478 l 114 498 q 66 533 82 509 q 56 591 51 558 q 76 638 60 618 q 115 669 91 657 q 168 680 138 680 q 235 655 212 680 q 252 590 258 631 l 210 590 q 202 629 214 615 q 162 643 189 643 q 119 630 136 643 q 98 594 102 617 q 103 558 95 573 q 131 536 112 542 l 174 521 q 220 486 206 510 q 230 427 235 461 q 210 379 226 400 q 168 347 193 359 q 113 336 143 336 m 387 336 q 320 362 341 336 q 307 432 299 387 l 345 675 l 386 675 l 348 432 q 354 388 343 404 q 393 372 365 372 q 437 388 421 372 q 458 432 453 404 l 496 675 l 538 675 l 499 432 q 463 361 492 387 q 387 336 434 336 m 586 340 l 640 675 l 734 675 q 802 652 780 675 q 818 588 825 629 q 798 542 814 561 q 756 517 782 524 q 794 487 783 509 q 801 433 806 465 q 764 365 794 390 q 688 340 734 340 l 586 340 m 657 532 l 711 532 q 755 547 738 532 q 777 585 773 561 q 768 624 781 609 q 728 638 755 638 l 674 638 l 657 532 m 633 377 l 689 377 q 737 393 718 377 q 761 435 756 408 q 751 479 765 462 q 708 497 737 497 l 651 497 l 633 377 z "},"\u001b":{"ha":833,"x_min":19,"x_max":828,"o":"m 20 340 l 73 675 l 266 675 l 260 637 l 108 637 l 92 534 l 227 534 l 221 497 l 86 497 l 67 378 l 219 378 l 213 340 l 20 340 m 389 336 q 316 360 340 336 q 297 427 291 385 l 339 427 q 349 387 335 402 q 395 373 364 373 q 442 387 424 373 q 465 426 461 401 q 460 463 468 448 q 433 484 451 478 l 390 498 q 343 533 358 509 q 332 591 328 558 q 352 638 337 618 q 391 669 367 657 q 445 680 415 680 q 511 655 489 680 q 528 590 534 631 l 487 590 q 478 629 491 615 q 439 643 466 643 q 395 630 412 643 q 374 594 378 617 q 380 558 371 573 q 407 536 388 542 l 451 521 q 497 486 482 510 q 506 427 511 461 q 486 379 502 400 q 445 347 470 359 q 389 336 420 336 m 682 336 q 614 361 636 336 q 599 432 591 387 l 623 583 q 660 654 630 628 q 737 679 691 679 q 804 654 782 679 q 820 583 827 628 l 778 583 q 770 627 783 612 q 731 642 758 642 q 686 627 704 642 q 664 584 668 612 l 640 432 q 648 388 635 404 q 688 373 661 373 q 733 388 715 373 q 755 432 750 404 l 796 432 q 758 362 788 387 q 682 336 727 336 z "},"\u001c":{"ha":833,"x_min":160,"x_max":683,"o":"m 161 340 l 214 675 l 411 675 l 405 637 l 248 637 l 231 526 l 375 526 l 369 489 l 226 489 l 202 340 l 161 340 m 538 336 q 464 360 489 336 q 446 427 440 385 l 487 427 q 498 387 483 402 q 544 373 513 373 q 591 387 573 373 q 614 426 610 401 q 609 463 617 448 q 582 484 600 478 l 539 498 q 491 533 507 509 q 481 591 476 558 q 501 638 485 618 q 540 669 516 657 q 593 680 563 680 q 660 655 637 680 q 677 590 683 631 l 635 590 q 627 629 639 615 q 587 643 614 643 q 544 630 561 643 q 523 594 527 617 q 528 558 520 573 q 556 536 537 542 l 599 521 q 645 486 631 510 q 655 427 660 461 q 635 379 651 400 q 593 347 618 359 q 538 336 568 336 z "},"\u001d":{"ha":833,"x_min":164,"x_max":683,"o":"m 256 336 q 187 361 210 336 q 172 432 165 387 l 196 583 q 234 654 204 628 q 310 679 264 679 q 378 654 355 679 q 393 583 400 628 l 352 583 q 344 627 357 612 q 304 642 331 642 q 260 627 277 642 q 237 584 242 612 l 214 432 q 222 388 209 404 q 262 372 235 372 q 306 388 289 372 q 328 432 324 404 l 335 473 l 267 473 l 273 511 l 382 511 l 369 432 q 349 381 365 403 q 310 347 334 359 q 256 336 286 336 m 538 336 q 464 360 489 336 q 446 427 440 385 l 487 427 q 498 387 483 402 q 544 373 513 373 q 591 387 573 373 q 614 426 610 401 q 609 463 617 448 q 582 484 600 478 l 539 498 q 491 533 507 509 q 481 591 476 558 q 501 638 485 618 q 540 669 516 657 q 593 680 563 680 q 660 655 637 680 q 677 590 683 631 l 635 590 q 627 629 639 615 q 587 643 614 643 q 544 630 561 643 q 523 594 527 617 q 528 558 520 573 q 556 536 537 542 l 599 521 q 645 486 631 510 q 655 427 660 461 q 635 379 651 400 q 593 347 618 359 q 538 336 568 336 z "},"\u001e":{"ha":833,"x_min":158,"x_max":683,"o":"m 160 340 l 213 675 l 316 675 q 366 663 346 675 q 396 629 387 651 q 400 579 405 607 q 373 520 395 544 q 319 486 351 496 l 367 340 l 320 340 l 277 482 l 223 482 l 201 340 l 160 340 m 229 519 l 292 519 q 335 536 317 519 q 358 579 353 552 q 349 622 362 606 q 310 638 336 638 l 248 638 l 229 519 m 538 336 q 464 360 489 336 q 446 427 440 385 l 487 427 q 498 387 483 402 q 544 373 513 373 q 591 387 573 373 q 614 426 610 401 q 609 463 617 448 q 582 484 600 478 l 539 498 q 491 533 507 509 q 481 591 476 558 q 501 638 485 618 q 540 669 516 657 q 593 680 563 680 q 660 655 637 680 q 677 590 683 631 l 635 590 q 627 629 639 615 q 587 643 614 643 q 544 630 561 643 q 523 594 527 617 q 528 558 520 573 q 556 536 537 542 l 599 521 q 645 486 631 510 q 655 427 660 461 q 635 379 651 400 q 593 347 618 359 q 538 336 568 336 z "},"\u001f":{"ha":833,"x_min":165,"x_max":683,"o":"m 254 336 q 187 362 207 336 q 173 432 166 387 l 212 675 l 253 675 l 215 432 q 221 388 210 404 q 260 372 232 372 q 304 388 287 372 q 325 432 320 404 l 363 675 l 404 675 l 366 432 q 330 361 358 387 q 254 336 301 336 m 538 336 q 464 360 489 336 q 446 427 440 385 l 487 427 q 498 387 483 402 q 544 373 513 373 q 591 387 573 373 q 614 426 610 401 q 609 463 617 448 q 582 484 600 478 l 539 498 q 491 533 507 509 q 481 591 476 558 q 501 638 485 618 q 540 669 516 657 q 593 680 563 680 q 660 655 637 680 q 677 590 683 631 l 635 590 q 627 629 639 615 q 587 643 614 643 q 544 630 561 643 q 523 594 527 617 q 528 558 520 573 q 556 536 537 542 l 599 521 q 645 486 631 510 q 655 427 660 461 q 635 379 651 400 q 593 347 618 359 q 538 336 568 336 z "}," ":{"ha":833,"x_min":0,"x_max":0,"o":""},"!":{"ha":833,"x_min":258,"x_max":590,"o":"m 358 299 l 417 847 l 443 1014 l 590 1014 l 564 847 l 447 299 l 358 299 m 333 -7 q 278 17 297 -7 q 264 76 258 40 q 297 136 269 113 q 360 160 324 160 l 401 160 q 460 137 442 160 q 472 78 478 114 q 439 17 467 42 q 375 -7 411 -7 l 333 -7 z "},"\"":{"ha":833,"x_min":258,"x_max":725,"o":"m 540 597 l 569 889 l 590 1014 l 725 1014 l 704 889 l 643 597 l 540 597 m 258 597 l 288 889 l 308 1014 l 443 1014 l 422 889 l 361 597 l 258 597 z "},"#":{"ha":833,"x_min":32,"x_max":840,"o":"m 53 0 l 149 278 l 32 278 l 46 368 l 179 368 l 274 646 l 139 646 l 153 736 l 304 736 l 400 1014 l 501 1014 l 406 736 l 622 736 l 718 1014 l 819 1014 l 724 736 l 840 736 l 826 646 l 693 646 l 599 368 l 733 368 l 719 278 l 568 278 l 472 0 l 371 0 l 467 278 l 250 278 l 154 0 l 53 0 m 281 368 l 497 368 l 592 646 l 375 646 l 281 368 z "},"$":{"ha":833,"x_min":64,"x_max":796,"o":"m 290 -194 l 319 -12 q 126 72 189 -1 q 81 264 64 144 l 206 264 q 230 153 196 196 q 336 100 264 110 l 394 464 l 358 475 q 215 582 260 507 q 186 758 171 657 q 285 942 204 869 q 483 1025 365 1014 l 513 1208 l 596 1208 l 567 1026 q 738 943 681 1015 q 779 757 796 871 l 654 757 q 638 863 665 822 q 549 914 610 904 l 494 569 l 547 551 q 687 443 643 519 q 714 264 731 367 q 611 75 696 150 q 403 -12 526 0 l 374 -194 l 290 -194 m 314 769 q 330 661 304 707 q 415 596 356 615 l 465 914 q 363 867 403 904 q 314 769 324 829 m 419 100 q 534 153 489 111 q 589 261 579 194 q 572 368 599 322 q 489 432 546 414 l 474 438 l 419 100 z "},"%":{"ha":833,"x_min":-42,"x_max":914,"o":"m 242 556 q 110 606 154 556 q 79 743 65 656 l 93 833 q 167 971 107 921 q 315 1021 228 1021 q 448 971 403 1021 q 479 833 493 921 l 465 743 q 390 606 451 656 q 242 556 329 556 m -42 0 l 808 1014 l 914 1014 l 64 0 l -42 0 m 257 650 q 363 743 349 650 l 376 833 q 301 926 390 926 q 196 833 210 926 l 182 743 q 257 650 168 650 m 556 -7 q 424 43 468 -7 q 393 181 379 93 l 407 271 q 481 408 421 358 q 629 458 542 458 q 762 408 717 458 q 793 271 807 358 l 779 181 q 704 43 765 93 q 556 -7 643 -7 m 571 89 q 676 181 663 89 l 690 271 q 614 364 704 364 q 510 271 524 364 l 496 181 q 571 89 482 89 z "},"&":{"ha":833,"x_min":32,"x_max":799,"o":"m 256 -14 q 87 47 142 -14 q 50 215 32 108 l 76 389 q 135 513 88 463 q 256 585 182 564 l 247 599 q 199 807 183 711 q 292 967 214 907 q 483 1028 371 1028 q 665 964 604 1028 q 708 790 726 900 l 583 790 q 562 885 593 851 q 467 919 531 919 q 371 888 410 919 q 324 804 332 857 q 326 729 318 769 q 354 653 335 689 l 542 324 l 668 500 l 799 500 l 597 224 l 725 0 l 588 0 l 519 121 q 256 -14 396 -14 m 281 97 q 377 128 328 97 q 465 215 426 160 l 306 497 q 201 389 217 482 l 175 215 q 193 128 165 160 q 281 97 221 97 z "},"'":{"ha":833,"x_min":392,"x_max":576,"o":"m 392 597 l 408 806 l 442 1014 l 576 1014 l 543 806 l 494 597 l 392 597 z "},"(":{"ha":833,"x_min":221,"x_max":799,"o":"m 585 -174 q 308 18 396 -125 q 254 368 221 161 l 296 632 q 386 878 318 768 q 560 1065 454 989 q 799 1174 665 1142 l 779 1056 q 613 976 688 1035 q 488 829 538 917 q 421 632 439 742 l 379 368 q 384 174 363 261 q 462 28 406 86 q 604 -50 518 -29 l 585 -174 z "},")":{"ha":833,"x_min":71,"x_max":638,"o":"m 71 -174 l 90 -50 q 258 28 183 -29 q 382 174 332 86 q 449 368 432 261 l 490 632 q 486 829 508 742 q 408 976 464 917 q 265 1056 351 1035 l 285 1174 q 490 1065 408 1142 q 604 878 571 989 q 615 632 638 768 l 574 368 q 485 120 551 231 q 313 -65 418 10 q 71 -174 208 -140 z "},"*":{"ha":833,"x_min":74,"x_max":810,"o":"m 213 131 l 124 200 l 215 308 q 295 385 249 347 q 376 449 342 424 l 374 458 q 282 469 335 461 q 189 493 229 478 l 74 538 l 133 653 l 249 608 q 333 563 290 593 q 404 510 376 533 l 413 515 q 406 611 408 554 q 410 715 403 668 l 431 847 l 553 847 l 532 715 q 503 611 525 668 q 464 515 482 554 l 469 510 q 558 563 506 533 q 656 608 610 593 l 786 653 l 810 538 l 679 493 q 580 469 635 478 q 485 458 525 461 l 478 447 q 539 384 506 422 q 593 308 572 346 l 653 200 l 542 131 l 482 239 q 448 328 461 276 q 428 417 435 379 l 418 417 q 367 328 399 379 q 304 239 336 278 l 213 131 z "},"+":{"ha":833,"x_min":93,"x_max":764,"o":"m 315 132 l 358 403 l 93 403 l 111 514 l 376 514 l 418 785 l 540 785 l 499 514 l 764 514 l 746 403 l 481 403 l 438 132 l 315 132 z "},",":{"ha":833,"x_min":131,"x_max":496,"o":"m 131 -222 l 310 210 l 496 210 l 247 -222 l 131 -222 z "},"-":{"ha":833,"x_min":197,"x_max":660,"o":"m 197 403 l 215 514 l 660 514 l 642 403 l 197 403 z "},".":{"ha":833,"x_min":247,"x_max":494,"o":"m 353 -14 q 274 17 300 -14 q 256 99 247 47 q 301 185 264 153 q 390 217 338 217 q 469 185 443 217 q 486 99 494 153 q 442 17 478 47 q 353 -14 406 -14 z "},"/":{"ha":833,"x_min":19,"x_max":850,"o":"m 19 -153 l 715 1153 l 850 1153 l 154 -153 l 19 -153 z "},":":{"ha":833,"x_min":247,"x_max":585,"o":"m 446 569 q 367 598 394 569 q 347 674 340 626 q 391 749 354 721 q 479 778 428 778 q 558 749 532 778 q 578 674 585 721 q 535 598 571 626 q 446 569 499 569 m 353 -14 q 274 15 301 -14 q 254 90 247 43 q 298 166 261 138 q 386 194 335 194 q 465 166 439 194 q 485 90 492 138 q 442 15 478 43 q 353 -14 406 -14 z "},";":{"ha":833,"x_min":140,"x_max":588,"o":"m 432 569 q 362 599 386 569 q 344 674 338 628 q 386 748 351 718 q 465 778 421 778 l 493 778 q 563 748 538 778 q 581 674 588 718 q 540 599 574 628 q 460 569 506 569 l 432 569 m 140 -222 l 319 210 l 500 210 l 251 -222 l 140 -222 z "},"<":{"ha":833,"x_min":118,"x_max":785,"o":"m 668 90 l 118 389 l 140 528 l 785 826 l 765 697 l 301 486 q 249 465 274 474 q 214 453 225 456 q 247 441 225 450 q 292 419 269 432 l 689 207 l 668 90 z "},"=":{"ha":833,"x_min":94,"x_max":763,"o":"m 147 569 l 165 681 l 763 681 l 744 569 l 147 569 m 94 236 l 113 347 l 710 347 l 692 236 l 94 236 z "},">":{"ha":833,"x_min":71,"x_max":738,"o":"m 71 90 l 90 217 l 554 428 q 606 449 582 440 q 643 461 631 458 q 609 473 631 464 q 565 494 588 482 l 168 707 l 188 826 l 738 528 l 715 389 l 71 90 z "},"?":{"ha":833,"x_min":196,"x_max":754,"o":"m 276 285 l 317 535 l 386 535 q 535 584 475 535 q 608 715 594 633 q 576 847 621 797 q 442 896 532 896 l 268 896 l 288 1014 l 461 1014 q 681 933 607 1014 q 733 715 754 851 q 677 573 721 636 q 569 472 633 510 q 425 431 504 435 l 401 285 l 276 285 m 271 -7 q 215 17 235 -7 q 201 76 196 40 q 234 136 207 113 q 297 160 261 160 l 339 160 q 397 137 379 160 q 410 78 415 114 q 376 17 404 42 q 313 -7 349 -7 l 271 -7 z "},"@":{"ha":833,"x_min":6,"x_max":850,"o":"m 350 -250 q 152 -201 232 -250 q 39 -60 72 -151 q 25 153 6 31 l 100 625 q 180 840 121 750 q 331 979 239 931 q 539 1028 422 1028 q 774 937 697 1028 q 825 688 850 846 l 731 90 l 622 90 l 638 181 l 633 181 q 577 105 621 133 q 471 76 533 76 q 341 131 381 76 q 318 292 301 186 l 344 458 q 418 619 361 564 q 565 674 475 674 q 662 645 628 674 q 694 569 696 617 l 700 569 l 714 681 l 714 688 q 684 868 733 806 q 524 931 635 931 q 317 850 399 931 q 211 625 235 769 l 136 153 q 176 -66 114 14 q 367 -146 238 -146 l 464 -146 l 447 -250 l 350 -250 m 521 164 q 654 306 632 164 l 678 460 q 667 556 689 525 q 588 586 644 586 q 456 458 476 586 l 429 292 q 521 164 408 164 z "},"A":{"ha":833,"x_min":8,"x_max":703,"o":"m 8 0 l 433 1014 l 601 1014 l 703 0 l 581 0 l 557 269 l 250 269 l 140 0 l 8 0 m 292 375 l 547 375 l 518 688 q 507 836 510 776 q 504 914 504 896 q 477 836 499 896 q 419 689 456 776 l 292 375 z "},"B":{"ha":833,"x_min":68,"x_max":790,"o":"m 68 0 l 229 1014 l 517 1014 q 723 944 656 1014 q 771 751 790 875 q 709 612 758 668 q 583 535 660 556 q 699 446 663 513 q 719 282 735 379 q 607 76 699 151 q 376 0 515 0 l 68 0 m 282 582 l 446 582 q 580 625 526 582 q 646 742 633 668 q 618 858 657 815 q 499 901 579 901 l 333 901 l 282 582 m 208 113 l 381 113 q 526 159 468 113 q 597 286 583 206 q 567 422 610 369 q 438 474 525 474 l 265 474 l 208 113 z "},"C":{"ha":833,"x_min":83,"x_max":796,"o":"m 358 -14 q 151 64 219 -14 q 106 278 83 142 l 178 736 q 292 950 200 872 q 524 1028 385 1028 q 728 949 660 1028 q 775 736 796 871 l 650 736 q 626 869 664 822 q 506 915 588 915 q 370 869 424 915 q 303 738 317 824 l 231 278 q 256 145 217 192 q 376 99 294 99 q 511 145 458 99 q 578 278 564 192 l 703 278 q 588 65 681 143 q 358 -14 494 -14 z "},"D":{"ha":833,"x_min":67,"x_max":785,"o":"m 67 0 l 228 1014 l 490 1014 q 711 931 638 1014 q 763 710 785 849 l 699 306 q 634 144 685 213 q 506 38 583 75 q 329 0 428 0 l 67 0 m 210 111 l 347 111 q 499 163 439 111 q 574 306 560 214 l 638 710 q 608 851 653 800 q 472 903 564 903 l 335 903 l 210 111 z "},"E":{"ha":833,"x_min":78,"x_max":822,"o":"m 78 0 l 239 1014 l 822 1014 l 804 900 l 344 900 l 294 586 l 706 586 l 688 474 l 276 474 l 219 114 l 679 114 l 661 0 l 78 0 z "},"F":{"ha":833,"x_min":71,"x_max":829,"o":"m 71 0 l 232 1014 l 829 1014 l 811 900 l 336 900 l 282 564 l 721 564 l 703 450 l 267 450 l 196 0 l 71 0 z "},"G":{"ha":833,"x_min":83,"x_max":796,"o":"m 358 -14 q 151 64 219 -14 q 106 278 83 142 l 178 736 q 292 950 200 872 q 524 1028 385 1028 q 728 949 660 1028 q 775 736 796 871 l 650 736 q 626 869 664 822 q 506 915 588 915 q 370 869 424 915 q 303 738 317 824 l 231 278 q 256 144 217 192 q 376 97 294 97 q 511 144 458 97 q 578 278 564 192 l 597 403 l 392 403 l 410 517 l 740 517 l 703 278 q 642 123 689 189 q 522 22 594 57 q 358 -14 450 -14 z "},"H":{"ha":833,"x_min":68,"x_max":804,"o":"m 68 0 l 229 1014 l 354 1014 l 285 581 l 610 581 l 679 1014 l 804 1014 l 643 0 l 518 0 l 592 467 l 267 467 l 193 0 l 68 0 z "},"I":{"ha":833,"x_min":85,"x_max":788,"o":"m 85 0 l 103 114 l 310 114 l 435 900 l 228 900 l 246 1014 l 788 1014 l 769 900 l 563 900 l 438 114 l 644 114 l 626 0 l 85 0 z "},"J":{"ha":833,"x_min":25,"x_max":788,"o":"m 311 -14 q 95 68 165 -14 q 47 292 25 150 l 172 292 q 199 148 158 199 q 329 97 240 97 q 476 148 418 97 q 547 292 533 199 l 644 900 l 360 900 l 378 1014 l 788 1014 l 672 292 q 556 66 650 146 q 311 -14 461 -14 z "},"K":{"ha":833,"x_min":67,"x_max":864,"o":"m 67 0 l 228 1014 l 353 1014 l 283 579 l 431 579 l 725 1014 l 864 1014 l 535 522 l 717 0 l 578 0 l 417 469 l 267 469 l 192 0 l 67 0 z "},"L":{"ha":833,"x_min":126,"x_max":728,"o":"m 126 0 l 288 1014 l 413 1014 l 269 114 l 728 114 l 710 0 l 126 0 z "},"M":{"ha":833,"x_min":44,"x_max":828,"o":"m 44 0 l 206 1014 l 367 1014 l 419 686 q 433 598 426 642 q 442 531 439 554 q 469 598 451 554 q 508 688 488 642 l 661 1014 l 828 1014 l 667 0 l 544 0 l 603 368 q 630 511 614 433 q 665 669 646 589 q 703 822 685 749 q 738 951 722 896 l 494 444 l 363 444 l 276 951 q 270 826 275 897 q 259 674 265 754 q 244 515 253 594 q 225 368 236 436 l 167 0 l 44 0 z "},"N":{"ha":833,"x_min":64,"x_max":808,"o":"m 64 0 l 225 1014 l 390 1014 l 564 146 q 571 231 567 181 q 582 338 575 282 q 597 444 589 394 l 688 1014 l 808 1014 l 647 0 l 482 0 l 310 868 q 302 784 307 835 q 290 677 297 733 q 275 569 283 621 l 185 0 l 64 0 z "},"O":{"ha":833,"x_min":83,"x_max":788,"o":"m 353 -14 q 150 64 217 -14 q 106 278 83 142 l 178 736 q 291 950 200 872 q 518 1028 382 1028 q 721 951 654 1028 q 767 738 788 874 l 694 278 q 581 64 672 142 q 353 -14 489 -14 m 371 99 q 504 145 453 99 q 569 278 556 192 l 642 736 q 619 869 656 822 q 500 915 582 915 q 368 869 419 915 q 303 736 317 822 l 231 278 q 253 145 217 192 q 371 99 290 99 z "},"P":{"ha":833,"x_min":67,"x_max":838,"o":"m 67 0 l 228 1014 l 554 1014 q 767 933 696 1014 q 817 715 838 851 q 753 558 803 625 q 629 453 704 490 q 460 417 554 417 l 258 417 l 192 0 l 67 0 m 275 529 l 476 529 q 616 580 558 529 q 688 715 674 631 q 660 851 701 801 q 536 901 618 901 l 335 901 l 275 529 z "},"Q":{"ha":833,"x_min":72,"x_max":799,"o":"m 489 -250 l 383 -11 q 353 -14 368 -14 q 142 67 213 -14 q 94 285 72 149 l 165 729 q 228 888 181 821 q 350 991 275 954 q 518 1028 425 1028 q 728 947 658 1028 q 776 729 799 865 l 706 285 q 638 120 690 190 q 507 17 586 50 l 625 -250 l 489 -250 m 371 97 q 510 149 453 97 q 581 285 567 200 l 651 729 q 624 866 665 815 q 501 917 583 917 q 362 866 419 917 q 290 729 304 815 l 219 285 q 247 149 206 200 q 371 97 289 97 z "},"R":{"ha":833,"x_min":67,"x_max":810,"o":"m 67 0 l 228 1014 l 542 1014 q 694 977 632 1014 q 783 875 756 940 q 796 722 810 810 q 714 544 781 618 q 550 443 647 471 l 696 0 l 554 0 l 422 431 l 260 431 l 192 0 l 67 0 m 278 543 l 467 543 q 599 592 544 543 q 667 722 654 642 q 641 853 681 804 q 524 901 601 901 l 335 901 l 278 543 z "},"S":{"ha":833,"x_min":63,"x_max":797,"o":"m 358 -14 q 136 60 210 -14 q 81 264 63 135 l 206 264 q 238 143 193 188 q 376 99 283 99 q 520 142 464 99 q 589 261 576 185 q 573 372 599 326 q 492 436 547 418 l 361 479 q 218 585 264 511 q 186 758 172 658 q 246 901 200 840 q 364 995 292 961 q 526 1029 436 1029 q 728 955 660 1029 q 779 757 797 881 l 654 757 q 628 874 667 832 q 508 917 590 917 q 376 878 428 917 q 314 769 325 839 q 330 658 304 706 q 413 592 356 611 l 544 547 q 685 440 640 515 q 714 264 729 365 q 652 118 701 181 q 527 21 603 56 q 358 -14 451 -14 z "},"T":{"ha":833,"x_min":158,"x_max":857,"o":"m 293 0 l 436 900 l 158 900 l 176 1014 l 857 1014 l 839 900 l 561 900 l 418 0 l 293 0 z "},"U":{"ha":833,"x_min":86,"x_max":808,"o":"m 353 -14 q 149 65 211 -14 q 108 278 86 143 l 225 1014 l 350 1014 l 233 278 q 253 146 219 194 q 371 97 286 97 q 503 146 454 97 q 567 278 553 194 l 683 1014 l 808 1014 l 692 278 q 583 64 669 142 q 353 -14 496 -14 z "},"V":{"ha":833,"x_min":169,"x_max":864,"o":"m 269 0 l 169 1014 l 296 1014 l 358 325 q 369 191 365 253 q 372 97 372 129 q 403 191 382 129 q 454 325 425 253 l 735 1014 l 864 1014 l 440 0 l 269 0 z "},"W":{"ha":833,"x_min":90,"x_max":899,"o":"m 90 0 l 135 1014 l 251 1014 l 208 264 q 201 169 206 218 q 193 90 197 119 q 213 169 201 119 q 239 264 225 218 l 453 1014 l 585 1014 l 551 264 q 548 169 550 218 q 543 90 546 119 q 562 169 550 119 q 586 264 574 218 l 785 1014 l 899 1014 l 618 0 l 461 0 l 496 764 q 501 856 499 811 q 506 926 504 901 q 487 856 499 901 q 461 764 475 811 l 247 0 l 90 0 z "},"X":{"ha":833,"x_min":-6,"x_max":863,"o":"m -6 0 l 367 517 l 171 1014 l 310 1014 l 419 714 q 438 663 428 690 q 454 621 449 636 q 480 663 464 636 q 513 714 496 690 l 719 1014 l 863 1014 l 510 519 l 717 0 l 579 0 l 456 322 q 437 373 446 346 q 424 417 428 400 q 397 374 414 400 q 364 324 379 347 l 139 0 l -6 0 z "},"Y":{"ha":833,"x_min":149,"x_max":885,"o":"m 293 0 l 353 379 l 149 1014 l 275 1014 l 410 597 q 427 538 421 563 q 435 503 433 514 q 453 538 440 514 q 489 597 467 563 l 753 1014 l 885 1014 l 478 379 l 418 0 l 293 0 z "},"Z":{"ha":833,"x_min":57,"x_max":801,"o":"m 57 0 l 76 125 l 653 900 l 207 900 l 225 1014 l 801 1014 l 781 889 l 206 114 l 672 114 l 654 0 l 57 0 z "},"[":{"ha":833,"x_min":200,"x_max":746,"o":"m 200 -153 l 406 1153 l 746 1153 l 729 1042 l 514 1042 l 342 -42 l 557 -42 l 540 -153 l 200 -153 z "},"\\":{"ha":833,"x_min":225,"x_max":644,"o":"m 519 -153 l 225 1153 l 350 1153 l 644 -153 l 519 -153 z "},"]":{"ha":833,"x_min":124,"x_max":669,"o":"m 124 -153 l 140 -42 l 356 -42 l 528 1042 l 313 1042 l 329 1153 l 669 1153 l 464 -153 l 124 -153 z "},"^":{"ha":833,"x_min":125,"x_max":736,"o":"m 125 472 l 460 1014 l 576 1014 l 736 472 l 628 472 l 529 831 q 508 924 513 890 q 488 884 501 910 q 458 831 475 858 l 242 472 l 125 472 z "},"_":{"ha":833,"x_min":0,"x_max":683,"o":"m 0 -139 l 17 -35 l 683 -35 l 667 -139 l 0 -139 z "},"`":{"ha":833,"x_min":346,"x_max":599,"o":"m 475 896 l 346 1090 l 476 1090 l 599 896 l 475 896 z "},"a":{"ha":833,"x_min":85,"x_max":767,"o":"m 310 -14 q 140 63 196 -14 q 106 269 85 139 l 140 493 q 241 701 161 625 q 436 778 321 778 q 571 735 522 778 q 617 618 619 692 l 621 618 l 642 764 l 767 764 l 646 0 l 521 0 l 544 146 l 542 146 q 458 28 521 71 q 310 -14 396 -14 m 369 94 q 499 143 447 94 q 565 278 551 192 l 597 486 q 574 621 611 572 q 460 669 538 669 q 329 622 381 669 q 264 486 278 575 l 232 278 q 254 142 218 189 q 369 94 290 94 z "},"b":{"ha":833,"x_min":67,"x_max":749,"o":"m 397 -14 q 262 29 310 -14 q 217 146 214 72 l 215 146 l 192 0 l 67 0 l 228 1014 l 353 1014 l 317 792 l 286 618 l 292 618 q 375 735 313 692 q 524 778 438 778 q 694 701 639 778 q 728 493 749 625 l 693 269 q 592 63 672 139 q 397 -14 513 -14 m 374 94 q 504 142 453 94 q 569 278 556 189 l 601 486 q 580 622 617 575 q 464 669 543 669 q 335 621 388 669 q 268 486 283 572 l 236 278 q 260 143 222 192 q 374 94 297 94 z "},"c":{"ha":833,"x_min":83,"x_max":756,"o":"m 358 -14 q 151 64 219 -14 q 106 278 83 142 l 138 486 q 253 700 160 622 q 485 778 346 778 q 686 707 617 778 q 740 514 756 636 l 615 514 q 583 627 622 588 q 467 667 544 667 q 331 620 385 667 q 264 488 278 574 l 231 278 q 256 144 217 192 q 376 97 294 97 q 506 138 454 97 q 574 250 557 178 l 699 250 q 583 57 675 128 q 358 -14 490 -14 z "},"d":{"ha":833,"x_min":85,"x_max":807,"o":"m 310 -14 q 140 63 196 -14 q 106 269 85 139 l 140 493 q 241 701 161 625 q 436 778 321 778 q 571 735 522 778 q 617 618 619 692 l 621 618 l 646 792 l 682 1014 l 807 1014 l 646 0 l 521 0 l 544 146 l 542 146 q 458 28 521 71 q 310 -14 396 -14 m 369 94 q 499 143 447 94 q 565 278 551 192 l 597 486 q 575 621 613 572 q 460 669 538 669 q 330 622 381 669 q 264 486 279 575 l 232 278 q 254 142 218 189 q 369 94 290 94 z "},"e":{"ha":833,"x_min":85,"x_max":749,"o":"m 353 -14 q 151 66 218 -14 q 106 278 85 146 l 138 486 q 199 640 153 575 q 317 742 246 706 q 479 778 389 778 q 682 698 615 778 q 726 486 749 618 l 706 351 l 239 351 l 228 278 q 249 140 214 188 q 369 92 285 92 q 553 194 515 92 l 678 194 q 563 42 651 99 q 353 -14 474 -14 m 254 446 l 599 446 l 604 486 q 584 625 619 576 q 463 674 549 674 q 326 625 378 674 q 260 486 275 576 l 254 446 z "},"f":{"ha":833,"x_min":0,"x_max":833,"o":"m 0 -250 l 18 -136 l 121 -136 q 251 -28 233 -136 l 350 574 l 113 574 l 131 688 l 368 688 l 385 792 q 474 954 401 894 q 660 1014 547 1014 l 833 1014 l 815 900 l 640 900 q 510 792 526 900 l 493 688 l 790 688 l 772 574 l 475 574 l 376 -28 q 287 -190 360 -131 q 101 -250 214 -250 l 0 -250 z "},"g":{"ha":833,"x_min":96,"x_max":767,"o":"m 125 -250 l 143 -136 l 386 -136 q 517 -28 499 -136 l 532 69 l 557 208 l 554 208 q 474 92 535 135 q 326 49 413 49 q 152 126 208 49 q 117 333 96 203 l 142 494 q 243 701 163 625 q 442 778 324 778 q 576 735 529 778 q 619 618 624 692 l 619 618 l 643 764 l 767 764 l 642 -28 q 552 -190 625 -131 q 367 -250 479 -250 l 125 -250 m 381 157 q 510 206 458 157 q 576 340 563 254 l 599 486 q 576 621 614 572 q 461 669 539 669 q 331 622 382 669 q 265 486 281 575 l 243 340 q 265 204 229 251 q 381 157 301 157 z "},"h":{"ha":833,"x_min":67,"x_max":749,"o":"m 67 0 l 228 1014 l 353 1014 l 313 764 l 289 618 l 292 618 q 372 736 313 694 q 519 778 432 778 q 692 707 635 778 q 729 514 749 636 l 647 0 l 522 0 l 601 500 q 578 627 614 582 q 467 672 542 672 q 336 624 389 672 q 268 486 283 575 l 192 0 l 67 0 z "},"i":{"ha":833,"x_min":50,"x_max":721,"o":"m 50 0 l 68 114 l 339 114 l 424 650 l 188 650 l 206 764 l 567 764 l 464 114 l 721 114 l 703 0 l 50 0 m 519 901 q 451 925 474 901 q 435 989 429 949 q 472 1055 442 1031 q 547 1079 501 1079 q 616 1055 593 1079 q 632 989 639 1031 q 596 925 626 949 q 519 901 565 901 z "},"j":{"ha":833,"x_min":17,"x_max":736,"o":"m 17 -250 l 36 -135 l 215 -135 q 356 -88 301 -135 q 425 43 411 -42 l 521 650 l 201 650 l 219 764 l 664 764 l 550 43 q 488 -112 536 -46 q 365 -214 439 -178 q 196 -250 290 -250 l 17 -250 m 617 901 q 549 925 571 901 q 532 989 526 949 q 569 1055 539 1031 q 644 1079 599 1079 q 713 1055 690 1079 q 729 989 736 1031 q 693 925 724 949 q 617 901 663 901 z "},"k":{"ha":833,"x_min":71,"x_max":815,"o":"m 71 0 l 232 1014 l 357 1014 l 267 449 l 397 449 l 669 764 l 815 764 l 501 396 l 699 0 l 556 0 l 388 340 l 250 340 l 196 0 l 71 0 z "},"l":{"ha":833,"x_min":138,"x_max":721,"o":"m 446 0 q 294 59 344 0 q 258 215 243 118 l 367 900 l 138 900 l 156 1014 l 510 1014 l 383 215 q 398 141 376 168 q 464 114 419 114 l 721 114 l 703 0 l 446 0 z "},"m":{"ha":833,"x_min":31,"x_max":786,"o":"m 31 0 l 151 764 l 261 764 l 246 672 l 256 672 q 308 749 271 721 q 394 778 344 778 q 503 672 493 778 l 510 672 q 563 749 525 721 q 651 778 601 778 q 755 724 724 778 q 772 581 786 669 l 681 0 l 565 0 l 657 582 q 648 656 664 629 q 593 682 632 682 q 500 597 519 682 l 500 597 l 500 597 q 497 583 499 590 l 406 0 l 306 0 l 397 582 q 387 656 404 631 q 331 682 369 682 q 268 656 292 682 q 238 583 244 631 l 146 0 l 31 0 z "},"n":{"ha":833,"x_min":67,"x_max":749,"o":"m 67 0 l 188 764 l 313 764 l 289 618 l 292 618 q 372 736 313 694 q 519 778 432 778 q 692 707 635 778 q 729 514 749 636 l 647 0 l 522 0 l 601 500 q 578 627 614 582 q 467 672 542 672 q 336 624 389 672 q 268 486 283 575 l 192 0 l 67 0 z "},"o":{"ha":833,"x_min":83,"x_max":749,"o":"m 353 -14 q 150 64 217 -14 q 106 278 83 142 l 138 486 q 251 700 160 622 q 479 778 343 778 q 682 701 615 778 q 728 488 749 624 l 694 278 q 581 64 672 142 q 353 -14 489 -14 m 371 97 q 504 143 453 97 q 569 278 556 189 l 601 486 q 580 621 617 575 q 461 667 543 667 q 329 621 381 667 q 263 486 278 575 l 231 278 q 253 143 217 189 q 371 97 290 97 z "},"p":{"ha":833,"x_min":26,"x_max":749,"o":"m 26 -250 l 188 764 l 313 764 l 289 618 l 292 618 q 376 735 313 693 q 525 778 439 778 q 694 702 640 778 q 728 494 749 626 l 693 271 q 593 63 672 139 q 399 -14 514 -14 q 263 29 313 -14 q 217 146 214 72 l 213 146 l 188 -28 l 151 -250 l 26 -250 m 375 94 q 505 142 454 94 q 569 278 556 189 l 601 486 q 581 622 617 575 q 465 669 544 669 q 336 621 389 669 q 268 486 283 572 l 236 278 q 260 143 222 192 q 375 94 299 94 z "},"q":{"ha":833,"x_min":83,"x_max":765,"o":"m 479 -250 l 515 -28 l 546 146 l 540 146 q 457 29 519 72 q 308 -14 394 -14 q 138 63 193 -14 q 104 271 83 139 l 139 494 q 240 702 160 626 q 435 778 321 778 q 570 735 522 778 q 615 618 618 692 l 617 618 l 640 764 l 765 764 l 604 -250 l 479 -250 m 368 94 q 498 143 446 94 q 564 278 550 192 l 596 486 q 574 621 611 572 q 458 669 536 669 q 328 622 379 669 q 263 486 278 575 l 231 278 q 253 142 217 189 q 368 94 289 94 z "},"r":{"ha":833,"x_min":93,"x_max":779,"o":"m 93 0 l 214 764 l 336 764 l 314 625 q 540 778 375 778 q 720 702 661 778 q 760 497 779 626 l 751 451 l 626 451 l 632 486 q 611 624 647 576 q 494 672 575 672 q 363 624 415 672 q 294 486 310 575 l 218 0 l 93 0 z "},"s":{"ha":833,"x_min":82,"x_max":739,"o":"m 322 -14 q 143 41 204 -14 q 86 188 82 96 l 211 188 q 247 122 214 147 q 340 97 279 97 l 399 97 q 513 128 472 97 q 563 210 554 160 q 453 328 576 307 l 353 344 q 196 413 243 363 q 164 560 149 463 q 254 720 179 663 q 460 778 329 778 l 513 778 q 681 725 622 778 q 739 585 739 672 l 614 585 q 581 644 611 621 q 494 667 551 667 l 442 667 q 334 639 371 667 q 289 558 297 611 q 305 488 282 511 q 386 454 328 464 l 486 438 q 655 367 606 418 q 689 215 704 315 q 594 48 671 110 q 381 -14 517 -14 l 322 -14 z "},"t":{"ha":833,"x_min":118,"x_max":782,"o":"m 439 0 q 294 53 340 0 q 263 201 247 106 l 333 650 l 118 650 l 136 764 l 351 764 l 385 972 l 510 972 l 476 764 l 782 764 l 764 650 l 458 650 l 388 201 q 457 114 374 114 l 665 114 l 647 0 l 439 0 z "},"u":{"ha":833,"x_min":88,"x_max":768,"o":"m 351 -14 q 153 65 219 -14 q 108 278 88 143 l 185 764 l 310 764 l 233 278 q 256 144 219 192 q 369 96 293 96 q 500 144 447 96 q 567 278 553 192 l 643 764 l 768 764 l 692 278 q 631 123 678 189 q 512 22 583 57 q 351 -14 440 -14 z "},"v":{"ha":833,"x_min":143,"x_max":810,"o":"m 271 0 l 143 764 l 267 764 l 349 250 q 361 162 356 204 q 369 96 367 119 q 399 162 379 119 q 440 250 418 204 l 679 764 l 810 764 l 440 0 l 271 0 z "},"w":{"ha":833,"x_min":108,"x_max":844,"o":"m 110 0 l 108 764 l 215 764 l 206 222 q 204 156 204 192 q 203 97 204 121 q 221 156 210 121 q 242 222 232 192 l 414 764 l 536 764 l 535 222 q 535 156 535 192 q 535 97 536 121 q 553 156 542 121 q 574 222 564 192 l 739 764 l 844 764 l 596 0 l 458 0 l 460 528 l 460 667 q 442 606 454 644 q 417 528 429 567 l 247 0 l 110 0 z "},"x":{"ha":833,"x_min":15,"x_max":801,"o":"m 15 0 l 342 397 l 153 764 l 297 764 l 406 528 q 420 494 413 513 q 431 465 428 476 q 449 494 438 476 q 471 528 460 513 l 653 764 l 801 764 l 496 388 l 696 0 l 551 0 l 433 250 q 419 285 426 265 q 407 318 411 306 q 386 285 399 306 q 361 250 374 265 l 164 0 l 15 0 z "},"y":{"ha":833,"x_min":97,"x_max":768,"o":"m 125 -250 l 143 -136 l 386 -136 q 517 -28 500 -136 l 533 76 l 557 215 l 554 215 q 474 97 533 139 q 326 56 414 56 q 155 126 213 56 q 117 319 97 197 l 188 764 l 313 764 l 244 333 q 267 207 231 253 q 379 161 304 161 q 510 210 457 161 q 578 347 564 258 l 643 764 l 768 764 l 642 -28 q 553 -190 626 -131 q 367 -250 479 -250 l 125 -250 z "},"z":{"ha":833,"x_min":64,"x_max":753,"o":"m 64 0 l 83 125 l 589 650 l 178 650 l 196 764 l 753 764 l 733 639 l 219 114 l 665 114 l 647 0 l 64 0 z "},"{":{"ha":833,"x_min":128,"x_max":836,"o":"m 568 -153 q 385 -92 446 -153 q 347 78 324 -32 l 397 306 q 392 412 413 379 q 281 444 371 444 l 128 444 l 144 556 l 297 556 q 419 588 388 556 q 458 694 451 621 l 481 922 q 572 1092 492 1032 q 774 1153 651 1153 l 836 1153 l 819 1042 l 757 1042 q 652 1012 692 1042 q 606 922 613 982 l 583 694 q 530 564 575 615 q 414 500 485 513 q 510 435 481 488 q 522 306 539 383 l 472 78 q 490 -12 460 18 q 585 -42 519 -42 l 647 -42 l 631 -153 l 568 -153 z "},"|":{"ha":833,"x_min":269,"x_max":600,"o":"m 269 -153 l 475 1153 l 600 1153 l 394 -153 l 269 -153 z "},"}":{"ha":833,"x_min":33,"x_max":742,"o":"m 33 -153 l 50 -42 l 113 -42 q 218 -12 178 -42 q 264 78 258 18 l 286 306 q 339 437 293 385 q 456 500 385 489 q 360 564 389 513 q 347 694 331 615 l 397 922 q 380 1012 410 982 q 285 1042 350 1042 l 222 1042 l 239 1153 l 301 1153 q 485 1092 425 1153 q 522 922 546 1032 l 472 694 q 478 588 457 621 q 589 556 499 556 l 742 556 l 725 444 l 572 444 q 451 412 483 444 q 411 306 418 379 l 389 78 q 299 -92 378 -32 q 96 -153 219 -153 l 33 -153 z "},"~":{"ha":833,"x_min":92,"x_max":774,"o":"m 92 354 l 107 451 q 178 583 121 533 q 317 632 236 632 q 401 614 369 632 q 451 569 432 596 q 485 515 471 542 q 517 469 500 488 q 563 451 535 451 q 640 528 628 451 l 656 625 l 774 625 l 758 528 q 689 397 746 447 q 550 347 632 347 q 467 365 499 347 q 415 410 435 383 q 381 465 396 438 q 349 510 367 492 q 303 528 331 528 q 225 451 238 528 l 210 354 l 92 354 z "},"":{"ha":833,"x_min":15,"x_max":804,"o":"m 16 340 l 70 675 l 156 675 q 229 648 205 675 q 246 574 253 620 l 225 441 q 204 388 220 410 q 161 353 187 365 q 103 340 136 340 l 16 340 m 64 377 l 109 377 q 159 394 139 377 q 184 441 179 411 l 205 574 q 195 621 210 604 q 150 638 181 638 l 105 638 l 64 377 m 297 340 l 350 675 l 542 675 l 536 637 l 385 637 l 368 534 l 504 534 l 498 497 l 362 497 l 343 378 l 495 378 l 489 340 l 297 340 m 606 340 l 659 675 l 700 675 l 653 378 l 804 378 l 798 340 l 606 340 z "},"":{"ha":833,"x_min":0,"x_max":0,"o":""},"":{"ha":833,"x_min":242,"x_max":576,"o":"m 438 606 q 376 629 397 606 q 361 690 356 653 q 395 750 367 728 q 464 772 424 772 l 492 772 q 554 751 532 772 q 569 692 576 729 q 535 629 564 653 q 465 606 506 606 l 438 606 m 242 -250 l 269 -76 l 385 467 l 474 467 l 417 -76 l 389 -250 l 242 -250 z "},"":{"ha":833,"x_min":85,"x_max":753,"o":"m 297 -194 l 326 -12 q 144 73 203 -4 q 106 278 85 150 l 138 486 q 242 690 158 614 q 450 776 325 767 l 479 958 l 563 958 l 533 775 q 698 693 643 763 q 740 514 753 624 l 615 514 q 595 612 621 574 q 515 661 569 650 l 428 103 q 574 250 546 126 l 699 250 q 599 72 676 140 q 410 -11 522 3 l 381 -194 l 297 -194 m 231 278 q 248 154 218 200 q 343 100 278 108 l 433 664 q 320 610 364 656 q 264 488 276 564 l 231 278 z "},"":{"ha":833,"x_min":43,"x_max":793,"o":"m 43 0 l 65 139 q 143 202 103 165 q 214 278 183 239 q 250 353 244 318 q 256 424 256 390 l 110 424 l 128 535 l 232 535 q 203 605 218 571 q 180 678 188 639 q 181 771 172 718 q 291 958 200 889 q 518 1028 382 1028 q 724 958 656 1028 q 775 764 793 888 l 643 764 q 615 875 654 833 q 500 917 576 917 q 368 877 419 917 q 306 764 317 838 q 310 680 299 715 q 339 611 321 644 q 371 535 357 578 l 628 535 l 610 424 l 385 424 q 379 365 383 396 q 337 255 369 306 q 263 167 304 204 q 186 111 222 131 l 700 111 l 682 0 l 43 0 z "},"":{"ha":833,"x_min":40,"x_max":838,"o":"m 654 157 l 551 279 q 394 238 482 238 q 253 276 311 238 l 114 158 l 40 249 l 172 365 q 151 436 157 397 q 153 518 146 475 q 226 676 168 608 l 125 797 l 224 882 l 328 758 q 483 799 399 799 q 629 757 569 799 l 763 872 l 838 785 l 706 671 q 722 518 738 601 q 651 361 707 432 l 753 242 l 654 157 m 410 333 q 506 358 461 333 q 581 424 550 382 q 619 518 611 465 q 589 650 632 597 q 468 703 546 703 q 371 678 417 703 q 294 613 325 654 q 256 518 264 571 q 288 386 243 439 q 410 333 332 333 z "},"":{"ha":833,"x_min":49,"x_max":885,"o":"m 49 167 l 65 271 l 336 271 l 353 375 l 82 375 l 99 479 l 321 479 l 149 1014 l 275 1014 l 410 597 q 427 538 421 563 q 435 503 433 514 q 453 538 440 514 q 489 597 467 563 l 753 1014 l 885 1014 l 542 479 l 765 479 l 749 375 l 478 375 l 461 271 l 732 271 l 715 167 l 444 167 l 418 0 l 293 0 l 319 167 l 49 167 z "},"":{"ha":833,"x_min":269,"x_max":600,"o":"m 392 625 l 475 1153 l 600 1153 l 517 625 l 392 625 m 269 -153 l 353 375 l 478 375 l 394 -153 l 269 -153 z "},"":{"ha":833,"x_min":46,"x_max":788,"o":"m 301 -214 q 117 -155 188 -214 q 46 0 46 -96 l 178 0 q 222 -74 183 -46 q 318 -103 260 -103 l 360 -103 q 486 -70 439 -103 q 542 17 533 -37 q 422 146 558 117 l 299 172 q 157 253 206 192 q 121 396 108 315 q 160 492 129 449 q 235 564 190 536 q 332 596 281 592 l 333 606 q 258 624 296 606 q 201 687 221 643 q 192 804 181 731 q 290 967 207 907 q 503 1028 372 1028 l 544 1028 q 721 972 654 1028 q 788 826 788 917 l 656 826 q 617 892 651 867 q 528 917 582 917 l 486 917 q 370 886 415 917 q 318 803 325 856 q 342 726 311 758 q 432 679 372 693 l 553 653 q 697 572 649 632 q 731 428 744 513 q 692 331 722 375 q 617 262 663 288 q 515 236 571 236 l 514 226 q 594 203 554 225 q 657 136 633 181 q 668 21 681 92 q 565 -151 651 -87 q 343 -214 479 -214 l 301 -214 m 438 257 q 512 268 478 249 q 570 327 546 288 q 601 415 594 367 q 585 501 610 464 q 513 547 561 538 l 414 568 q 340 558 375 576 q 282 501 306 539 q 251 417 258 464 q 265 326 242 364 q 336 278 289 288 l 438 257 z "},"":{"ha":833,"x_min":264,"x_max":763,"o":"m 653 901 q 592 925 613 901 q 578 989 572 949 q 613 1055 585 1031 q 681 1079 640 1079 q 742 1055 721 1079 q 756 989 763 1031 q 722 925 750 949 q 653 901 693 901 m 344 901 q 284 925 304 901 q 269 989 264 949 q 304 1055 276 1031 q 372 1079 332 1079 q 433 1055 413 1079 q 447 989 454 1031 q 413 925 442 949 q 344 901 385 901 z "},"":{"ha":833,"x_min":63,"x_max":836,"o":"m 379 153 q 201 194 274 153 q 95 311 128 236 q 78 486 63 386 l 111 694 q 183 869 128 794 q 326 986 239 944 q 518 1028 413 1028 q 698 986 625 1028 q 803 869 771 944 q 819 694 836 794 l 786 486 q 715 311 771 386 q 572 194 658 236 q 379 153 486 153 m 390 222 q 541 255 474 222 q 653 347 608 288 q 710 486 697 407 l 743 694 q 697 886 763 814 q 507 958 632 958 q 357 925 425 958 q 244 833 289 892 q 188 694 200 774 l 154 486 q 201 295 136 368 q 390 222 267 222 m 417 340 q 298 384 339 340 q 268 500 257 428 l 297 681 q 363 797 308 753 q 496 840 418 840 q 614 797 574 840 q 643 681 654 753 l 553 681 q 539 741 558 718 q 483 764 519 764 q 419 741 446 764 q 388 681 393 718 l 358 500 q 372 440 353 463 q 429 417 392 417 q 492 440 465 417 q 524 500 518 463 l 614 500 q 549 384 603 428 q 417 340 494 340 z "},"":{"ha":833,"x_min":292,"x_max":675,"o":"m 418 625 q 324 658 356 625 q 300 744 292 690 q 352 831 308 799 q 464 863 396 863 l 589 863 l 596 903 q 580 953 601 935 q 517 972 558 972 q 453 957 481 972 q 418 917 425 942 l 349 917 q 410 999 364 969 q 525 1028 457 1028 q 637 994 599 1028 q 665 903 675 961 l 622 632 l 557 632 l 569 708 l 565 708 q 506 647 544 669 q 418 625 467 625 m 444 678 q 533 703 499 678 q 575 771 568 728 l 575 771 l 581 807 l 456 807 q 369 744 378 807 q 385 696 364 714 q 444 678 406 678 z "},"":{"ha":833,"x_min":42,"x_max":850,"o":"m 593 56 l 365 389 l 697 722 l 850 722 l 507 385 l 733 56 l 593 56 m 269 56 l 42 389 l 374 722 l 526 722 l 183 385 l 410 56 l 269 56 z "},"":{"ha":833,"x_min":110,"x_max":767,"o":"m 601 285 l 631 465 l 110 465 l 128 576 l 767 576 l 719 285 l 601 285 z "},"":{"ha":833,"x_min":197,"x_max":660,"o":"m 197 403 l 215 514 l 660 514 l 642 403 l 197 403 z "},"":{"ha":833,"x_min":63,"x_max":836,"o":"m 379 153 q 200 194 274 153 q 94 311 126 236 q 78 486 63 386 l 111 694 q 183 869 128 794 q 326 986 239 944 q 518 1028 413 1028 q 698 986 625 1028 q 803 869 771 944 q 819 694 836 794 l 786 486 q 715 311 771 386 q 572 194 658 236 q 379 153 486 153 m 390 222 q 541 255 474 222 q 653 347 608 288 q 710 486 697 407 l 743 694 q 697 886 763 814 q 507 958 632 958 q 357 925 425 958 q 244 833 289 892 q 188 694 200 774 l 154 486 q 201 295 136 368 q 390 222 267 222 m 258 347 l 335 833 l 493 833 q 606 794 568 833 q 632 688 643 754 q 528 557 617 592 l 588 347 l 500 347 l 447 542 l 372 542 l 342 347 l 258 347 m 383 611 l 458 611 q 518 631 494 611 q 547 688 542 651 q 536 744 554 724 q 482 764 518 764 l 407 764 l 383 611 z "},"":{"ha":833,"x_min":281,"x_max":742,"o":"m 281 931 l 297 1035 l 742 1035 l 725 931 l 281 931 z "},"":{"ha":833,"x_min":264,"x_max":710,"o":"m 454 625 q 313 681 361 625 q 278 826 264 736 q 359 972 293 917 q 518 1028 425 1028 q 661 972 613 1028 q 694 826 710 917 q 615 681 681 736 q 454 625 549 625 m 464 696 q 561 732 521 696 q 611 826 601 768 q 592 922 621 886 q 506 958 563 958 q 410 922 450 958 q 361 826 371 886 q 380 732 351 768 q 464 696 408 696 z "},"":{"ha":833,"x_min":36,"x_max":764,"o":"m 36 0 l 51 97 l 310 97 l 360 410 l 94 410 l 111 521 l 376 521 l 419 792 l 542 792 l 499 521 l 764 521 l 747 410 l 482 410 l 432 97 l 690 97 l 675 0 l 36 0 z "},"":{"ha":833,"x_min":258,"x_max":724,"o":"m 258 563 l 278 683 l 529 851 q 585 905 563 874 q 613 967 607 936 q 597 1049 621 1019 q 524 1079 572 1079 q 441 1049 475 1079 q 399 967 407 1019 l 301 967 q 385 1113 321 1058 q 538 1167 449 1167 q 678 1113 632 1167 q 710 969 724 1060 q 665 869 701 921 q 571 779 628 817 l 372 651 l 674 651 l 660 563 l 258 563 z "},"":{"ha":833,"x_min":232,"x_max":685,"o":"m 421 549 q 279 601 326 549 q 246 743 232 654 l 342 743 q 358 665 333 694 q 435 636 383 636 q 516 665 483 636 q 557 743 549 694 q 541 820 564 792 q 469 849 518 849 l 428 849 l 442 942 l 586 1065 l 336 1065 l 351 1154 l 685 1154 l 667 1047 l 526 926 q 634 867 599 915 q 657 743 669 818 q 579 601 643 654 q 421 549 515 549 z "},"":{"ha":833,"x_min":397,"x_max":717,"o":"m 397 896 l 575 1090 l 717 1090 l 532 896 l 397 896 z "},"":{"ha":833,"x_min":29,"x_max":765,"o":"m 29 -250 l 190 764 l 315 764 l 239 278 q 259 143 225 192 q 369 94 293 94 q 499 143 447 94 q 564 278 550 192 l 640 764 l 765 764 l 644 0 l 522 0 l 546 146 l 542 146 q 481 29 525 72 q 350 -14 436 -14 q 238 29 264 -14 q 218 146 211 72 l 215 146 l 190 -28 l 154 -250 l 29 -250 z "},"":{"ha":833,"x_min":118,"x_max":801,"o":"m 253 -250 l 361 431 q 181 496 243 431 q 135 667 118 561 l 153 778 q 206 902 164 849 q 311 985 247 956 q 454 1014 375 1014 l 565 1014 l 364 -250 l 253 -250 m 489 -250 l 690 1014 l 801 1014 l 600 -250 l 489 -250 z "},"":{"ha":833,"x_min":247,"x_max":494,"o":"m 353 361 q 274 392 300 361 q 256 474 247 422 q 301 560 264 528 q 390 592 338 592 q 469 560 443 592 q 486 474 494 528 q 442 392 478 422 q 353 361 406 361 z "},"":{"ha":833,"x_min":179,"x_max":488,"o":"m 179 -282 l 192 -206 l 289 -206 q 340 -190 319 -206 q 364 -156 361 -174 q 333 -114 368 -132 q 228 -96 297 -96 l 297 36 l 376 36 l 333 -49 q 406 -67 369 -53 q 465 -106 443 -81 q 482 -167 488 -131 q 424 -248 475 -214 q 297 -282 372 -282 l 179 -282 z "},"":{"ha":833,"x_min":243,"x_max":681,"o":"m 243 563 l 257 651 l 439 651 l 504 1065 l 317 944 l 333 1054 l 483 1153 l 615 1153 l 536 651 l 681 651 l 667 563 l 243 563 z "},"":{"ha":833,"x_min":307,"x_max":665,"o":"m 453 618 q 344 658 381 618 q 317 764 307 699 l 335 875 q 395 981 346 940 q 517 1021 444 1021 q 627 981 589 1021 q 654 875 665 940 l 636 764 q 576 658 626 699 q 453 618 525 618 m 463 674 q 532 699 503 674 q 567 764 561 724 l 585 875 q 570 940 592 915 q 508 965 549 965 q 440 940 468 965 q 404 875 411 915 l 386 764 q 401 699 381 724 q 463 674 422 674 z "},"":{"ha":833,"x_min":-15,"x_max":792,"o":"m 308 56 l 649 397 l 424 722 l 564 722 l 792 389 l 460 56 l 308 56 m -15 56 l 325 397 l 100 722 l 240 722 l 468 389 l 136 56 l -15 56 z "},"":{"ha":833,"x_min":64,"x_max":808,"o":"m 64 0 l 426 563 l 69 563 l 81 632 l 244 632 l 296 960 q 274 935 289 950 q 242 907 260 921 l 144 832 l 160 929 l 271 1014 l 389 1014 l 328 632 l 463 632 l 460 615 l 717 1014 l 808 1014 l 156 0 l 64 0 m 606 0 l 621 97 l 378 97 l 396 208 l 608 451 l 704 451 l 476 189 l 472 167 l 632 167 l 651 290 l 735 290 l 689 0 l 606 0 z "},"":{"ha":833,"x_min":64,"x_max":808,"o":"m 64 0 l 426 563 l 69 563 l 81 632 l 244 632 l 296 960 q 274 935 289 950 q 242 907 260 921 l 144 832 l 160 929 l 271 1014 l 389 1014 l 328 632 l 471 632 l 717 1014 l 808 1014 l 156 0 l 64 0 m 376 0 l 390 89 l 572 185 q 688 300 679 242 q 673 365 694 340 q 611 389 651 389 q 542 365 571 389 q 507 300 514 340 l 424 300 q 493 415 439 372 q 622 458 547 458 q 742 415 700 458 q 772 303 783 372 q 727 218 765 260 q 626 144 689 176 l 486 72 l 485 58 q 530 65 500 61 q 590 69 560 69 l 742 69 l 731 0 l 376 0 z "},"":{"ha":833,"x_min":64,"x_max":808,"o":"m 240 556 q 118 596 160 556 q 86 701 76 636 l 169 701 q 186 646 164 667 q 251 625 208 625 q 322 646 293 625 q 357 701 351 667 q 340 757 363 736 q 278 778 318 778 l 236 778 l 249 857 l 375 944 l 158 944 l 169 1014 l 468 1014 l 456 938 l 322 846 q 417 799 385 838 q 440 701 450 760 q 375 596 431 636 q 240 556 319 556 m 64 0 l 717 1014 l 808 1014 l 156 0 l 64 0 m 606 0 l 621 97 l 378 97 l 396 208 l 608 451 l 704 451 l 476 189 l 472 167 l 632 167 l 651 290 l 735 290 l 689 0 l 606 0 z "},"":{"ha":833,"x_min":79,"x_max":638,"o":"m 500 604 q 439 628 460 604 q 424 689 418 651 q 458 749 429 726 q 526 771 486 771 l 554 771 q 616 749 594 771 q 632 690 638 728 q 597 628 626 651 q 528 604 568 604 l 500 604 m 374 -236 q 153 -158 226 -236 q 100 56 79 -79 q 156 196 113 135 q 263 293 199 257 q 407 333 328 329 l 431 479 l 556 479 l 515 229 l 446 229 q 298 183 357 229 q 225 56 239 138 q 258 -72 213 -25 q 393 -118 303 -118 l 567 -118 l 547 -236 l 374 -236 z "},"":{"ha":833,"x_min":8,"x_max":703,"o":"m 8 0 l 433 1014 l 601 1014 l 703 0 l 581 0 l 557 269 l 250 269 l 140 0 l 8 0 m 292 375 l 547 375 l 518 688 q 507 836 510 776 q 504 914 504 896 q 477 836 499 896 q 419 689 456 776 l 292 375 m 492 1125 l 363 1319 l 493 1319 l 615 1125 l 492 1125 z "},"":{"ha":833,"x_min":8,"x_max":768,"o":"m 8 0 l 433 1014 l 601 1014 l 703 0 l 581 0 l 557 269 l 250 269 l 140 0 l 8 0 m 292 375 l 547 375 l 518 688 q 507 836 510 776 q 504 914 504 896 q 477 836 499 896 q 419 689 456 776 l 292 375 m 449 1125 l 626 1319 l 768 1319 l 583 1125 l 449 1125 z "},"":{"ha":833,"x_min":8,"x_max":785,"o":"m 8 0 l 433 1014 l 601 1014 l 703 0 l 581 0 l 557 269 l 250 269 l 140 0 l 8 0 m 292 375 l 547 375 l 518 688 q 507 836 510 776 q 504 914 504 896 q 477 836 499 896 q 419 689 456 776 l 292 375 m 282 1125 l 506 1319 l 621 1319 l 785 1125 l 650 1125 l 554 1233 l 425 1125 l 282 1125 z "},"":{"ha":833,"x_min":8,"x_max":785,"o":"m 8 0 l 433 1014 l 601 1014 l 703 0 l 581 0 l 557 269 l 250 269 l 140 0 l 8 0 m 292 375 l 547 375 l 518 688 q 507 836 510 776 q 504 914 504 896 q 477 836 499 896 q 419 689 456 776 l 292 375 m 632 1132 q 567 1147 590 1132 q 528 1181 543 1161 q 498 1215 513 1200 q 460 1229 483 1229 q 428 1217 442 1229 q 411 1181 414 1206 l 404 1139 l 314 1139 l 321 1181 q 371 1278 331 1243 q 467 1313 411 1313 q 532 1298 508 1313 q 571 1264 556 1283 q 601 1230 586 1244 q 639 1215 615 1215 q 688 1264 679 1215 l 694 1306 l 785 1306 l 778 1264 q 728 1167 768 1201 q 632 1132 689 1132 z "},"":{"ha":833,"x_min":8,"x_max":799,"o":"m 8 0 l 433 1014 l 601 1014 l 703 0 l 581 0 l 557 269 l 250 269 l 140 0 l 8 0 m 292 375 l 547 375 l 518 688 q 507 836 510 776 q 504 914 504 896 q 477 836 499 896 q 419 689 456 776 l 292 375 m 689 1135 q 628 1158 649 1135 q 614 1222 608 1182 q 649 1288 621 1264 q 718 1313 678 1313 q 778 1288 758 1313 q 792 1222 799 1264 q 758 1158 786 1182 q 689 1135 729 1135 m 381 1135 q 320 1158 340 1135 q 306 1222 300 1182 q 341 1288 313 1264 q 410 1313 369 1313 q 470 1288 450 1313 q 483 1222 490 1264 q 449 1158 478 1182 q 381 1135 421 1135 z "},"":{"ha":833,"x_min":8,"x_max":726,"o":"m 8 0 l 433 1014 l 601 1014 l 703 0 l 581 0 l 557 269 l 250 269 l 140 0 l 8 0 m 292 375 l 547 375 l 518 688 q 507 836 510 776 q 504 914 504 896 q 477 836 499 896 q 419 689 456 776 l 292 375 m 524 1064 q 410 1108 449 1064 q 382 1222 372 1151 q 446 1337 393 1293 q 574 1381 499 1381 q 688 1337 649 1381 q 715 1222 726 1293 q 652 1108 706 1151 q 524 1064 599 1064 m 536 1138 q 600 1160 574 1138 q 632 1222 626 1183 q 619 1285 639 1261 q 563 1308 600 1308 q 499 1285 525 1308 q 465 1222 472 1261 q 479 1160 460 1183 q 536 1138 499 1138 z "},"":{"ha":833,"x_min":-19,"x_max":892,"o":"m -19 0 l 343 1014 l 892 1014 l 874 900 l 621 900 l 571 583 l 789 583 l 771 469 l 553 469 l 496 114 l 749 114 l 731 0 l 358 0 l 403 282 l 207 282 l 107 0 l -19 0 m 243 386 l 419 386 l 501 900 l 424 900 l 243 386 z "},"":{"ha":833,"x_min":88,"x_max":796,"o":"m 186 -282 l 199 -206 l 296 -206 q 347 -190 326 -206 q 371 -156 368 -174 q 340 -114 375 -132 q 235 -96 304 -96 l 282 -7 q 134 88 181 14 q 106 278 88 161 l 178 736 q 292 950 200 872 q 524 1028 385 1028 q 728 949 660 1028 q 775 736 796 871 l 650 736 q 626 869 664 822 q 506 915 588 915 q 370 869 424 915 q 303 738 317 824 l 231 278 q 256 145 217 192 q 376 99 294 99 q 511 145 458 99 q 578 278 564 192 l 703 278 q 588 65 681 143 q 358 -14 494 -14 l 358 -14 l 340 -49 q 413 -67 376 -53 q 472 -106 450 -81 q 489 -167 494 -131 q 431 -248 482 -214 q 304 -282 379 -282 l 186 -282 z "},"":{"ha":833,"x_min":78,"x_max":822,"o":"m 78 0 l 239 1014 l 822 1014 l 804 900 l 344 900 l 294 586 l 706 586 l 688 474 l 276 474 l 219 114 l 679 114 l 661 0 l 78 0 m 519 1125 l 390 1319 l 521 1319 l 643 1125 l 519 1125 z "},"":{"ha":833,"x_min":78,"x_max":822,"o":"m 78 0 l 239 1014 l 822 1014 l 804 900 l 344 900 l 294 586 l 706 586 l 688 474 l 276 474 l 219 114 l 679 114 l 661 0 l 78 0 m 476 1125 l 654 1319 l 796 1319 l 611 1125 l 476 1125 z "},"":{"ha":833,"x_min":78,"x_max":822,"o":"m 78 0 l 239 1014 l 822 1014 l 804 900 l 344 900 l 294 586 l 706 586 l 688 474 l 276 474 l 219 114 l 679 114 l 661 0 l 78 0 m 310 1125 l 533 1319 l 649 1319 l 813 1125 l 678 1125 l 582 1233 l 453 1125 l 310 1125 z "},"":{"ha":833,"x_min":78,"x_max":826,"o":"m 78 0 l 239 1014 l 822 1014 l 804 900 l 344 900 l 294 586 l 706 586 l 688 474 l 276 474 l 219 114 l 679 114 l 661 0 l 78 0 m 717 1135 q 656 1158 676 1135 q 642 1222 636 1182 q 677 1288 649 1264 q 746 1313 706 1313 q 806 1288 786 1313 q 819 1222 826 1264 q 785 1158 814 1182 q 717 1135 757 1135 m 408 1135 q 348 1158 368 1135 q 333 1222 328 1182 q 369 1288 340 1264 q 438 1313 397 1313 q 498 1288 478 1313 q 511 1222 518 1264 q 477 1158 506 1182 q 408 1135 449 1135 z "},"":{"ha":833,"x_min":85,"x_max":788,"o":"m 85 0 l 103 114 l 310 114 l 435 900 l 228 900 l 246 1014 l 788 1014 l 769 900 l 563 900 l 438 114 l 644 114 l 626 0 l 85 0 m 492 1125 l 363 1319 l 493 1319 l 615 1125 l 492 1125 z "},"":{"ha":833,"x_min":85,"x_max":788,"o":"m 85 0 l 103 114 l 310 114 l 435 900 l 228 900 l 246 1014 l 788 1014 l 769 900 l 563 900 l 438 114 l 644 114 l 626 0 l 85 0 m 449 1125 l 626 1319 l 768 1319 l 583 1125 l 449 1125 z "},"":{"ha":833,"x_min":85,"x_max":788,"o":"m 85 0 l 103 114 l 310 114 l 435 900 l 228 900 l 246 1014 l 788 1014 l 769 900 l 563 900 l 438 114 l 644 114 l 626 0 l 85 0 m 282 1125 l 506 1319 l 621 1319 l 785 1125 l 650 1125 l 554 1233 l 425 1125 l 282 1125 z "},"":{"ha":833,"x_min":85,"x_max":799,"o":"m 85 0 l 103 114 l 310 114 l 435 900 l 228 900 l 246 1014 l 788 1014 l 769 900 l 563 900 l 438 114 l 644 114 l 626 0 l 85 0 m 689 1135 q 628 1158 649 1135 q 614 1222 608 1182 q 649 1288 621 1264 q 718 1313 678 1313 q 778 1288 758 1313 q 792 1222 799 1264 q 758 1158 786 1182 q 689 1135 729 1135 m 381 1135 q 320 1158 340 1135 q 306 1222 300 1182 q 341 1288 313 1264 q 410 1313 369 1313 q 470 1288 450 1313 q 483 1222 490 1264 q 449 1158 478 1182 q 381 1135 421 1135 z "},"":{"ha":833,"x_min":14,"x_max":785,"o":"m 67 0 l 140 465 l 14 465 l 14 569 l 157 569 l 228 1014 l 490 1014 q 711 931 638 1014 q 763 710 785 849 l 699 306 q 634 144 685 213 q 506 38 583 75 q 329 0 428 0 l 67 0 m 210 111 l 347 111 q 499 163 439 111 q 574 306 560 214 l 638 710 q 608 851 653 800 q 472 903 564 903 l 335 903 l 282 569 l 403 569 l 403 465 l 265 465 l 210 111 z "},"":{"ha":833,"x_min":64,"x_max":808,"o":"m 64 0 l 225 1014 l 390 1014 l 564 146 q 571 231 567 181 q 582 338 575 282 q 597 444 589 394 l 688 1014 l 808 1014 l 647 0 l 482 0 l 310 868 q 302 784 307 835 q 290 677 297 733 q 275 569 283 621 l 185 0 l 64 0 m 632 1132 q 567 1147 590 1132 q 528 1181 543 1161 q 498 1215 513 1200 q 460 1229 483 1229 q 428 1217 442 1229 q 411 1181 414 1206 l 404 1139 l 314 1139 l 321 1181 q 371 1278 331 1243 q 467 1313 411 1313 q 532 1298 508 1313 q 571 1264 556 1283 q 601 1230 586 1244 q 639 1215 615 1215 q 688 1264 679 1215 l 694 1306 l 785 1306 l 778 1264 q 728 1167 768 1201 q 632 1132 689 1132 z "},"":{"ha":833,"x_min":83,"x_max":788,"o":"m 353 -14 q 150 64 217 -14 q 106 278 83 142 l 178 736 q 291 950 200 872 q 518 1028 382 1028 q 721 951 654 1028 q 767 738 788 874 l 694 278 q 581 64 672 142 q 353 -14 489 -14 m 371 99 q 504 145 453 99 q 569 278 556 192 l 642 736 q 619 869 656 822 q 500 915 582 915 q 368 869 419 915 q 303 736 317 822 l 231 278 q 253 145 217 192 q 371 99 290 99 m 492 1125 l 363 1319 l 493 1319 l 615 1125 l 492 1125 z "},"":{"ha":833,"x_min":83,"x_max":788,"o":"m 353 -14 q 150 64 217 -14 q 106 278 83 142 l 178 736 q 291 950 200 872 q 518 1028 382 1028 q 721 951 654 1028 q 767 738 788 874 l 694 278 q 581 64 672 142 q 353 -14 489 -14 m 371 99 q 504 145 453 99 q 569 278 556 192 l 642 736 q 619 869 656 822 q 500 915 582 915 q 368 869 419 915 q 303 736 317 822 l 231 278 q 253 145 217 192 q 371 99 290 99 m 449 1125 l 626 1319 l 768 1319 l 583 1125 l 449 1125 z "},"":{"ha":833,"x_min":83,"x_max":788,"o":"m 353 -14 q 150 64 217 -14 q 106 278 83 142 l 178 736 q 291 950 200 872 q 518 1028 382 1028 q 721 951 654 1028 q 767 738 788 874 l 694 278 q 581 64 672 142 q 353 -14 489 -14 m 371 99 q 504 145 453 99 q 569 278 556 192 l 642 736 q 619 869 656 822 q 500 915 582 915 q 368 869 419 915 q 303 736 317 822 l 231 278 q 253 145 217 192 q 371 99 290 99 m 282 1125 l 506 1319 l 621 1319 l 785 1125 l 650 1125 l 554 1233 l 425 1125 l 282 1125 z "},"":{"ha":833,"x_min":83,"x_max":788,"o":"m 353 -14 q 150 64 217 -14 q 106 278 83 142 l 178 736 q 291 950 200 872 q 518 1028 382 1028 q 721 951 654 1028 q 767 738 788 874 l 694 278 q 581 64 672 142 q 353 -14 489 -14 m 371 99 q 504 145 453 99 q 569 278 556 192 l 642 736 q 619 869 656 822 q 500 915 582 915 q 368 869 419 915 q 303 736 317 822 l 231 278 q 253 145 217 192 q 371 99 290 99 m 632 1132 q 567 1147 590 1132 q 528 1181 543 1161 q 498 1215 513 1200 q 460 1229 483 1229 q 428 1217 442 1229 q 411 1181 414 1206 l 404 1139 l 314 1139 l 321 1181 q 371 1278 331 1243 q 467 1313 411 1313 q 532 1298 508 1313 q 571 1264 556 1283 q 601 1230 586 1244 q 639 1215 615 1215 q 688 1264 679 1215 l 694 1306 l 785 1306 l 778 1264 q 728 1167 768 1201 q 632 1132 689 1132 z "},"":{"ha":833,"x_min":83,"x_max":799,"o":"m 353 -14 q 150 64 217 -14 q 106 278 83 142 l 178 736 q 291 950 200 872 q 518 1028 382 1028 q 721 951 654 1028 q 767 738 788 874 l 694 278 q 581 64 672 142 q 353 -14 489 -14 m 371 99 q 504 145 453 99 q 569 278 556 192 l 642 736 q 619 869 656 822 q 500 915 582 915 q 368 869 419 915 q 303 736 317 822 l 231 278 q 253 145 217 192 q 371 99 290 99 m 689 1135 q 628 1158 649 1135 q 614 1222 608 1182 q 649 1288 621 1264 q 718 1313 678 1313 q 778 1288 758 1313 q 792 1222 799 1264 q 758 1158 786 1182 q 689 1135 729 1135 m 381 1135 q 320 1158 340 1135 q 306 1222 300 1182 q 341 1288 313 1264 q 410 1313 369 1313 q 470 1288 450 1313 q 483 1222 490 1264 q 449 1158 478 1182 q 381 1135 421 1135 z "},"":{"ha":833,"x_min":125,"x_max":731,"o":"m 188 188 l 125 263 l 353 460 l 190 656 l 269 724 l 433 529 l 668 732 l 731 657 l 496 454 l 661 260 l 581 190 l 417 386 l 188 188 z "},"":{"ha":833,"x_min":-21,"x_max":889,"o":"m -21 -56 l 113 131 q 106 278 92 194 l 178 736 q 291 950 200 872 q 518 1028 382 1028 q 711 961 644 1028 l 769 1042 l 889 1042 l 763 867 q 767 738 778 810 l 694 278 q 581 64 672 142 q 353 -14 489 -14 q 169 43 236 -14 l 99 -56 l -21 -56 m 303 736 l 233 297 l 631 849 q 500 915 599 915 q 368 869 419 915 q 303 736 317 822 m 371 99 q 504 145 453 99 q 569 278 556 192 l 635 688 l 249 153 q 371 99 283 99 z "},"":{"ha":833,"x_min":86,"x_max":808,"o":"m 353 -14 q 149 65 211 -14 q 108 278 86 143 l 225 1014 l 350 1014 l 233 278 q 253 146 219 194 q 371 97 286 97 q 503 146 454 97 q 567 278 553 194 l 683 1014 l 808 1014 l 692 278 q 583 64 669 142 q 353 -14 496 -14 m 492 1125 l 363 1319 l 493 1319 l 615 1125 l 492 1125 z "},"":{"ha":833,"x_min":86,"x_max":808,"o":"m 353 -14 q 149 65 211 -14 q 108 278 86 143 l 225 1014 l 350 1014 l 233 278 q 253 146 219 194 q 371 97 286 97 q 503 146 454 97 q 567 278 553 194 l 683 1014 l 808 1014 l 692 278 q 583 64 669 142 q 353 -14 496 -14 m 449 1125 l 626 1319 l 768 1319 l 583 1125 l 449 1125 z "},"":{"ha":833,"x_min":86,"x_max":808,"o":"m 353 -14 q 149 65 211 -14 q 108 278 86 143 l 225 1014 l 350 1014 l 233 278 q 253 146 219 194 q 371 97 286 97 q 503 146 454 97 q 567 278 553 194 l 683 1014 l 808 1014 l 692 278 q 583 64 669 142 q 353 -14 496 -14 m 282 1125 l 506 1319 l 621 1319 l 785 1125 l 650 1125 l 554 1233 l 425 1125 l 282 1125 z "},"":{"ha":833,"x_min":86,"x_max":808,"o":"m 353 -14 q 149 65 211 -14 q 108 278 86 143 l 225 1014 l 350 1014 l 233 278 q 253 146 219 194 q 371 97 286 97 q 503 146 454 97 q 567 278 553 194 l 683 1014 l 808 1014 l 692 278 q 583 64 669 142 q 353 -14 496 -14 m 689 1135 q 628 1158 649 1135 q 614 1222 608 1182 q 649 1288 621 1264 q 718 1313 678 1313 q 778 1288 758 1313 q 792 1222 799 1264 q 758 1158 786 1182 q 689 1135 729 1135 m 381 1135 q 320 1158 340 1135 q 306 1222 300 1182 q 341 1288 313 1264 q 410 1313 369 1313 q 470 1288 450 1313 q 483 1222 490 1264 q 449 1158 478 1182 q 381 1135 421 1135 z "},"":{"ha":833,"x_min":149,"x_max":885,"o":"m 293 0 l 353 379 l 149 1014 l 275 1014 l 410 597 q 427 538 421 563 q 435 503 433 514 q 453 538 440 514 q 489 597 467 563 l 753 1014 l 885 1014 l 478 379 l 418 0 l 293 0 m 449 1125 l 626 1319 l 768 1319 l 583 1125 l 449 1125 z "},"":{"ha":833,"x_min":64,"x_max":806,"o":"m 64 0 l 225 1014 l 350 1014 l 317 806 l 529 806 q 735 729 665 806 q 786 528 806 653 q 726 381 774 443 q 606 284 679 318 q 442 250 533 250 l 229 250 l 189 0 l 64 0 m 246 361 l 458 361 q 592 406 539 361 q 657 528 644 451 q 630 650 669 606 q 511 694 590 694 l 299 694 l 246 361 z "},"":{"ha":833,"x_min":-183,"x_max":797,"o":"m -183 -250 l -165 -136 l -68 -136 q 63 -28 46 -136 l 185 742 q 245 892 199 828 q 363 992 292 957 q 522 1028 433 1028 q 726 961 656 1028 q 778 769 797 894 q 712 626 764 686 q 582 543 660 565 q 699 454 661 521 q 721 289 736 388 q 660 139 707 204 q 540 37 613 74 q 376 0 467 0 l 285 0 l 303 114 l 381 114 q 520 163 464 114 q 589 293 576 213 q 562 419 603 374 q 436 465 521 465 l 375 465 l 392 574 l 450 574 q 580 622 528 574 q 643 744 632 671 q 618 869 656 825 q 504 914 581 914 q 375 868 428 914 q 310 742 322 822 l 188 -28 q 98 -190 171 -131 q -87 -250 25 -250 l -183 -250 z "},"":{"ha":833,"x_min":85,"x_max":767,"o":"m 310 -14 q 140 63 196 -14 q 106 269 85 139 l 140 493 q 241 701 161 625 q 436 778 321 778 q 571 735 522 778 q 617 618 619 692 l 621 618 l 642 764 l 767 764 l 646 0 l 521 0 l 544 146 l 542 146 q 458 28 521 71 q 310 -14 396 -14 m 369 94 q 499 143 447 94 q 565 278 551 192 l 597 486 q 574 621 611 572 q 460 669 538 669 q 329 622 381 669 q 264 486 278 575 l 232 278 q 254 142 218 189 q 369 94 290 94 m 463 896 l 333 1090 l 464 1090 l 586 896 l 463 896 z "},"":{"ha":833,"x_min":85,"x_max":767,"o":"m 310 -14 q 140 63 196 -14 q 106 269 85 139 l 140 493 q 241 701 161 625 q 436 778 321 778 q 571 735 522 778 q 617 618 619 692 l 621 618 l 642 764 l 767 764 l 646 0 l 521 0 l 544 146 l 542 146 q 458 28 521 71 q 310 -14 396 -14 m 369 94 q 499 143 447 94 q 565 278 551 192 l 597 486 q 574 621 611 572 q 460 669 538 669 q 329 622 381 669 q 264 486 278 575 l 232 278 q 254 142 218 189 q 369 94 290 94 m 419 896 l 597 1090 l 739 1090 l 554 896 l 419 896 z "},"":{"ha":833,"x_min":85,"x_max":767,"o":"m 310 -14 q 140 63 196 -14 q 106 269 85 139 l 140 493 q 241 701 161 625 q 436 778 321 778 q 571 735 522 778 q 617 618 619 692 l 621 618 l 642 764 l 767 764 l 646 0 l 521 0 l 544 146 l 542 146 q 458 28 521 71 q 310 -14 396 -14 m 369 94 q 499 143 447 94 q 565 278 551 192 l 597 486 q 574 621 611 572 q 460 669 538 669 q 329 622 381 669 q 264 486 278 575 l 232 278 q 254 142 218 189 q 369 94 290 94 m 253 896 l 476 1090 l 592 1090 l 756 896 l 621 896 l 525 1004 l 396 896 l 253 896 z "},"":{"ha":833,"x_min":85,"x_max":767,"o":"m 310 -14 q 140 63 196 -14 q 106 269 85 139 l 140 493 q 241 701 161 625 q 436 778 321 778 q 571 735 522 778 q 617 618 619 692 l 621 618 l 642 764 l 767 764 l 646 0 l 521 0 l 544 146 l 542 146 q 458 28 521 71 q 310 -14 396 -14 m 369 94 q 499 143 447 94 q 565 278 551 192 l 597 486 q 574 621 611 572 q 460 669 538 669 q 329 622 381 669 q 264 486 278 575 l 232 278 q 254 142 218 189 q 369 94 290 94 m 603 903 q 538 917 561 903 q 499 951 514 932 q 469 985 483 971 q 431 1000 454 1000 q 381 951 389 1000 l 375 910 l 285 910 l 290 951 q 342 1049 301 1014 q 438 1083 382 1083 q 503 1069 479 1083 q 541 1035 526 1054 q 570 1001 556 1015 q 608 986 585 986 q 658 1035 650 986 l 665 1076 l 756 1076 l 749 1035 q 699 938 739 972 q 603 903 660 903 z "},"":{"ha":833,"x_min":85,"x_max":769,"o":"m 310 -14 q 140 63 196 -14 q 106 269 85 139 l 140 493 q 241 701 161 625 q 436 778 321 778 q 571 735 522 778 q 617 618 619 692 l 621 618 l 642 764 l 767 764 l 646 0 l 521 0 l 544 146 l 542 146 q 458 28 521 71 q 310 -14 396 -14 m 369 94 q 499 143 447 94 q 565 278 551 192 l 597 486 q 574 621 611 572 q 460 669 538 669 q 329 622 381 669 q 264 486 278 575 l 232 278 q 254 142 218 189 q 369 94 290 94 m 660 901 q 599 925 619 901 q 585 989 579 949 q 619 1055 592 1031 q 688 1079 647 1079 q 749 1055 728 1079 q 763 989 769 1031 q 728 925 757 949 q 660 901 700 901 m 351 901 q 291 925 311 901 q 276 989 271 949 q 311 1055 283 1031 q 379 1079 339 1079 q 440 1055 419 1079 q 454 989 461 1031 q 420 925 449 949 q 351 901 392 901 z "},"":{"ha":833,"x_min":85,"x_max":767,"o":"m 310 -14 q 140 63 196 -14 q 106 269 85 139 l 140 493 q 241 701 161 625 q 436 778 321 778 q 571 735 522 778 q 617 618 619 692 l 621 618 l 642 764 l 767 764 l 646 0 l 521 0 l 544 146 l 542 146 q 458 28 521 71 q 310 -14 396 -14 m 369 94 q 499 143 447 94 q 565 278 551 192 l 597 486 q 574 621 611 572 q 460 669 538 669 q 329 622 381 669 q 264 486 278 575 l 232 278 q 254 142 218 189 q 369 94 290 94 m 496 844 q 383 888 421 844 q 354 1003 344 932 q 418 1117 365 1074 q 546 1161 471 1161 q 660 1117 621 1161 q 688 1003 699 1074 q 624 888 678 932 q 496 844 571 844 m 508 918 q 572 941 546 918 q 604 1003 599 964 q 592 1065 611 1042 q 535 1089 572 1089 q 471 1065 497 1089 q 438 1003 444 1042 q 451 941 432 964 q 508 918 471 918 z "},"":{"ha":833,"x_min":3,"x_max":828,"o":"m 172 -14 q 44 39 86 -14 q 17 181 3 92 l 29 264 q 108 401 43 350 q 271 451 174 451 l 374 451 l 390 554 q 382 643 400 615 q 315 671 364 671 q 249 647 276 671 q 215 583 222 624 l 97 583 q 170 724 111 671 q 313 778 229 778 q 399 760 367 778 q 447 716 432 742 q 463 667 463 690 l 468 667 q 499 716 476 690 q 558 760 521 742 q 646 778 594 778 q 784 718 740 778 q 811 556 828 658 l 779 354 l 471 354 l 449 208 q 461 125 440 157 q 524 93 482 93 q 598 117 568 93 q 635 181 628 140 l 753 181 q 674 40 739 93 q 519 -14 610 -14 q 437 4 468 -14 q 392 48 406 22 q 378 97 378 74 l 372 97 q 340 48 365 74 q 274 4 315 22 q 172 -14 232 -14 m 486 451 l 676 451 l 693 556 q 681 640 701 608 q 614 671 660 671 q 541 640 571 671 q 503 556 511 608 l 486 451 m 218 93 q 295 125 263 93 q 336 208 328 157 l 358 354 l 258 354 q 188 330 215 354 q 154 264 161 306 l 142 181 q 156 117 135 140 q 218 93 176 93 z "},"":{"ha":833,"x_min":88,"x_max":756,"o":"m 185 -282 l 197 -206 l 294 -206 q 346 -190 325 -206 q 369 -156 367 -174 q 338 -114 374 -132 q 233 -96 303 -96 l 281 -7 q 134 88 181 14 q 106 278 88 163 l 138 486 q 253 700 160 622 q 485 778 346 778 q 686 707 617 778 q 740 514 756 636 l 615 514 q 583 627 622 588 q 467 667 544 667 q 331 620 385 667 q 264 488 278 574 l 231 278 q 256 144 217 192 q 376 97 294 97 q 506 138 454 97 q 574 250 557 178 l 699 250 q 583 57 675 128 q 358 -14 490 -14 l 357 -14 l 339 -49 q 412 -67 375 -53 q 471 -106 449 -81 q 488 -167 493 -131 q 429 -248 481 -214 q 303 -282 378 -282 l 185 -282 z "},"":{"ha":833,"x_min":85,"x_max":749,"o":"m 353 -14 q 151 66 218 -14 q 106 278 85 146 l 138 486 q 199 640 153 575 q 317 742 246 706 q 479 778 389 778 q 682 698 615 778 q 726 486 749 618 l 706 351 l 239 351 l 228 278 q 249 140 214 188 q 369 92 285 92 q 553 194 515 92 l 678 194 q 563 42 651 99 q 353 -14 474 -14 m 254 446 l 599 446 l 604 486 q 584 625 619 576 q 463 674 549 674 q 326 625 378 674 q 260 486 275 576 l 254 446 m 456 896 l 326 1090 l 457 1090 l 579 896 l 456 896 z "},"":{"ha":833,"x_min":85,"x_max":749,"o":"m 353 -14 q 151 66 218 -14 q 106 278 85 146 l 138 486 q 199 640 153 575 q 317 742 246 706 q 479 778 389 778 q 682 698 615 778 q 726 486 749 618 l 706 351 l 239 351 l 228 278 q 249 140 214 188 q 369 92 285 92 q 553 194 515 92 l 678 194 q 563 42 651 99 q 353 -14 474 -14 m 254 446 l 599 446 l 604 486 q 584 625 619 576 q 463 674 549 674 q 326 625 378 674 q 260 486 275 576 l 254 446 m 413 896 l 590 1090 l 732 1090 l 547 896 l 413 896 z "},"":{"ha":833,"x_min":85,"x_max":749,"o":"m 353 -14 q 151 66 218 -14 q 106 278 85 146 l 138 486 q 199 640 153 575 q 317 742 246 706 q 479 778 389 778 q 682 698 615 778 q 726 486 749 618 l 706 351 l 239 351 l 228 278 q 249 140 214 188 q 369 92 285 92 q 553 194 515 92 l 678 194 q 563 42 651 99 q 353 -14 474 -14 m 254 446 l 599 446 l 604 486 q 584 625 619 576 q 463 674 549 674 q 326 625 378 674 q 260 486 275 576 l 254 446 m 246 896 l 469 1090 l 585 1090 l 749 896 l 614 896 l 518 1004 l 389 896 l 246 896 z "},"":{"ha":833,"x_min":85,"x_max":763,"o":"m 353 -14 q 151 66 218 -14 q 106 278 85 146 l 138 486 q 199 640 153 575 q 317 742 246 706 q 479 778 389 778 q 682 698 615 778 q 726 486 749 618 l 706 351 l 239 351 l 228 278 q 249 140 214 188 q 369 92 285 92 q 553 194 515 92 l 678 194 q 563 42 651 99 q 353 -14 474 -14 m 254 446 l 599 446 l 604 486 q 584 625 619 576 q 463 674 549 674 q 326 625 378 674 q 260 486 275 576 l 254 446 m 653 901 q 592 925 613 901 q 578 989 572 949 q 613 1055 585 1031 q 681 1079 640 1079 q 742 1055 721 1079 q 756 989 763 1031 q 722 925 750 949 q 653 901 693 901 m 344 901 q 284 925 304 901 q 269 989 264 949 q 304 1055 276 1031 q 372 1079 332 1079 q 433 1055 413 1079 q 447 989 454 1031 q 413 925 442 949 q 344 901 385 901 z "},"":{"ha":833,"x_min":50,"x_max":721,"o":"m 50 0 l 68 114 l 339 114 l 424 650 l 188 650 l 206 764 l 567 764 l 464 114 l 721 114 l 703 0 l 50 0 m 476 896 l 347 1090 l 478 1090 l 600 896 l 476 896 z "},"":{"ha":833,"x_min":50,"x_max":753,"o":"m 50 0 l 68 114 l 339 114 l 424 650 l 188 650 l 206 764 l 567 764 l 464 114 l 721 114 l 703 0 l 50 0 m 433 896 l 611 1090 l 753 1090 l 568 896 l 433 896 z "},"":{"ha":833,"x_min":50,"x_max":769,"o":"m 50 0 l 68 114 l 339 114 l 424 650 l 188 650 l 206 764 l 567 764 l 464 114 l 721 114 l 703 0 l 50 0 m 267 896 l 490 1090 l 606 1090 l 769 896 l 635 896 l 539 1004 l 410 896 l 267 896 z "},"":{"ha":833,"x_min":50,"x_max":783,"o":"m 50 0 l 68 114 l 339 114 l 424 650 l 188 650 l 206 764 l 567 764 l 464 114 l 721 114 l 703 0 l 50 0 m 674 901 q 613 925 633 901 q 599 989 593 949 q 633 1055 606 1031 q 701 1079 661 1079 q 763 1055 742 1079 q 776 989 783 1031 q 742 925 771 949 q 674 901 714 901 m 365 901 q 305 925 325 901 q 290 989 285 949 q 325 1055 297 1031 q 393 1079 353 1079 q 454 1055 433 1079 q 468 989 475 1031 q 434 925 463 949 q 365 901 406 901 z "},"":{"ha":833,"x_min":69,"x_max":740,"o":"m 351 -14 q 192 25 257 -14 q 98 135 126 64 q 83 299 69 206 q 146 460 99 392 q 265 567 193 529 q 425 606 338 606 q 523 579 486 606 q 571 528 560 553 l 590 528 q 569 578 586 542 q 524 667 553 615 l 454 790 l 210 689 l 228 801 l 406 879 l 329 1014 l 461 1014 l 508 928 l 740 1021 l 724 907 l 557 839 l 647 685 q 719 499 699 599 q 724 310 739 399 q 657 140 708 213 q 527 26 606 67 q 351 -14 449 -14 m 369 97 q 521 153 458 97 q 597 299 583 208 q 567 444 613 389 q 433 500 522 500 q 285 444 347 500 q 208 299 224 389 q 239 153 194 208 q 369 97 283 97 z "},"":{"ha":833,"x_min":67,"x_max":750,"o":"m 67 0 l 188 764 l 313 764 l 289 618 l 292 618 q 372 736 313 694 q 519 778 432 778 q 692 707 635 778 q 729 514 749 636 l 647 0 l 522 0 l 601 500 q 578 627 614 582 q 467 672 542 672 q 336 624 389 672 q 268 486 283 575 l 192 0 l 67 0 m 597 903 q 532 917 556 903 q 493 951 508 932 q 463 985 478 971 q 425 1000 449 1000 q 375 951 383 1000 l 369 910 l 279 910 l 285 951 q 336 1049 296 1014 q 432 1083 376 1083 q 497 1069 474 1083 q 535 1035 521 1054 q 565 1001 550 1015 q 603 986 579 986 q 653 1035 644 986 l 660 1076 l 750 1076 l 743 1035 q 694 938 733 972 q 597 903 654 903 z "},"":{"ha":833,"x_min":83,"x_max":749,"o":"m 353 -14 q 150 64 217 -14 q 106 278 83 142 l 138 486 q 251 700 160 622 q 479 778 343 778 q 682 701 615 778 q 728 488 749 624 l 694 278 q 581 64 672 142 q 353 -14 489 -14 m 371 97 q 504 143 453 97 q 569 278 556 189 l 601 486 q 580 621 617 575 q 461 667 543 667 q 329 621 381 667 q 263 486 278 575 l 231 278 q 253 143 217 189 q 371 97 290 97 m 456 896 l 326 1090 l 457 1090 l 579 896 l 456 896 z "},"":{"ha":833,"x_min":83,"x_max":749,"o":"m 353 -14 q 150 64 217 -14 q 106 278 83 142 l 138 486 q 251 700 160 622 q 479 778 343 778 q 682 701 615 778 q 728 488 749 624 l 694 278 q 581 64 672 142 q 353 -14 489 -14 m 371 97 q 504 143 453 97 q 569 278 556 189 l 601 486 q 580 621 617 575 q 461 667 543 667 q 329 621 381 667 q 263 486 278 575 l 231 278 q 253 143 217 189 q 371 97 290 97 m 413 896 l 590 1090 l 732 1090 l 547 896 l 413 896 z "},"":{"ha":833,"x_min":83,"x_max":749,"o":"m 353 -14 q 150 64 217 -14 q 106 278 83 142 l 138 486 q 251 700 160 622 q 479 778 343 778 q 682 701 615 778 q 728 488 749 624 l 694 278 q 581 64 672 142 q 353 -14 489 -14 m 371 97 q 504 143 453 97 q 569 278 556 189 l 601 486 q 580 621 617 575 q 461 667 543 667 q 329 621 381 667 q 263 486 278 575 l 231 278 q 253 143 217 189 q 371 97 290 97 m 246 896 l 469 1090 l 585 1090 l 749 896 l 614 896 l 518 1004 l 389 896 l 246 896 z "},"":{"ha":833,"x_min":83,"x_max":749,"o":"m 353 -14 q 150 64 217 -14 q 106 278 83 142 l 138 486 q 251 700 160 622 q 479 778 343 778 q 682 701 615 778 q 728 488 749 624 l 694 278 q 581 64 672 142 q 353 -14 489 -14 m 371 97 q 504 143 453 97 q 569 278 556 189 l 601 486 q 580 621 617 575 q 461 667 543 667 q 329 621 381 667 q 263 486 278 575 l 231 278 q 253 143 217 189 q 371 97 290 97 m 596 903 q 531 917 554 903 q 492 951 507 932 q 462 985 476 971 q 424 1000 447 1000 q 374 951 382 1000 l 368 910 l 278 910 l 283 951 q 335 1049 294 1014 q 431 1083 375 1083 q 496 1069 472 1083 q 534 1035 519 1054 q 563 1001 549 1015 q 601 986 578 986 q 651 1035 643 986 l 658 1076 l 749 1076 l 742 1035 q 692 938 732 972 q 596 903 653 903 z "},"":{"ha":833,"x_min":83,"x_max":763,"o":"m 353 -14 q 150 64 217 -14 q 106 278 83 142 l 138 486 q 251 700 160 622 q 479 778 343 778 q 682 701 615 778 q 728 488 749 624 l 694 278 q 581 64 672 142 q 353 -14 489 -14 m 371 97 q 504 143 453 97 q 569 278 556 189 l 601 486 q 580 621 617 575 q 461 667 543 667 q 329 621 381 667 q 263 486 278 575 l 231 278 q 253 143 217 189 q 371 97 290 97 m 653 901 q 592 925 613 901 q 578 989 572 949 q 613 1055 585 1031 q 681 1079 640 1079 q 742 1055 721 1079 q 756 989 763 1031 q 722 925 750 949 q 653 901 693 901 m 344 901 q 284 925 304 901 q 269 989 264 949 q 304 1055 276 1031 q 372 1079 332 1079 q 433 1055 413 1079 q 447 989 454 1031 q 413 925 442 949 q 344 901 385 901 z "},"":{"ha":833,"x_min":143,"x_max":715,"o":"m 457 639 q 378 667 406 639 q 358 743 351 696 q 402 819 365 790 q 490 847 439 847 q 569 819 543 847 q 589 743 596 790 q 546 667 582 696 q 457 639 510 639 m 143 410 l 160 514 l 715 514 l 699 410 l 143 410 m 368 76 q 290 105 317 76 q 269 181 263 133 q 313 256 276 228 q 401 285 350 285 q 481 256 454 285 q 500 181 507 228 q 457 105 493 133 q 368 76 421 76 z "},"":{"ha":833,"x_min":-19,"x_max":853,"o":"m -19 -42 l 118 118 q 106 278 92 185 l 138 486 q 251 700 158 622 q 479 778 343 778 q 649 732 583 778 l 724 819 l 853 819 l 711 656 q 728 488 743 586 l 694 278 q 581 64 672 142 q 353 -14 489 -14 q 178 38 243 -14 l 108 -42 l -19 -42 m 224 278 q 221 236 219 254 l 565 636 q 461 667 526 667 q 324 619 378 667 q 256 486 269 572 l 224 278 m 371 97 q 508 145 454 97 q 576 278 563 193 l 608 486 q 611 540 613 515 l 260 133 q 371 97 299 97 z "},"":{"ha":833,"x_min":88,"x_max":768,"o":"m 351 -14 q 153 65 219 -14 q 108 278 88 143 l 185 764 l 310 764 l 233 278 q 256 144 219 192 q 369 96 293 96 q 500 144 447 96 q 567 278 553 192 l 643 764 l 768 764 l 692 278 q 631 123 678 189 q 512 22 583 57 q 351 -14 440 -14 m 456 896 l 326 1090 l 457 1090 l 579 896 l 456 896 z "},"":{"ha":833,"x_min":88,"x_max":768,"o":"m 351 -14 q 153 65 219 -14 q 108 278 88 143 l 185 764 l 310 764 l 233 278 q 256 144 219 192 q 369 96 293 96 q 500 144 447 96 q 567 278 553 192 l 643 764 l 768 764 l 692 278 q 631 123 678 189 q 512 22 583 57 q 351 -14 440 -14 m 413 896 l 590 1090 l 732 1090 l 547 896 l 413 896 z "},"":{"ha":833,"x_min":88,"x_max":768,"o":"m 351 -14 q 153 65 219 -14 q 108 278 88 143 l 185 764 l 310 764 l 233 278 q 256 144 219 192 q 369 96 293 96 q 500 144 447 96 q 567 278 553 192 l 643 764 l 768 764 l 692 278 q 631 123 678 189 q 512 22 583 57 q 351 -14 440 -14 m 246 896 l 469 1090 l 585 1090 l 749 896 l 614 896 l 518 1004 l 389 896 l 246 896 z "},"":{"ha":833,"x_min":88,"x_max":768,"o":"m 351 -14 q 153 65 219 -14 q 108 278 88 143 l 185 764 l 310 764 l 233 278 q 256 144 219 192 q 369 96 293 96 q 500 144 447 96 q 567 278 553 192 l 643 764 l 768 764 l 692 278 q 631 123 678 189 q 512 22 583 57 q 351 -14 440 -14 m 653 901 q 592 925 613 901 q 578 989 572 949 q 613 1055 585 1031 q 681 1079 640 1079 q 742 1055 721 1079 q 756 989 763 1031 q 722 925 750 949 q 653 901 693 901 m 344 901 q 284 925 304 901 q 269 989 264 949 q 304 1055 276 1031 q 372 1079 332 1079 q 433 1055 413 1079 q 447 989 454 1031 q 413 925 442 949 q 344 901 385 901 z "},"":{"ha":833,"x_min":97,"x_max":768,"o":"m 125 -250 l 143 -136 l 386 -136 q 517 -28 500 -136 l 533 76 l 557 215 l 554 215 q 474 97 533 139 q 326 56 414 56 q 155 126 213 56 q 117 319 97 197 l 188 764 l 313 764 l 244 333 q 267 207 231 253 q 379 161 304 161 q 510 210 457 161 q 578 347 564 258 l 643 764 l 768 764 l 642 -28 q 553 -190 626 -131 q 367 -250 479 -250 l 125 -250 m 413 896 l 590 1090 l 732 1090 l 547 896 l 413 896 z "},"":{"ha":833,"x_min":19,"x_max":742,"o":"m 19 -250 l 72 82 l 72 82 l 221 1014 l 346 1014 l 310 792 l 279 618 l 285 618 q 368 735 306 692 q 517 778 431 778 q 687 701 632 778 q 721 493 742 625 l 686 269 q 585 63 665 139 q 390 -14 506 -14 q 255 29 303 -14 q 210 146 207 72 l 208 146 l 185 0 l 185 0 l 144 -250 l 19 -250 m 367 94 q 497 142 446 94 q 563 278 549 189 l 594 486 q 573 622 610 575 q 457 669 536 669 q 328 621 381 669 q 261 486 276 572 l 229 278 q 253 143 215 192 q 367 94 290 94 z "},"":{"ha":833,"x_min":97,"x_max":768,"o":"m 125 -250 l 143 -136 l 386 -136 q 517 -28 500 -136 l 533 76 l 557 215 l 554 215 q 474 97 533 139 q 326 56 414 56 q 155 126 213 56 q 117 319 97 197 l 188 764 l 313 764 l 244 333 q 267 207 231 253 q 379 161 304 161 q 510 210 457 161 q 578 347 564 258 l 643 764 l 768 764 l 642 -28 q 553 -190 626 -131 q 367 -250 479 -250 l 125 -250 m 653 901 q 592 925 613 901 q 578 989 572 949 q 613 1055 585 1031 q 681 1079 640 1079 q 742 1055 721 1079 q 756 989 763 1031 q 722 925 750 949 q 653 901 693 901 m 344 901 q 284 925 304 901 q 269 989 264 949 q 304 1055 276 1031 q 372 1079 332 1079 q 433 1055 413 1079 q 447 989 454 1031 q 413 925 442 949 q 344 901 385 901 z "},"":{"ha":833,"x_min":8,"x_max":779,"o":"m 8 0 l 433 1014 l 601 1014 l 703 0 l 581 0 l 557 269 l 250 269 l 140 0 l 8 0 m 292 375 l 547 375 l 518 688 q 507 836 510 776 q 504 914 504 896 q 477 836 499 896 q 419 689 456 776 l 292 375 m 318 1167 l 335 1271 l 779 1271 l 763 1167 l 318 1167 z "},"":{"ha":833,"x_min":85,"x_max":767,"o":"m 310 -14 q 140 63 196 -14 q 106 269 85 139 l 140 493 q 241 701 161 625 q 436 778 321 778 q 571 735 522 778 q 617 618 619 692 l 621 618 l 642 764 l 767 764 l 646 0 l 521 0 l 544 146 l 542 146 q 458 28 521 71 q 310 -14 396 -14 m 369 94 q 499 143 447 94 q 565 278 551 192 l 597 486 q 574 621 611 572 q 460 669 538 669 q 329 622 381 669 q 264 486 278 575 l 232 278 q 254 142 218 189 q 369 94 290 94 m 288 931 l 304 1035 l 749 1035 l 732 931 l 288 931 z "},"":{"ha":833,"x_min":8,"x_max":786,"o":"m 8 0 l 433 1014 l 601 1014 l 703 0 l 581 0 l 557 269 l 250 269 l 140 0 l 8 0 m 292 375 l 547 375 l 518 688 q 507 836 510 776 q 504 914 504 896 q 477 836 499 896 q 419 689 456 776 l 292 375 m 532 1118 q 380 1174 432 1118 q 342 1319 328 1229 l 439 1319 q 459 1232 431 1265 q 543 1199 488 1199 q 639 1232 600 1199 q 686 1319 678 1265 l 786 1319 q 702 1174 772 1229 q 532 1118 632 1118 z "},"":{"ha":833,"x_min":85,"x_max":767,"o":"m 310 -14 q 140 63 196 -14 q 106 269 85 139 l 140 493 q 241 701 161 625 q 436 778 321 778 q 571 735 522 778 q 617 618 619 692 l 621 618 l 642 764 l 767 764 l 646 0 l 521 0 l 544 146 l 542 146 q 458 28 521 71 q 310 -14 396 -14 m 369 94 q 499 143 447 94 q 565 278 551 192 l 597 486 q 574 621 611 572 q 460 669 538 669 q 329 622 381 669 q 264 486 278 575 l 232 278 q 254 142 218 189 q 369 94 290 94 m 503 889 q 351 944 403 889 q 313 1090 299 1000 l 410 1090 q 430 1003 401 1036 q 514 969 458 969 q 610 1003 571 969 q 657 1090 649 1036 l 757 1090 q 673 944 743 1000 q 503 889 603 889 z "},"":{"ha":833,"x_min":8,"x_max":719,"o":"m 8 0 l 433 1014 l 601 1014 l 703 0 l 679 0 q 601 -69 626 -37 q 571 -129 576 -100 q 584 -179 567 -160 q 636 -199 601 -199 l 719 -199 l 707 -282 l 599 -282 q 481 -245 522 -282 q 450 -153 440 -208 q 485 -77 456 -115 q 581 4 515 -39 l 557 269 l 250 269 l 140 0 l 8 0 m 292 375 l 547 375 l 518 688 q 507 836 510 776 q 504 914 504 896 q 477 836 499 896 q 419 689 456 776 l 292 375 z "},"":{"ha":833,"x_min":85,"x_max":767,"o":"m 310 -14 q 140 63 196 -14 q 106 269 85 139 l 140 493 q 241 701 161 625 q 436 778 321 778 q 571 735 522 778 q 617 618 619 692 l 621 618 l 642 764 l 767 764 l 646 0 l 644 0 q 566 -69 592 -39 q 535 -129 540 -100 q 548 -179 531 -160 q 600 -199 565 -199 l 683 -199 l 671 -282 l 563 -282 q 445 -245 486 -282 q 414 -153 404 -208 q 448 -79 419 -117 q 538 0 476 -42 l 521 0 l 544 146 l 542 146 q 458 28 521 71 q 310 -14 396 -14 m 369 94 q 499 143 447 94 q 565 278 551 192 l 597 486 q 574 621 611 572 q 460 669 538 669 q 329 622 381 669 q 264 486 278 575 l 232 278 q 254 142 218 189 q 369 94 290 94 z "},"":{"ha":833,"x_min":83,"x_max":796,"o":"m 358 -14 q 151 64 219 -14 q 106 278 83 142 l 178 736 q 292 950 200 872 q 524 1028 385 1028 q 728 949 660 1028 q 775 736 796 871 l 650 736 q 626 869 664 822 q 506 915 588 915 q 370 869 424 915 q 303 738 317 824 l 231 278 q 256 145 217 192 q 376 99 294 99 q 511 145 458 99 q 578 278 564 192 l 703 278 q 588 65 681 143 q 358 -14 494 -14 m 456 1125 l 633 1319 l 775 1319 l 590 1125 l 456 1125 z "},"":{"ha":833,"x_min":83,"x_max":756,"o":"m 358 -14 q 151 64 219 -14 q 106 278 83 142 l 138 486 q 253 700 160 622 q 485 778 346 778 q 686 707 617 778 q 740 514 756 636 l 615 514 q 583 627 622 588 q 467 667 544 667 q 331 620 385 667 q 264 488 278 574 l 231 278 q 256 144 217 192 q 376 97 294 97 q 506 138 454 97 q 574 250 557 178 l 699 250 q 583 57 675 128 q 358 -14 490 -14 m 418 896 l 596 1090 l 738 1090 l 553 896 l 418 896 z "},"":{"ha":833,"x_min":83,"x_max":796,"o":"m 358 -14 q 151 64 219 -14 q 106 278 83 142 l 178 736 q 292 950 200 872 q 524 1028 385 1028 q 728 949 660 1028 q 775 736 796 871 l 650 736 q 626 869 664 822 q 506 915 588 915 q 370 869 424 915 q 303 738 317 824 l 231 278 q 256 145 217 192 q 376 99 294 99 q 511 145 458 99 q 578 278 564 192 l 703 278 q 588 65 681 143 q 358 -14 494 -14 m 289 1125 l 513 1319 l 628 1319 l 792 1125 l 657 1125 l 561 1233 l 432 1125 l 289 1125 z "},"":{"ha":833,"x_min":83,"x_max":756,"o":"m 358 -14 q 151 64 219 -14 q 106 278 83 142 l 138 486 q 253 700 160 622 q 485 778 346 778 q 686 707 617 778 q 740 514 756 636 l 615 514 q 583 627 622 588 q 467 667 544 667 q 331 620 385 667 q 264 488 278 574 l 231 278 q 256 144 217 192 q 376 97 294 97 q 506 138 454 97 q 574 250 557 178 l 699 250 q 583 57 675 128 q 358 -14 490 -14 m 251 896 l 475 1090 l 590 1090 l 754 896 l 619 896 l 524 1004 l 394 896 l 251 896 z "},"":{"ha":833,"x_min":83,"x_max":796,"o":"m 358 -14 q 151 64 219 -14 q 106 278 83 142 l 178 736 q 292 950 200 872 q 524 1028 385 1028 q 728 949 660 1028 q 775 736 796 871 l 650 736 q 626 869 664 822 q 506 915 588 915 q 370 869 424 915 q 303 738 317 824 l 231 278 q 256 145 217 192 q 376 99 294 99 q 511 145 458 99 q 578 278 564 192 l 703 278 q 588 65 681 143 q 358 -14 494 -14 m 542 1133 q 474 1158 496 1133 q 457 1222 451 1182 q 494 1287 464 1263 q 571 1311 525 1311 q 639 1287 617 1311 q 654 1222 661 1263 q 618 1158 649 1182 q 542 1133 588 1133 z "},"":{"ha":833,"x_min":83,"x_max":756,"o":"m 358 -14 q 151 64 219 -14 q 106 278 83 142 l 138 486 q 253 700 160 622 q 485 778 346 778 q 686 707 617 778 q 740 514 756 636 l 615 514 q 583 627 622 588 q 467 667 544 667 q 331 620 385 667 q 264 488 278 574 l 231 278 q 256 144 217 192 q 376 97 294 97 q 506 138 454 97 q 574 250 557 178 l 699 250 q 583 57 675 128 q 358 -14 490 -14 m 504 901 q 436 925 458 901 q 419 989 414 949 q 456 1055 426 1031 q 532 1079 486 1079 q 601 1055 578 1079 q 617 989 624 1031 q 581 925 611 949 q 504 901 550 901 z "},"":{"ha":833,"x_min":83,"x_max":822,"o":"m 358 -14 q 151 64 219 -14 q 106 278 83 142 l 178 736 q 292 950 200 872 q 524 1028 385 1028 q 728 949 660 1028 q 775 736 796 871 l 650 736 q 626 869 664 822 q 506 915 588 915 q 370 869 424 915 q 303 738 317 824 l 231 278 q 256 145 217 192 q 376 99 294 99 q 511 145 458 99 q 578 278 564 192 l 703 278 q 588 65 681 143 q 358 -14 494 -14 m 483 1125 l 319 1319 l 454 1319 l 551 1211 l 679 1319 l 822 1319 l 599 1125 l 483 1125 z "},"":{"ha":833,"x_min":83,"x_max":786,"o":"m 358 -14 q 151 64 219 -14 q 106 278 83 142 l 138 486 q 253 700 160 622 q 485 778 346 778 q 686 707 617 778 q 740 514 756 636 l 615 514 q 583 627 622 588 q 467 667 544 667 q 331 620 385 667 q 264 488 278 574 l 231 278 q 256 144 217 192 q 376 97 294 97 q 506 138 454 97 q 574 250 557 178 l 699 250 q 583 57 675 128 q 358 -14 490 -14 m 447 896 l 283 1090 l 418 1090 l 515 982 l 643 1090 l 786 1090 l 563 896 l 447 896 z "},"":{"ha":833,"x_min":67,"x_max":815,"o":"m 67 0 l 228 1014 l 490 1014 q 711 931 638 1014 q 763 710 785 849 l 699 306 q 634 144 685 213 q 506 38 583 75 q 329 0 428 0 l 67 0 m 210 111 l 347 111 q 499 163 439 111 q 574 306 560 214 l 638 710 q 608 851 653 800 q 472 903 564 903 l 335 903 l 210 111 m 476 1125 l 313 1319 l 447 1319 l 544 1211 l 672 1319 l 815 1319 l 592 1125 l 476 1125 z "},"":{"ha":833,"x_min":49,"x_max":933,"o":"m 768 764 l 808 1014 l 933 1014 l 879 764 l 768 764 m 253 -14 q 98 61 147 -14 q 68 263 49 136 l 106 500 q 199 703 125 628 q 379 778 274 778 q 501 735 458 778 q 539 618 543 692 l 543 618 l 568 792 l 604 1014 l 729 1014 l 568 0 l 443 0 l 467 146 l 465 146 q 388 29 444 72 q 253 -14 332 -14 m 313 94 q 427 141 382 94 q 486 271 472 188 l 521 493 q 503 623 535 576 q 403 669 472 669 q 289 623 335 669 q 229 493 243 576 l 194 271 q 213 141 181 188 q 313 94 244 94 z "},"":{"ha":833,"x_min":14,"x_max":785,"o":"m 67 0 l 140 465 l 14 465 l 31 569 l 157 569 l 228 1014 l 490 1014 q 711 931 638 1014 q 763 710 785 849 l 699 306 q 634 144 685 213 q 506 38 583 75 q 329 0 428 0 l 67 0 m 210 111 l 347 111 q 499 163 439 111 q 574 306 560 214 l 638 710 q 608 851 653 800 q 472 903 564 903 l 335 903 l 282 569 l 419 569 l 403 465 l 265 465 l 210 111 z "},"":{"ha":833,"x_min":86,"x_max":914,"o":"m 107 269 l 129 410 q 228 618 150 542 q 421 694 306 694 q 555 651 507 694 q 600 535 603 608 l 604 535 l 629 708 l 642 792 l 411 792 l 428 896 l 658 896 l 678 1014 l 803 1014 l 783 896 l 914 896 l 897 792 l 767 792 l 642 0 l 517 0 l 540 146 l 538 146 q 456 28 517 71 q 308 -14 396 -14 q 140 63 194 -14 q 107 269 86 139 m 233 278 q 254 142 219 189 q 368 94 289 94 q 497 143 446 94 q 561 278 547 192 l 581 403 q 559 538 594 489 q 446 586 524 586 q 317 539 367 586 q 253 403 267 492 l 233 278 z "},"":{"ha":833,"x_min":78,"x_max":822,"o":"m 78 0 l 239 1014 l 822 1014 l 804 900 l 344 900 l 294 586 l 706 586 l 688 474 l 276 474 l 219 114 l 679 114 l 661 0 l 78 0 m 346 1167 l 363 1271 l 807 1271 l 790 1167 l 346 1167 z "},"":{"ha":833,"x_min":85,"x_max":749,"o":"m 353 -14 q 151 66 218 -14 q 106 278 85 146 l 138 486 q 199 640 153 575 q 317 742 246 706 q 479 778 389 778 q 682 698 615 778 q 726 486 749 618 l 706 351 l 239 351 l 228 278 q 249 140 214 188 q 369 92 285 92 q 553 194 515 92 l 678 194 q 563 42 651 99 q 353 -14 474 -14 m 254 446 l 599 446 l 604 486 q 584 625 619 576 q 463 674 549 674 q 326 625 378 674 q 260 486 275 576 l 254 446 m 281 931 l 297 1035 l 742 1035 l 725 931 l 281 931 z "},"":{"ha":833,"x_min":78,"x_max":822,"o":"m 78 0 l 239 1014 l 822 1014 l 804 900 l 344 900 l 294 586 l 706 586 l 688 474 l 276 474 l 219 114 l 679 114 l 661 0 l 78 0 m 560 1118 q 408 1174 460 1118 q 369 1319 356 1229 l 467 1319 q 487 1232 458 1265 q 571 1199 515 1199 q 667 1232 628 1199 q 714 1319 706 1265 l 814 1319 q 730 1174 800 1229 q 560 1118 660 1118 z "},"":{"ha":833,"x_min":85,"x_max":750,"o":"m 353 -14 q 151 66 218 -14 q 106 278 85 146 l 138 486 q 199 640 153 575 q 317 742 246 706 q 479 778 389 778 q 682 698 615 778 q 726 486 749 618 l 706 351 l 239 351 l 228 278 q 249 140 214 188 q 369 92 285 92 q 553 194 515 92 l 678 194 q 563 42 651 99 q 353 -14 474 -14 m 254 446 l 599 446 l 604 486 q 584 625 619 576 q 463 674 549 674 q 326 625 378 674 q 260 486 275 576 l 254 446 m 496 889 q 344 944 396 889 q 306 1090 292 1000 l 403 1090 q 423 1003 394 1036 q 507 969 451 969 q 603 1003 564 969 q 650 1090 642 1036 l 750 1090 q 666 944 736 1000 q 496 889 596 889 z "},"":{"ha":833,"x_min":78,"x_max":822,"o":"m 78 0 l 239 1014 l 822 1014 l 804 900 l 344 900 l 294 586 l 706 586 l 688 474 l 276 474 l 219 114 l 679 114 l 661 0 l 78 0 m 563 1133 q 494 1158 517 1133 q 478 1222 472 1182 q 515 1287 485 1263 q 592 1311 546 1311 q 660 1287 638 1311 q 675 1222 682 1263 q 639 1158 669 1182 q 563 1133 608 1133 z "},"":{"ha":833,"x_min":85,"x_max":749,"o":"m 353 -14 q 151 66 218 -14 q 106 278 85 146 l 138 486 q 199 640 153 575 q 317 742 246 706 q 479 778 389 778 q 682 698 615 778 q 726 486 749 618 l 706 351 l 239 351 l 228 278 q 249 140 214 188 q 369 92 285 92 q 553 194 515 92 l 678 194 q 563 42 651 99 q 353 -14 474 -14 m 254 446 l 599 446 l 604 486 q 584 625 619 576 q 463 674 549 674 q 326 625 378 674 q 260 486 275 576 l 254 446 m 499 901 q 431 925 453 901 q 414 989 408 949 q 451 1055 421 1031 q 526 1079 481 1079 q 595 1055 572 1079 q 611 989 618 1031 q 575 925 606 949 q 499 901 544 901 z "},"":{"ha":833,"x_min":78,"x_max":822,"o":"m 78 0 l 239 1014 l 822 1014 l 804 900 l 344 900 l 294 586 l 706 586 l 688 474 l 276 474 l 219 114 l 679 114 l 661 0 l 596 0 q 518 -69 543 -37 q 488 -129 493 -100 q 501 -179 483 -160 q 553 -199 518 -199 l 636 -199 l 624 -282 l 515 -282 q 398 -245 439 -282 q 367 -153 357 -208 q 401 -79 372 -117 q 490 0 429 -42 l 78 0 z "},"":{"ha":833,"x_min":85,"x_max":749,"o":"m 413 -282 q 295 -245 336 -282 q 264 -153 254 -208 q 367 -14 272 -89 l 353 -14 q 151 66 218 -14 q 106 278 85 146 l 138 486 q 199 640 153 575 q 317 742 246 706 q 479 778 389 778 q 682 698 615 778 q 726 486 749 618 l 706 351 l 239 351 l 228 278 q 249 140 214 188 q 369 92 285 92 q 553 194 515 92 l 678 194 q 619 90 661 135 q 519 19 578 46 l 494 1 q 416 -69 442 -37 q 385 -129 390 -100 q 398 -179 381 -160 q 450 -199 415 -199 l 533 -199 l 521 -282 l 413 -282 m 254 446 l 599 446 l 604 486 q 584 625 619 576 q 463 674 549 674 q 326 625 378 674 q 260 486 275 576 l 254 446 z "},"":{"ha":833,"x_min":78,"x_max":843,"o":"m 78 0 l 239 1014 l 822 1014 l 804 900 l 344 900 l 294 586 l 706 586 l 688 474 l 276 474 l 219 114 l 679 114 l 661 0 l 78 0 m 504 1125 l 340 1319 l 475 1319 l 572 1211 l 700 1319 l 843 1319 l 619 1125 l 504 1125 z "},"":{"ha":833,"x_min":85,"x_max":781,"o":"m 353 -14 q 151 66 218 -14 q 106 278 85 146 l 138 486 q 199 640 153 575 q 317 742 246 706 q 479 778 389 778 q 682 698 615 778 q 726 486 749 618 l 706 351 l 239 351 l 228 278 q 249 140 214 188 q 369 92 285 92 q 553 194 515 92 l 678 194 q 563 42 651 99 q 353 -14 474 -14 m 254 446 l 599 446 l 604 486 q 584 625 619 576 q 463 674 549 674 q 326 625 378 674 q 260 486 275 576 l 254 446 m 442 896 l 278 1090 l 413 1090 l 510 982 l 638 1090 l 781 1090 l 557 896 l 442 896 z "},"":{"ha":833,"x_min":83,"x_max":796,"o":"m 358 -14 q 151 64 219 -14 q 106 278 83 142 l 178 736 q 292 950 200 872 q 524 1028 385 1028 q 728 949 660 1028 q 775 736 796 871 l 650 736 q 626 869 664 822 q 506 915 588 915 q 370 869 424 915 q 303 738 317 824 l 231 278 q 256 144 217 192 q 376 97 294 97 q 511 144 458 97 q 578 278 564 192 l 597 403 l 392 403 l 410 517 l 740 517 l 703 278 q 642 123 689 189 q 522 22 594 57 q 358 -14 450 -14 m 282 1125 l 506 1319 l 621 1319 l 785 1125 l 650 1125 l 554 1233 l 425 1125 l 282 1125 z "},"":{"ha":833,"x_min":96,"x_max":767,"o":"m 125 -250 l 143 -136 l 386 -136 q 517 -28 499 -136 l 532 69 l 557 208 l 554 208 q 474 92 535 135 q 326 49 413 49 q 152 126 208 49 q 117 333 96 203 l 142 494 q 243 701 163 625 q 442 778 324 778 q 576 735 529 778 q 619 618 624 692 l 619 618 l 643 764 l 767 764 l 642 -28 q 552 -190 625 -131 q 367 -250 479 -250 l 125 -250 m 381 157 q 510 206 458 157 q 576 340 563 254 l 599 486 q 576 621 614 572 q 461 669 539 669 q 331 622 382 669 q 265 486 281 575 l 243 340 q 265 204 229 251 q 381 157 301 157 m 242 896 l 465 1090 l 581 1090 l 744 896 l 610 896 l 514 1004 l 385 896 l 242 896 z "},"":{"ha":833,"x_min":83,"x_max":796,"o":"m 358 -14 q 151 64 219 -14 q 106 278 83 142 l 178 736 q 292 950 200 872 q 524 1028 385 1028 q 728 949 660 1028 q 775 736 796 871 l 650 736 q 626 869 664 822 q 506 915 588 915 q 370 869 424 915 q 303 738 317 824 l 231 278 q 256 144 217 192 q 376 97 294 97 q 511 144 458 97 q 578 278 564 192 l 597 403 l 392 403 l 410 517 l 740 517 l 703 278 q 642 123 689 189 q 522 22 594 57 q 358 -14 450 -14 m 532 1118 q 380 1174 432 1118 q 342 1319 328 1229 l 439 1319 q 459 1232 431 1265 q 543 1199 488 1199 q 639 1232 600 1199 q 686 1319 678 1265 l 786 1319 q 702 1174 772 1229 q 532 1118 632 1118 z "},"":{"ha":833,"x_min":96,"x_max":767,"o":"m 125 -250 l 143 -136 l 386 -136 q 517 -28 499 -136 l 532 69 l 557 208 l 554 208 q 474 92 535 135 q 326 49 413 49 q 152 126 208 49 q 117 333 96 203 l 142 494 q 243 701 163 625 q 442 778 324 778 q 576 735 529 778 q 619 618 624 692 l 619 618 l 643 764 l 767 764 l 642 -28 q 552 -190 625 -131 q 367 -250 479 -250 l 125 -250 m 381 157 q 510 206 458 157 q 576 340 563 254 l 599 486 q 576 621 614 572 q 461 669 539 669 q 331 622 382 669 q 265 486 281 575 l 243 340 q 265 204 229 251 q 381 157 301 157 m 492 889 q 340 944 392 889 q 301 1090 288 1000 l 399 1090 q 419 1003 390 1036 q 503 969 447 969 q 599 1003 560 969 q 646 1090 638 1036 l 746 1090 q 662 944 732 1000 q 492 889 592 889 z "},"":{"ha":833,"x_min":83,"x_max":796,"o":"m 358 -14 q 151 64 219 -14 q 106 278 83 142 l 178 736 q 292 950 200 872 q 524 1028 385 1028 q 728 949 660 1028 q 775 736 796 871 l 650 736 q 626 869 664 822 q 506 915 588 915 q 370 869 424 915 q 303 738 317 824 l 231 278 q 256 144 217 192 q 376 97 294 97 q 511 144 458 97 q 578 278 564 192 l 597 403 l 392 403 l 410 517 l 740 517 l 703 278 q 642 123 689 189 q 522 22 594 57 q 358 -14 450 -14 m 535 1133 q 467 1158 489 1133 q 450 1222 444 1182 q 488 1287 457 1263 q 564 1311 518 1311 q 632 1287 610 1311 q 647 1222 654 1263 q 611 1158 642 1182 q 535 1133 581 1133 z "},"":{"ha":833,"x_min":96,"x_max":767,"o":"m 125 -250 l 143 -136 l 386 -136 q 517 -28 499 -136 l 532 69 l 557 208 l 554 208 q 474 92 535 135 q 326 49 413 49 q 152 126 208 49 q 117 333 96 203 l 142 494 q 243 701 163 625 q 442 778 324 778 q 576 735 529 778 q 619 618 624 692 l 619 618 l 643 764 l 767 764 l 642 -28 q 552 -190 625 -131 q 367 -250 479 -250 l 125 -250 m 381 157 q 510 206 458 157 q 576 340 563 254 l 599 486 q 576 621 614 572 q 461 669 539 669 q 331 622 382 669 q 265 486 281 575 l 243 340 q 265 204 229 251 q 381 157 301 157 m 494 901 q 426 925 449 901 q 410 989 404 949 q 447 1055 417 1031 q 522 1079 476 1079 q 591 1055 568 1079 q 607 989 614 1031 q 571 925 601 949 q 494 901 540 901 z "},"":{"ha":833,"x_min":83,"x_max":796,"o":"m 358 -14 q 151 64 219 -14 q 106 278 83 142 l 178 736 q 292 950 200 872 q 524 1028 385 1028 q 728 949 660 1028 q 775 736 796 871 l 650 736 q 626 869 664 822 q 506 915 588 915 q 370 869 424 915 q 303 738 317 824 l 231 278 q 256 144 217 192 q 376 97 294 97 q 511 144 458 97 q 578 278 564 192 l 597 403 l 392 403 l 410 517 l 740 517 l 703 278 q 642 123 689 189 q 522 22 594 57 q 358 -14 450 -14 m 158 -333 l 322 -132 l 463 -132 l 285 -333 l 158 -333 z "},"":{"ha":833,"x_min":96,"x_max":767,"o":"m 125 -250 l 143 -136 l 386 -136 q 517 -28 499 -136 l 532 69 l 557 208 l 554 208 q 474 92 535 135 q 326 49 413 49 q 152 126 208 49 q 117 333 96 203 l 142 494 q 243 701 163 625 q 442 778 324 778 q 576 735 529 778 q 619 618 624 692 l 619 618 l 643 764 l 767 764 l 642 -28 q 552 -190 625 -131 q 367 -250 479 -250 l 125 -250 m 381 157 q 510 206 458 157 q 576 340 563 254 l 599 486 q 576 621 614 572 q 461 669 539 669 q 331 622 382 669 q 265 486 281 575 l 243 340 q 265 204 229 251 q 381 157 301 157 m 700 1222 l 538 896 l 372 896 l 604 1222 l 700 1222 z "},"":{"ha":833,"x_min":68,"x_max":804,"o":"m 68 0 l 229 1014 l 354 1014 l 285 581 l 610 581 l 679 1014 l 804 1014 l 643 0 l 518 0 l 592 467 l 267 467 l 193 0 l 68 0 m 282 1125 l 506 1319 l 621 1319 l 785 1125 l 650 1125 l 554 1233 l 425 1125 l 282 1125 z "},"":{"ha":833,"x_min":39,"x_max":749,"o":"m 67 0 l 228 1014 l 353 1014 l 313 764 l 289 618 l 292 618 q 372 736 313 694 q 519 778 432 778 q 692 707 635 778 q 729 514 749 636 l 647 0 l 522 0 l 601 500 q 578 627 614 582 q 467 672 542 672 q 336 624 389 672 q 268 486 283 575 l 192 0 l 67 0 m 39 1118 l 263 1313 l 378 1313 l 542 1118 l 407 1118 l 311 1226 l 182 1118 l 39 1118 z "},"":{"ha":833,"x_min":68,"x_max":890,"o":"m 68 0 l 183 729 l 69 729 l 86 833 l 200 833 l 229 1014 l 354 1014 l 325 833 l 650 833 l 679 1014 l 804 1014 l 775 833 l 890 833 l 874 729 l 758 729 l 643 0 l 518 0 l 592 467 l 267 467 l 193 0 l 68 0 m 285 581 l 610 581 l 633 729 l 308 729 l 285 581 z "},"":{"ha":833,"x_min":64,"x_max":735,"o":"m 64 792 l 81 896 l 208 896 l 228 1014 l 353 1014 l 333 896 l 567 896 l 550 792 l 317 792 l 300 681 l 276 535 l 278 535 q 359 653 300 611 q 506 694 418 694 q 678 624 621 694 q 715 431 735 553 l 647 0 l 522 0 l 589 417 q 565 544 601 499 q 453 589 528 589 q 322 540 375 589 q 256 403 269 492 l 192 0 l 67 0 l 192 792 l 64 792 z "},"":{"ha":833,"x_min":85,"x_max":788,"o":"m 85 0 l 103 114 l 310 114 l 435 900 l 228 900 l 246 1014 l 788 1014 l 769 900 l 563 900 l 438 114 l 644 114 l 626 0 l 85 0 m 632 1132 q 567 1147 590 1132 q 528 1181 543 1161 q 498 1215 513 1200 q 460 1229 483 1229 q 428 1217 442 1229 q 411 1181 414 1206 l 404 1139 l 314 1139 l 321 1181 q 371 1278 331 1243 q 467 1313 411 1313 q 532 1298 508 1313 q 571 1264 556 1283 q 601 1230 586 1244 q 639 1215 615 1215 q 688 1264 679 1215 l 694 1306 l 785 1306 l 778 1264 q 728 1167 768 1201 q 632 1132 689 1132 z "},"":{"ha":833,"x_min":50,"x_max":769,"o":"m 50 0 l 68 114 l 339 114 l 424 650 l 188 650 l 206 764 l 567 764 l 464 114 l 721 114 l 703 0 l 50 0 m 617 903 q 551 917 575 903 q 513 951 528 932 q 483 985 497 971 q 444 1000 468 1000 q 394 951 403 1000 l 389 910 l 299 910 l 304 951 q 356 1049 315 1014 q 451 1083 396 1083 q 517 1069 493 1083 q 555 1035 540 1054 q 584 1001 569 1015 q 622 986 599 986 q 672 1035 664 986 l 679 1076 l 769 1076 l 763 1035 q 713 938 753 972 q 617 903 674 903 z "},"":{"ha":833,"x_min":85,"x_max":788,"o":"m 85 0 l 103 114 l 310 114 l 435 900 l 228 900 l 246 1014 l 788 1014 l 769 900 l 563 900 l 438 114 l 644 114 l 626 0 l 85 0 m 318 1167 l 335 1271 l 779 1271 l 763 1167 l 318 1167 z "},"":{"ha":833,"x_min":50,"x_max":763,"o":"m 50 0 l 68 114 l 339 114 l 424 650 l 188 650 l 206 764 l 567 764 l 464 114 l 721 114 l 703 0 l 50 0 m 301 931 l 318 1035 l 763 1035 l 746 931 l 301 931 z "},"":{"ha":833,"x_min":85,"x_max":788,"o":"m 85 0 l 103 114 l 310 114 l 435 900 l 228 900 l 246 1014 l 788 1014 l 769 900 l 563 900 l 438 114 l 644 114 l 626 0 l 85 0 m 532 1118 q 380 1174 432 1118 q 342 1319 328 1229 l 439 1319 q 459 1232 431 1265 q 543 1199 488 1199 q 639 1232 600 1199 q 686 1319 678 1265 l 786 1319 q 702 1174 772 1229 q 532 1118 632 1118 z "},"":{"ha":833,"x_min":50,"x_max":771,"o":"m 50 0 l 68 114 l 339 114 l 424 650 l 188 650 l 206 764 l 567 764 l 464 114 l 721 114 l 703 0 l 50 0 m 517 889 q 365 944 417 889 q 326 1090 313 1000 l 424 1090 q 444 1003 415 1036 q 528 969 472 969 q 624 1003 585 969 q 671 1090 663 1036 l 771 1090 q 687 944 757 1000 q 517 889 617 889 z "},"":{"ha":833,"x_min":85,"x_max":788,"o":"m 85 0 l 103 114 l 310 114 l 435 900 l 228 900 l 246 1014 l 788 1014 l 769 900 l 563 900 l 438 114 l 644 114 l 626 0 l 401 0 q 324 -69 349 -37 q 293 -129 299 -100 q 306 -179 289 -160 q 358 -199 324 -199 l 442 -199 l 429 -282 l 321 -282 q 203 -245 244 -282 q 172 -153 163 -208 q 206 -79 178 -117 q 296 0 235 -42 l 85 0 z "},"":{"ha":833,"x_min":50,"x_max":721,"o":"m 519 901 q 451 925 474 901 q 435 989 429 949 q 472 1055 442 1031 q 547 1079 501 1079 q 616 1055 593 1079 q 632 989 639 1031 q 596 925 626 949 q 519 901 565 901 m 50 0 l 68 114 l 339 114 l 424 650 l 188 650 l 206 764 l 567 764 l 464 114 l 721 114 l 703 0 l 422 0 q 344 -69 369 -37 q 314 -129 319 -100 q 327 -179 310 -160 q 379 -199 344 -199 l 463 -199 l 450 -282 l 342 -282 q 224 -245 265 -282 q 193 -153 183 -208 q 227 -79 199 -117 q 317 0 256 -42 l 50 0 z "},"":{"ha":833,"x_min":85,"x_max":788,"o":"m 85 0 l 103 114 l 310 114 l 435 900 l 228 900 l 246 1014 l 788 1014 l 769 900 l 563 900 l 438 114 l 644 114 l 626 0 l 85 0 m 535 1133 q 467 1158 489 1133 q 450 1222 444 1182 q 488 1287 457 1263 q 564 1311 518 1311 q 632 1287 610 1311 q 647 1222 654 1263 q 611 1158 642 1182 q 535 1133 581 1133 z "},"":{"ha":833,"x_min":50,"x_max":721,"o":"m 50 0 l 68 114 l 339 114 l 424 650 l 188 650 l 206 764 l 567 764 l 464 114 l 721 114 l 703 0 l 50 0 z "},"":{"ha":833,"x_min":25,"x_max":868,"o":"m 311 -14 q 95 68 165 -14 q 47 292 25 150 l 172 292 q 199 148 158 199 q 329 97 240 97 q 476 148 418 97 q 547 292 533 199 l 644 900 l 360 900 l 378 1014 l 788 1014 l 672 292 q 556 66 650 146 q 311 -14 461 -14 m 365 1125 l 589 1319 l 704 1319 l 868 1125 l 733 1125 l 638 1233 l 508 1125 l 365 1125 z "},"":{"ha":833,"x_min":17,"x_max":867,"o":"m 17 -250 l 36 -135 l 215 -135 q 356 -88 301 -135 q 425 43 411 -42 l 521 650 l 201 650 l 219 764 l 664 764 l 550 43 q 488 -112 536 -46 q 365 -214 439 -178 q 196 -250 290 -250 l 17 -250 m 364 896 l 588 1090 l 703 1090 l 867 896 l 732 896 l 636 1004 l 507 896 l 364 896 z "},"":{"ha":833,"x_min":67,"x_max":864,"o":"m 67 0 l 228 1014 l 353 1014 l 283 579 l 431 579 l 725 1014 l 864 1014 l 535 522 l 717 0 l 578 0 l 417 469 l 267 469 l 192 0 l 67 0 m 153 -333 l 317 -132 l 457 -132 l 279 -333 l 153 -333 z "},"":{"ha":833,"x_min":71,"x_max":815,"o":"m 71 0 l 232 1014 l 357 1014 l 267 449 l 397 449 l 669 764 l 815 764 l 501 396 l 699 0 l 556 0 l 388 340 l 250 340 l 196 0 l 71 0 m 150 -333 l 314 -132 l 460 -132 l 282 -333 l 150 -333 z "},"":{"ha":833,"x_min":74,"x_max":815,"o":"m 74 0 l 194 764 l 319 764 l 269 449 l 397 449 l 669 764 l 815 764 l 501 396 l 699 0 l 556 0 l 388 340 l 253 340 l 199 0 l 74 0 z "},"":{"ha":833,"x_min":126,"x_max":728,"o":"m 126 0 l 288 1014 l 413 1014 l 269 114 l 728 114 l 710 0 l 126 0 m 283 1125 l 461 1319 l 603 1319 l 418 1125 l 283 1125 z "},"":{"ha":833,"x_min":138,"x_max":721,"o":"m 446 0 q 294 59 344 0 q 258 215 243 118 l 367 900 l 138 900 l 156 1014 l 510 1014 l 383 215 q 398 141 376 168 q 464 114 419 114 l 721 114 l 703 0 l 446 0 m 365 1125 l 543 1319 l 685 1319 l 500 1125 l 365 1125 z "},"":{"ha":833,"x_min":126,"x_max":728,"o":"m 126 0 l 288 1014 l 413 1014 l 269 114 l 728 114 l 710 0 l 126 0 m 208 -333 l 372 -132 l 513 -132 l 335 -333 l 208 -333 z "},"":{"ha":833,"x_min":128,"x_max":721,"o":"m 446 0 q 294 59 344 0 q 258 215 243 118 l 367 900 l 138 900 l 156 1014 l 510 1014 l 383 215 q 398 141 376 168 q 464 114 419 114 l 721 114 l 703 0 l 446 0 m 128 -333 l 292 -132 l 438 -132 l 260 -333 l 128 -333 z "},"":{"ha":833,"x_min":126,"x_max":1106,"o":"m 126 0 l 288 1014 l 413 1014 l 269 114 l 728 114 l 710 0 l 126 0 m 933 1014 l 988 1264 l 1106 1264 l 1038 1014 l 933 1014 z "},"":{"ha":833,"x_min":138,"x_max":1106,"o":"m 446 0 q 294 59 344 0 q 258 215 243 118 l 367 900 l 138 900 l 156 1014 l 510 1014 l 383 215 q 398 141 376 168 q 464 114 419 114 l 721 114 l 703 0 l 446 0 m 933 1014 l 988 1264 l 1106 1264 l 1038 1014 l 933 1014 z "},"":{"ha":833,"x_min":126,"x_max":728,"o":"m 126 0 l 288 1014 l 413 1014 l 269 114 l 728 114 l 710 0 l 126 0 m 554 368 q 475 399 501 368 q 457 481 449 429 q 502 567 465 535 q 592 599 539 599 q 670 567 644 599 q 688 481 696 535 q 643 399 679 429 q 554 368 607 368 z "},"":{"ha":833,"x_min":110,"x_max":876,"o":"m 418 0 q 266 59 317 0 q 231 215 215 118 l 339 900 l 110 900 l 128 1014 l 482 1014 l 356 215 q 370 141 349 168 q 436 114 392 114 l 693 114 l 675 0 l 418 0 m 735 368 q 656 399 682 368 q 638 481 629 429 q 683 567 646 535 q 772 599 719 599 q 851 567 825 599 q 868 481 876 535 q 824 399 860 429 q 735 368 788 368 z "},"":{"ha":833,"x_min":17,"x_max":728,"o":"m 126 0 l 193 424 l 17 314 l 35 431 l 213 540 l 288 1014 l 413 1014 l 351 626 l 604 783 l 586 667 l 332 510 l 269 114 l 728 114 l 710 0 l 126 0 z "},"":{"ha":833,"x_min":138,"x_max":721,"o":"m 139 319 l 139 431 l 311 547 l 367 900 l 138 900 l 156 1014 l 510 1014 l 451 642 l 653 778 l 653 667 l 431 517 l 383 215 q 398 141 376 168 q 464 114 419 114 l 721 114 l 703 0 l 446 0 q 294 59 344 0 q 258 215 243 118 l 292 422 l 139 319 z "},"":{"ha":833,"x_min":64,"x_max":808,"o":"m 64 0 l 225 1014 l 390 1014 l 564 146 q 571 231 567 181 q 582 338 575 282 q 597 444 589 394 l 688 1014 l 808 1014 l 647 0 l 482 0 l 310 868 q 302 784 307 835 q 290 677 297 733 q 275 569 283 621 l 185 0 l 64 0 m 449 1125 l 626 1319 l 768 1319 l 583 1125 l 449 1125 z "},"":{"ha":833,"x_min":67,"x_max":749,"o":"m 67 0 l 188 764 l 313 764 l 289 618 l 292 618 q 372 736 313 694 q 519 778 432 778 q 692 707 635 778 q 729 514 749 636 l 647 0 l 522 0 l 601 500 q 578 627 614 582 q 467 672 542 672 q 336 624 389 672 q 268 486 283 575 l 192 0 l 67 0 m 414 896 l 592 1090 l 733 1090 l 549 896 l 414 896 z "},"":{"ha":833,"x_min":64,"x_max":808,"o":"m 64 0 l 225 1014 l 390 1014 l 564 146 q 571 231 567 181 q 582 338 575 282 q 597 444 589 394 l 688 1014 l 808 1014 l 647 0 l 482 0 l 310 868 q 302 784 307 835 q 290 677 297 733 q 275 569 283 621 l 185 0 l 64 0 m 150 -333 l 314 -132 l 460 -132 l 282 -333 l 150 -333 z "},"":{"ha":833,"x_min":67,"x_max":749,"o":"m 67 0 l 188 764 l 313 764 l 289 618 l 292 618 q 372 736 313 694 q 519 778 432 778 q 692 707 635 778 q 729 514 749 636 l 647 0 l 522 0 l 601 500 q 578 627 614 582 q 467 672 542 672 q 336 624 389 672 q 268 486 283 575 l 192 0 l 67 0 m 150 -333 l 314 -132 l 460 -132 l 282 -333 l 150 -333 z "},"":{"ha":833,"x_min":64,"x_max":815,"o":"m 64 0 l 225 1014 l 390 1014 l 564 146 q 571 231 567 181 q 582 338 575 282 q 597 444 589 394 l 688 1014 l 808 1014 l 647 0 l 482 0 l 310 868 q 302 784 307 835 q 290 677 297 733 q 275 569 283 621 l 185 0 l 64 0 m 476 1125 l 313 1319 l 447 1319 l 544 1211 l 672 1319 l 815 1319 l 592 1125 l 476 1125 z "},"":{"ha":833,"x_min":67,"x_max":782,"o":"m 67 0 l 188 764 l 313 764 l 289 618 l 292 618 q 372 736 313 694 q 519 778 432 778 q 692 707 635 778 q 729 514 749 636 l 647 0 l 522 0 l 601 500 q 578 627 614 582 q 467 672 542 672 q 336 624 389 672 q 268 486 283 575 l 192 0 l 67 0 m 443 896 l 279 1090 l 414 1090 l 511 982 l 639 1090 l 782 1090 l 558 896 l 443 896 z "},"":{"ha":833,"x_min":53,"x_max":749,"o":"m 67 0 l 188 764 l 313 764 l 289 618 l 292 618 q 372 736 313 694 q 519 778 432 778 q 692 707 635 778 q 729 514 749 636 l 647 0 l 522 0 l 601 500 q 578 627 614 582 q 467 672 542 672 q 336 624 389 672 q 268 486 283 575 l 192 0 l 67 0 m 53 896 l 217 1097 l 363 1097 l 185 896 l 53 896 z "},"":{"ha":833,"x_min":64,"x_max":808,"o":"m 232 -250 l 250 -136 l 340 -136 q 464 -94 414 -136 q 525 21 514 -51 l 310 868 q 302 784 307 835 q 290 677 297 733 q 275 569 283 621 l 185 0 l 64 0 l 225 1014 l 389 1014 l 581 249 q 588 335 583 283 q 599 444 593 386 q 614 551 606 501 l 688 1014 l 808 1014 l 650 21 q 592 -122 638 -61 q 478 -217 547 -183 q 322 -250 408 -250 l 232 -250 z "},"":{"ha":833,"x_min":69,"x_max":746,"o":"m 232 -250 l 250 -136 l 338 -136 q 461 -94 411 -136 q 522 21 511 -51 l 599 500 q 576 627 611 582 q 467 672 542 672 q 338 624 389 672 q 271 486 286 575 l 194 0 l 69 0 l 190 764 l 315 764 l 292 618 l 294 618 q 374 736 315 694 q 519 778 432 778 q 690 707 635 778 q 726 514 746 636 l 647 21 q 590 -122 635 -61 q 475 -217 544 -183 q 319 -250 406 -250 l 232 -250 z "},"":{"ha":833,"x_min":83,"x_max":788,"o":"m 353 -14 q 150 64 217 -14 q 106 278 83 142 l 178 736 q 291 950 200 872 q 518 1028 382 1028 q 721 951 654 1028 q 767 738 788 874 l 694 278 q 581 64 672 142 q 353 -14 489 -14 m 371 99 q 504 145 453 99 q 569 278 556 192 l 642 736 q 619 869 656 822 q 500 915 582 915 q 368 869 419 915 q 303 736 317 822 l 231 278 q 253 145 217 192 q 371 99 290 99 m 318 1167 l 335 1271 l 779 1271 l 763 1167 l 318 1167 z "},"":{"ha":833,"x_min":83,"x_max":749,"o":"m 353 -14 q 150 64 217 -14 q 106 278 83 142 l 138 486 q 251 700 160 622 q 479 778 343 778 q 682 701 615 778 q 728 488 749 624 l 694 278 q 581 64 672 142 q 353 -14 489 -14 m 371 97 q 504 143 453 97 q 569 278 556 189 l 601 486 q 580 621 617 575 q 461 667 543 667 q 329 621 381 667 q 263 486 278 575 l 231 278 q 253 143 217 189 q 371 97 290 97 m 281 931 l 297 1035 l 742 1035 l 725 931 l 281 931 z "},"":{"ha":833,"x_min":83,"x_max":788,"o":"m 353 -14 q 150 64 217 -14 q 106 278 83 142 l 178 736 q 291 950 200 872 q 518 1028 382 1028 q 721 951 654 1028 q 767 738 788 874 l 694 278 q 581 64 672 142 q 353 -14 489 -14 m 371 99 q 504 145 453 99 q 569 278 556 192 l 642 736 q 619 869 656 822 q 500 915 582 915 q 368 869 419 915 q 303 736 317 822 l 231 278 q 253 145 217 192 q 371 99 290 99 m 532 1118 q 380 1174 432 1118 q 342 1319 328 1229 l 439 1319 q 459 1232 431 1265 q 543 1199 488 1199 q 639 1232 600 1199 q 686 1319 678 1265 l 786 1319 q 702 1174 772 1229 q 532 1118 632 1118 z "},"":{"ha":833,"x_min":83,"x_max":750,"o":"m 353 -14 q 150 64 217 -14 q 106 278 83 142 l 138 486 q 251 700 160 622 q 479 778 343 778 q 682 701 615 778 q 728 488 749 624 l 694 278 q 581 64 672 142 q 353 -14 489 -14 m 371 97 q 504 143 453 97 q 569 278 556 189 l 601 486 q 580 621 617 575 q 461 667 543 667 q 329 621 381 667 q 263 486 278 575 l 231 278 q 253 143 217 189 q 371 97 290 97 m 496 889 q 344 944 396 889 q 306 1090 292 1000 l 403 1090 q 423 1003 394 1036 q 507 969 451 969 q 603 1003 564 969 q 650 1090 642 1036 l 750 1090 q 666 944 736 1000 q 496 889 596 889 z "},"":{"ha":833,"x_min":83,"x_max":885,"o":"m 353 -14 q 150 64 217 -14 q 106 278 83 142 l 178 736 q 291 950 200 872 q 518 1028 382 1028 q 721 951 654 1028 q 767 738 788 874 l 694 278 q 581 64 672 142 q 353 -14 489 -14 m 371 99 q 504 145 453 99 q 569 278 556 192 l 642 736 q 619 869 656 822 q 500 915 582 915 q 368 869 419 915 q 303 736 317 822 l 231 278 q 253 145 217 192 q 371 99 290 99 m 569 1125 l 753 1319 l 885 1319 l 694 1125 l 569 1125 m 317 1125 l 500 1319 l 632 1319 l 442 1125 l 317 1125 z "},"":{"ha":833,"x_min":83,"x_max":847,"o":"m 353 -14 q 150 64 217 -14 q 106 278 83 142 l 138 486 q 251 700 160 622 q 479 778 343 778 q 682 701 615 778 q 728 488 749 624 l 694 278 q 581 64 672 142 q 353 -14 489 -14 m 371 97 q 504 143 453 97 q 569 278 556 189 l 601 486 q 580 621 617 575 q 461 667 543 667 q 329 621 381 667 q 263 486 278 575 l 231 278 q 253 143 217 189 q 371 97 290 97 m 533 896 l 717 1090 l 847 1090 l 657 896 l 533 896 m 282 896 l 465 1090 l 596 1090 l 406 896 l 282 896 z "},"":{"ha":833,"x_min":15,"x_max":899,"o":"m 207 -14 q 61 57 107 -14 q 35 250 15 128 l 115 764 q 203 957 135 886 q 372 1028 272 1028 q 450 1008 421 1028 q 492 959 479 988 q 506 903 506 931 l 513 903 l 531 1014 l 899 1014 l 881 900 l 635 900 l 583 581 l 794 581 l 776 467 l 565 467 l 510 114 l 756 114 l 738 0 l 369 0 l 388 111 l 381 111 q 349 56 372 85 q 291 6 326 26 q 207 -14 256 -14 m 260 97 q 358 138 318 97 q 410 250 399 179 l 490 764 q 475 876 501 835 q 390 917 449 917 q 292 876 332 917 q 240 764 251 835 l 160 250 q 175 138 149 179 q 260 97 201 97 z "},"":{"ha":833,"x_min":4,"x_max":828,"o":"m 186 -14 q 49 47 93 -14 q 21 208 4 107 l 75 556 q 156 718 92 658 q 313 778 219 778 q 401 760 368 778 q 447 716 433 742 q 458 667 460 690 l 464 667 q 491 716 469 690 q 551 760 513 742 q 646 778 590 778 q 783 718 739 778 q 811 556 828 658 l 779 347 l 471 347 l 449 208 q 460 124 440 156 q 524 93 481 93 q 588 115 560 93 q 629 174 617 138 l 747 174 q 659 37 721 88 q 519 -14 597 -14 q 431 4 464 -14 q 385 48 399 22 q 374 97 372 74 l 368 97 q 340 48 363 74 q 280 4 318 22 q 186 -14 242 -14 m 218 93 q 291 124 261 93 q 329 208 321 156 l 383 556 q 372 640 392 608 q 308 671 351 671 q 233 640 264 671 q 193 556 201 608 l 139 208 q 152 124 131 156 q 218 93 174 93 m 486 449 l 676 449 l 693 556 q 680 640 701 608 q 614 671 658 671 q 541 640 571 671 q 503 556 511 608 l 486 449 z "},"":{"ha":833,"x_min":67,"x_max":810,"o":"m 67 0 l 228 1014 l 542 1014 q 694 977 632 1014 q 783 875 756 940 q 796 722 810 810 q 714 544 781 618 q 550 443 647 471 l 696 0 l 554 0 l 422 431 l 260 431 l 192 0 l 67 0 m 278 543 l 467 543 q 599 592 544 543 q 667 722 654 642 q 641 853 681 804 q 524 901 601 901 l 335 901 l 278 543 m 449 1125 l 626 1319 l 768 1319 l 583 1125 l 449 1125 z "},"":{"ha":833,"x_min":93,"x_max":779,"o":"m 93 0 l 214 764 l 336 764 l 314 625 q 540 778 375 778 q 720 702 661 778 q 760 497 779 626 l 751 451 l 626 451 l 632 486 q 611 624 647 576 q 494 672 575 672 q 363 624 415 672 q 294 486 310 575 l 218 0 l 93 0 m 440 896 l 618 1090 l 760 1090 l 575 896 l 440 896 z "},"":{"ha":833,"x_min":67,"x_max":810,"o":"m 67 0 l 228 1014 l 542 1014 q 694 977 632 1014 q 783 875 756 940 q 796 722 810 810 q 714 544 781 618 q 550 443 647 471 l 696 0 l 554 0 l 422 431 l 260 431 l 192 0 l 67 0 m 278 543 l 467 543 q 599 592 544 543 q 667 722 654 642 q 641 853 681 804 q 524 901 601 901 l 335 901 l 278 543 m 150 -333 l 314 -132 l 460 -132 l 282 -333 l 150 -333 z "},"":{"ha":833,"x_min":-79,"x_max":779,"o":"m 93 0 l 214 764 l 336 764 l 314 625 q 540 778 375 778 q 720 702 661 778 q 760 497 779 626 l 751 451 l 626 451 l 632 486 q 611 624 647 576 q 494 672 575 672 q 363 624 415 672 q 294 486 310 575 l 218 0 l 93 0 m -79 -333 l 85 -132 l 231 -132 l 53 -333 l -79 -333 z "},"":{"ha":833,"x_min":67,"x_max":815,"o":"m 67 0 l 228 1014 l 542 1014 q 694 977 632 1014 q 783 875 756 940 q 796 722 810 810 q 714 544 781 618 q 550 443 647 471 l 696 0 l 554 0 l 422 431 l 260 431 l 192 0 l 67 0 m 278 543 l 467 543 q 599 592 544 543 q 667 722 654 642 q 641 853 681 804 q 524 901 601 901 l 335 901 l 278 543 m 476 1125 l 313 1319 l 447 1319 l 544 1211 l 672 1319 l 815 1319 l 592 1125 l 476 1125 z "},"":{"ha":833,"x_min":93,"x_max":808,"o":"m 93 0 l 214 764 l 336 764 l 314 625 q 540 778 375 778 q 720 702 661 778 q 760 497 779 626 l 751 451 l 626 451 l 632 486 q 611 624 647 576 q 494 672 575 672 q 363 624 415 672 q 294 486 310 575 l 218 0 l 93 0 m 469 896 l 306 1090 l 440 1090 l 538 982 l 665 1090 l 808 1090 l 585 896 l 469 896 z "},"":{"ha":833,"x_min":63,"x_max":797,"o":"m 358 -14 q 136 60 210 -14 q 81 264 63 135 l 206 264 q 238 143 193 188 q 376 99 283 99 q 520 142 464 99 q 589 261 576 185 q 573 372 599 326 q 492 436 547 418 l 361 479 q 218 585 264 511 q 186 758 172 658 q 246 901 200 840 q 364 995 292 961 q 526 1029 436 1029 q 728 955 660 1029 q 779 757 797 881 l 654 757 q 628 874 667 832 q 508 917 590 917 q 376 878 428 917 q 314 769 325 839 q 330 658 304 706 q 413 592 356 611 l 544 547 q 685 440 640 515 q 714 264 729 365 q 652 118 701 181 q 527 21 603 56 q 358 -14 451 -14 m 449 1125 l 626 1319 l 768 1319 l 583 1125 l 449 1125 z "},"":{"ha":833,"x_min":82,"x_max":739,"o":"m 322 -14 q 143 41 204 -14 q 86 188 82 96 l 211 188 q 247 122 214 147 q 340 97 279 97 l 399 97 q 513 128 472 97 q 563 210 554 160 q 453 328 576 307 l 353 344 q 196 413 243 363 q 164 560 149 463 q 254 720 179 663 q 460 778 329 778 l 513 778 q 681 725 622 778 q 739 585 739 672 l 614 585 q 581 644 611 621 q 494 667 551 667 l 442 667 q 334 639 371 667 q 289 558 297 611 q 305 488 282 511 q 386 454 328 464 l 486 438 q 655 367 606 418 q 689 215 704 315 q 594 48 671 110 q 381 -14 517 -14 l 322 -14 m 414 896 l 592 1090 l 733 1090 l 549 896 l 414 896 z "},"":{"ha":833,"x_min":63,"x_max":797,"o":"m 358 -14 q 136 60 210 -14 q 81 264 63 135 l 206 264 q 238 143 193 188 q 376 99 283 99 q 520 142 464 99 q 589 261 576 185 q 573 372 599 326 q 492 436 547 418 l 361 479 q 218 585 264 511 q 186 758 172 658 q 246 901 200 840 q 364 995 292 961 q 526 1029 436 1029 q 728 955 660 1029 q 779 757 797 881 l 654 757 q 628 874 667 832 q 508 917 590 917 q 376 878 428 917 q 314 769 325 839 q 330 658 304 706 q 413 592 356 611 l 544 547 q 685 440 640 515 q 714 264 729 365 q 652 118 701 181 q 527 21 603 56 q 358 -14 451 -14 m 282 1125 l 506 1319 l 621 1319 l 785 1125 l 650 1125 l 554 1233 l 425 1125 l 282 1125 z "},"":{"ha":833,"x_min":82,"x_max":750,"o":"m 322 -14 q 143 41 204 -14 q 86 188 82 96 l 211 188 q 247 122 214 147 q 340 97 279 97 l 399 97 q 513 128 472 97 q 563 210 554 160 q 453 328 576 307 l 353 344 q 196 413 243 363 q 164 560 149 463 q 254 720 179 663 q 460 778 329 778 l 513 778 q 681 725 622 778 q 739 585 739 672 l 614 585 q 581 644 611 621 q 494 667 551 667 l 442 667 q 334 639 371 667 q 289 558 297 611 q 305 488 282 511 q 386 454 328 464 l 486 438 q 655 367 606 418 q 689 215 704 315 q 594 48 671 110 q 381 -14 517 -14 l 322 -14 m 247 896 l 471 1090 l 586 1090 l 750 896 l 615 896 l 519 1004 l 390 896 l 247 896 z "},"":{"ha":833,"x_min":65,"x_max":797,"o":"m 179 -282 l 192 -206 l 289 -206 q 340 -190 319 -206 q 364 -156 361 -174 q 333 -114 368 -132 q 228 -96 297 -96 l 275 -7 q 116 83 167 13 q 81 264 65 154 l 206 264 q 238 143 193 188 q 376 99 283 99 q 520 142 464 99 q 589 261 576 185 q 573 372 599 326 q 492 436 547 418 l 361 479 q 218 585 264 511 q 186 758 172 658 q 246 901 200 840 q 364 995 292 961 q 526 1029 436 1029 q 728 955 660 1029 q 779 757 797 881 l 654 757 q 628 874 667 832 q 508 917 590 917 q 376 878 428 917 q 314 769 325 839 q 330 658 304 706 q 413 592 356 611 l 544 547 q 685 440 640 515 q 714 264 729 365 q 652 118 701 181 q 527 21 603 56 q 358 -14 451 -14 q 351 -14 354 -14 l 333 -49 q 406 -67 369 -53 q 465 -106 443 -81 q 482 -167 488 -131 q 424 -248 475 -214 q 297 -282 372 -282 l 179 -282 z "},"":{"ha":833,"x_min":82,"x_max":739,"o":"m 322 -14 q 143 41 204 -14 q 86 188 82 96 l 211 188 q 247 122 214 147 q 340 97 279 97 l 399 97 q 513 128 472 97 q 563 210 554 160 q 453 328 576 307 l 353 344 q 196 413 243 363 q 164 560 149 463 q 254 720 179 663 q 460 778 329 778 l 513 778 q 681 725 622 778 q 739 585 739 672 l 614 585 q 581 644 611 621 q 494 667 551 667 l 442 667 q 334 639 371 667 q 289 558 297 611 q 305 488 282 511 q 386 454 328 464 l 486 438 q 655 367 606 418 q 689 215 704 315 q 607 60 672 119 q 429 -11 542 0 l 417 -49 q 492 -67 453 -53 q 557 -106 531 -81 q 583 -167 583 -131 q 538 -248 583 -214 q 417 -282 492 -282 l 299 -282 l 299 -206 l 396 -206 q 445 -190 426 -206 q 464 -156 464 -174 q 426 -114 464 -132 q 318 -96 388 -96 l 349 -14 l 322 -14 z "},"":{"ha":833,"x_min":63,"x_max":815,"o":"m 358 -14 q 136 60 210 -14 q 81 264 63 135 l 206 264 q 238 143 193 188 q 376 99 283 99 q 520 142 464 99 q 589 261 576 185 q 573 372 599 326 q 492 436 547 418 l 361 479 q 218 585 264 511 q 186 758 172 658 q 246 901 200 840 q 364 995 292 961 q 526 1029 436 1029 q 728 955 660 1029 q 779 757 797 881 l 654 757 q 628 874 667 832 q 508 917 590 917 q 376 878 428 917 q 314 769 325 839 q 330 658 304 706 q 413 592 356 611 l 544 547 q 685 440 640 515 q 714 264 729 365 q 652 118 701 181 q 527 21 603 56 q 358 -14 451 -14 m 476 1125 l 313 1319 l 447 1319 l 544 1211 l 672 1319 l 815 1319 l 592 1125 l 476 1125 z "},"":{"ha":833,"x_min":82,"x_max":782,"o":"m 322 -14 q 143 41 204 -14 q 86 188 82 96 l 211 188 q 247 122 214 147 q 340 97 279 97 l 399 97 q 513 128 472 97 q 563 210 554 160 q 453 328 576 307 l 353 344 q 196 413 243 363 q 164 560 149 463 q 254 720 179 663 q 460 778 329 778 l 513 778 q 681 725 622 778 q 739 585 739 672 l 614 585 q 581 644 611 621 q 494 667 551 667 l 442 667 q 334 639 371 667 q 289 558 297 611 q 305 488 282 511 q 386 454 328 464 l 486 438 q 655 367 606 418 q 689 215 704 315 q 594 48 671 110 q 381 -14 517 -14 l 322 -14 m 443 896 l 279 1090 l 414 1090 l 511 982 l 639 1090 l 782 1090 l 558 896 l 443 896 z "},"":{"ha":833,"x_min":158,"x_max":857,"o":"m 293 0 l 436 900 l 158 900 l 176 1014 l 857 1014 l 839 900 l 561 900 l 418 0 l 393 -49 q 466 -67 429 -53 q 525 -106 503 -81 q 542 -167 547 -131 q 483 -248 535 -214 q 357 -282 432 -282 l 239 -282 l 251 -206 l 349 -206 q 400 -190 379 -206 q 424 -156 421 -174 q 392 -114 428 -132 q 288 -96 357 -96 l 338 0 l 293 0 z "},"":{"ha":833,"x_min":118,"x_max":782,"o":"m 368 -282 l 368 -206 l 465 -206 q 515 -190 496 -206 q 533 -156 533 -174 q 495 -114 533 -132 q 388 -96 457 -96 l 424 0 q 290 57 332 4 q 263 201 247 110 l 333 650 l 118 650 l 136 764 l 351 764 l 385 972 l 510 972 l 476 764 l 782 764 l 764 650 l 458 650 l 388 201 q 457 114 374 114 l 665 114 l 647 0 l 503 0 l 486 -49 q 561 -67 522 -53 q 626 -106 600 -81 q 653 -167 653 -131 q 607 -248 653 -214 q 486 -282 561 -282 l 368 -282 z "},"":{"ha":833,"x_min":158,"x_max":857,"o":"m 293 0 l 436 900 l 158 900 l 176 1014 l 857 1014 l 839 900 l 561 900 l 418 0 l 293 0 m 476 1125 l 313 1319 l 447 1319 l 544 1211 l 672 1319 l 815 1319 l 592 1125 l 476 1125 z "},"":{"ha":833,"x_min":118,"x_max":881,"o":"m 588 861 l 747 1078 l 881 1078 l 707 861 l 588 861 m 439 0 q 294 53 340 0 q 263 201 247 106 l 333 650 l 118 650 l 136 764 l 351 764 l 385 972 l 510 972 l 476 764 l 782 764 l 764 650 l 458 650 l 388 201 q 457 114 374 114 l 665 114 l 647 0 l 439 0 z "},"":{"ha":833,"x_min":157,"x_max":857,"o":"m 293 0 l 358 410 l 157 410 l 174 514 l 375 514 l 436 900 l 158 900 l 176 1014 l 857 1014 l 839 900 l 561 900 l 500 514 l 701 514 l 685 410 l 483 410 l 418 0 l 293 0 z "},"":{"ha":833,"x_min":110,"x_max":782,"o":"m 110 332 l 126 436 l 300 436 l 333 650 l 118 650 l 136 764 l 351 764 l 385 972 l 510 972 l 476 764 l 782 764 l 764 650 l 458 650 l 425 436 l 668 436 l 651 332 l 408 332 l 388 201 q 457 114 374 114 l 665 114 l 647 0 l 439 0 q 294 53 340 0 q 263 201 247 106 l 283 332 l 110 332 z "},"":{"ha":833,"x_min":86,"x_max":808,"o":"m 353 -14 q 149 65 211 -14 q 108 278 86 143 l 225 1014 l 350 1014 l 233 278 q 253 146 219 194 q 371 97 286 97 q 503 146 454 97 q 567 278 553 194 l 683 1014 l 808 1014 l 692 278 q 583 64 669 142 q 353 -14 496 -14 m 632 1132 q 567 1147 590 1132 q 528 1181 543 1161 q 498 1215 513 1200 q 460 1229 483 1229 q 428 1217 442 1229 q 411 1181 414 1206 l 404 1139 l 314 1139 l 321 1181 q 371 1278 331 1243 q 467 1313 411 1313 q 532 1298 508 1313 q 571 1264 556 1283 q 601 1230 586 1244 q 639 1215 615 1215 q 688 1264 679 1215 l 694 1306 l 785 1306 l 778 1264 q 728 1167 768 1201 q 632 1132 689 1132 z "},"":{"ha":833,"x_min":88,"x_max":768,"o":"m 351 -14 q 153 65 219 -14 q 108 278 88 143 l 185 764 l 310 764 l 233 278 q 256 144 219 192 q 369 96 293 96 q 500 144 447 96 q 567 278 553 192 l 643 764 l 768 764 l 692 278 q 631 123 678 189 q 512 22 583 57 q 351 -14 440 -14 m 596 903 q 531 917 554 903 q 492 951 507 932 q 462 985 476 971 q 424 1000 447 1000 q 374 951 382 1000 l 368 910 l 278 910 l 283 951 q 335 1049 294 1014 q 431 1083 375 1083 q 496 1069 472 1083 q 534 1035 519 1054 q 563 1001 549 1015 q 601 986 578 986 q 651 1035 643 986 l 658 1076 l 749 1076 l 742 1035 q 692 938 732 972 q 596 903 653 903 z "},"":{"ha":833,"x_min":86,"x_max":808,"o":"m 353 -14 q 149 65 211 -14 q 108 278 86 143 l 225 1014 l 350 1014 l 233 278 q 253 146 219 194 q 371 97 286 97 q 503 146 454 97 q 567 278 553 194 l 683 1014 l 808 1014 l 692 278 q 583 64 669 142 q 353 -14 496 -14 m 318 1167 l 335 1271 l 779 1271 l 763 1167 l 318 1167 z "},"":{"ha":833,"x_min":88,"x_max":768,"o":"m 351 -14 q 153 65 219 -14 q 108 278 88 143 l 185 764 l 310 764 l 233 278 q 256 144 219 192 q 369 96 293 96 q 500 144 447 96 q 567 278 553 192 l 643 764 l 768 764 l 692 278 q 631 123 678 189 q 512 22 583 57 q 351 -14 440 -14 m 281 931 l 297 1035 l 742 1035 l 725 931 l 281 931 z "},"":{"ha":833,"x_min":86,"x_max":808,"o":"m 353 -14 q 149 65 211 -14 q 108 278 86 143 l 225 1014 l 350 1014 l 233 278 q 253 146 219 194 q 371 97 286 97 q 503 146 454 97 q 567 278 553 194 l 683 1014 l 808 1014 l 692 278 q 583 64 669 142 q 353 -14 496 -14 m 532 1118 q 380 1174 432 1118 q 342 1319 328 1229 l 439 1319 q 459 1232 431 1265 q 543 1199 488 1199 q 639 1232 600 1199 q 686 1319 678 1265 l 786 1319 q 702 1174 772 1229 q 532 1118 632 1118 z "},"":{"ha":833,"x_min":88,"x_max":768,"o":"m 351 -14 q 153 65 219 -14 q 108 278 88 143 l 185 764 l 310 764 l 233 278 q 256 144 219 192 q 369 96 293 96 q 500 144 447 96 q 567 278 553 192 l 643 764 l 768 764 l 692 278 q 631 123 678 189 q 512 22 583 57 q 351 -14 440 -14 m 496 889 q 344 944 396 889 q 306 1090 292 1000 l 403 1090 q 423 1003 394 1036 q 507 969 451 969 q 603 1003 564 969 q 650 1090 642 1036 l 750 1090 q 666 944 736 1000 q 496 889 596 889 z "},"":{"ha":833,"x_min":86,"x_max":808,"o":"m 353 -14 q 149 65 211 -14 q 108 278 86 143 l 225 1014 l 350 1014 l 233 278 q 253 146 219 194 q 371 97 286 97 q 503 146 454 97 q 567 278 553 194 l 683 1014 l 808 1014 l 692 278 q 583 64 669 142 q 353 -14 496 -14 m 524 1064 q 410 1108 449 1064 q 382 1222 372 1151 q 446 1337 393 1293 q 574 1381 499 1381 q 688 1337 649 1381 q 715 1222 726 1293 q 652 1108 706 1151 q 524 1064 599 1064 m 536 1138 q 600 1160 574 1138 q 632 1222 626 1183 q 619 1285 639 1261 q 563 1308 600 1308 q 499 1285 525 1308 q 465 1222 472 1261 q 479 1160 460 1183 q 536 1138 499 1138 z "},"":{"ha":833,"x_min":88,"x_max":768,"o":"m 351 -14 q 153 65 219 -14 q 108 278 88 143 l 185 764 l 310 764 l 233 278 q 256 144 219 192 q 369 96 293 96 q 500 144 447 96 q 567 278 553 192 l 643 764 l 768 764 l 692 278 q 631 123 678 189 q 512 22 583 57 q 351 -14 440 -14 m 489 844 q 376 888 414 844 q 347 1003 338 932 q 411 1117 358 1074 q 539 1161 464 1161 q 653 1117 614 1161 q 681 1003 692 1074 q 617 888 671 932 q 489 844 564 844 m 501 918 q 565 941 539 918 q 597 1003 592 964 q 585 1065 604 1042 q 528 1089 565 1089 q 464 1065 490 1089 q 431 1003 438 1042 q 444 941 425 964 q 501 918 464 918 z "},"":{"ha":833,"x_min":86,"x_max":885,"o":"m 353 -14 q 149 65 211 -14 q 108 278 86 143 l 225 1014 l 350 1014 l 233 278 q 253 146 219 194 q 371 97 286 97 q 503 146 454 97 q 567 278 553 194 l 683 1014 l 808 1014 l 692 278 q 583 64 669 142 q 353 -14 496 -14 m 569 1125 l 753 1319 l 885 1319 l 694 1125 l 569 1125 m 317 1125 l 500 1319 l 632 1319 l 442 1125 l 317 1125 z "},"":{"ha":833,"x_min":88,"x_max":847,"o":"m 351 -14 q 153 65 219 -14 q 108 278 88 143 l 185 764 l 310 764 l 233 278 q 256 144 219 192 q 369 96 293 96 q 500 144 447 96 q 567 278 553 192 l 643 764 l 768 764 l 692 278 q 631 123 678 189 q 512 22 583 57 q 351 -14 440 -14 m 533 896 l 717 1090 l 847 1090 l 657 896 l 533 896 m 282 896 l 465 1090 l 596 1090 l 406 896 l 282 896 z "},"":{"ha":833,"x_min":86,"x_max":808,"o":"m 421 -282 q 303 -245 344 -282 q 272 -153 263 -208 q 371 -14 281 -90 l 353 -14 q 151 64 217 -14 q 108 278 86 142 l 225 1014 l 350 1014 l 233 278 q 255 145 219 192 q 371 99 290 99 q 503 145 453 99 q 567 278 553 192 l 683 1014 l 808 1014 l 692 278 q 542 35 664 108 l 496 1 q 422 -69 444 -37 q 393 -129 399 -100 q 406 -179 389 -160 q 458 -199 424 -199 l 542 -199 l 529 -282 l 421 -282 z "},"":{"ha":833,"x_min":86,"x_max":768,"o":"m 411 -282 q 294 -245 335 -282 q 263 -153 253 -208 q 289 -90 267 -122 q 365 -14 311 -57 l 353 -14 q 151 64 217 -14 q 108 278 86 142 l 185 764 l 310 764 l 233 278 q 255 143 219 189 q 371 97 290 97 q 567 278 538 97 l 643 764 l 768 764 l 692 278 q 531 29 664 101 l 493 1 q 415 -69 440 -37 q 383 -129 389 -100 q 397 -179 379 -160 q 449 -199 414 -199 l 532 -199 l 519 -282 l 411 -282 z "},"":{"ha":833,"x_min":90,"x_max":899,"o":"m 90 0 l 135 1014 l 251 1014 l 208 264 q 201 169 206 218 q 193 90 197 119 q 213 169 201 119 q 239 264 225 218 l 453 1014 l 585 1014 l 551 264 q 548 169 550 218 q 543 90 546 119 q 562 169 550 119 q 586 264 574 218 l 785 1014 l 899 1014 l 618 0 l 461 0 l 496 764 q 501 856 499 811 q 506 926 504 901 q 487 856 499 901 q 461 764 475 811 l 247 0 l 90 0 m 282 1125 l 506 1319 l 621 1319 l 785 1125 l 650 1125 l 554 1233 l 425 1125 l 282 1125 z "},"":{"ha":833,"x_min":108,"x_max":844,"o":"m 110 0 l 108 764 l 215 764 l 206 222 q 204 156 204 192 q 203 97 204 121 q 221 156 210 121 q 242 222 232 192 l 414 764 l 536 764 l 535 222 q 535 156 535 192 q 535 97 536 121 q 553 156 542 121 q 574 222 564 192 l 739 764 l 844 764 l 596 0 l 458 0 l 460 528 l 460 667 q 442 606 454 644 q 417 528 429 567 l 247 0 l 110 0 m 246 896 l 469 1090 l 585 1090 l 749 896 l 614 896 l 518 1004 l 389 896 l 246 896 z "},"":{"ha":833,"x_min":149,"x_max":885,"o":"m 293 0 l 353 379 l 149 1014 l 275 1014 l 410 597 q 427 538 421 563 q 435 503 433 514 q 453 538 440 514 q 489 597 467 563 l 753 1014 l 885 1014 l 478 379 l 418 0 l 293 0 m 282 1125 l 506 1319 l 621 1319 l 785 1125 l 650 1125 l 554 1233 l 425 1125 l 282 1125 z "},"":{"ha":833,"x_min":97,"x_max":768,"o":"m 125 -250 l 143 -136 l 386 -136 q 517 -28 500 -136 l 533 76 l 557 215 l 554 215 q 474 97 533 139 q 326 56 414 56 q 155 126 213 56 q 117 319 97 197 l 188 764 l 313 764 l 244 333 q 267 207 231 253 q 379 161 304 161 q 510 210 457 161 q 578 347 564 258 l 643 764 l 768 764 l 642 -28 q 553 -190 626 -131 q 367 -250 479 -250 l 125 -250 m 246 896 l 469 1090 l 585 1090 l 749 896 l 614 896 l 518 1004 l 389 896 l 246 896 z "},"":{"ha":833,"x_min":149,"x_max":885,"o":"m 293 0 l 353 379 l 149 1014 l 275 1014 l 410 597 q 427 538 421 563 q 435 503 433 514 q 453 538 440 514 q 489 597 467 563 l 753 1014 l 885 1014 l 478 379 l 418 0 l 293 0 m 689 1135 q 628 1158 649 1135 q 614 1222 608 1182 q 649 1288 621 1264 q 718 1313 678 1313 q 778 1288 758 1313 q 792 1222 799 1264 q 758 1158 786 1182 q 689 1135 729 1135 m 381 1135 q 320 1158 340 1135 q 306 1222 300 1182 q 341 1288 313 1264 q 410 1313 369 1313 q 470 1288 450 1313 q 483 1222 490 1264 q 449 1158 478 1182 q 381 1135 421 1135 z "},"":{"ha":833,"x_min":57,"x_max":801,"o":"m 57 0 l 76 125 l 653 900 l 207 900 l 225 1014 l 801 1014 l 781 889 l 206 114 l 672 114 l 654 0 l 57 0 m 449 1125 l 626 1319 l 768 1319 l 583 1125 l 449 1125 z "},"":{"ha":833,"x_min":64,"x_max":753,"o":"m 64 0 l 83 125 l 589 650 l 178 650 l 196 764 l 753 764 l 733 639 l 219 114 l 665 114 l 647 0 l 64 0 m 413 896 l 590 1090 l 732 1090 l 547 896 l 413 896 z "},"":{"ha":833,"x_min":57,"x_max":801,"o":"m 57 0 l 76 125 l 653 900 l 207 900 l 225 1014 l 801 1014 l 781 889 l 206 114 l 672 114 l 654 0 l 57 0 m 535 1133 q 467 1158 489 1133 q 450 1222 444 1182 q 488 1287 457 1263 q 564 1311 518 1311 q 632 1287 610 1311 q 647 1222 654 1263 q 611 1158 642 1182 q 535 1133 581 1133 z "},"":{"ha":833,"x_min":64,"x_max":753,"o":"m 64 0 l 83 125 l 589 650 l 178 650 l 196 764 l 753 764 l 733 639 l 219 114 l 665 114 l 647 0 l 64 0 m 499 901 q 431 925 453 901 q 414 989 408 949 q 451 1055 421 1031 q 526 1079 481 1079 q 595 1055 572 1079 q 611 989 618 1031 q 575 925 606 949 q 499 901 544 901 z "},"":{"ha":833,"x_min":57,"x_max":815,"o":"m 57 0 l 76 125 l 653 900 l 207 900 l 225 1014 l 801 1014 l 781 889 l 206 114 l 672 114 l 654 0 l 57 0 m 476 1125 l 313 1319 l 447 1319 l 544 1211 l 672 1319 l 815 1319 l 592 1125 l 476 1125 z "},"":{"ha":833,"x_min":64,"x_max":781,"o":"m 64 0 l 83 125 l 589 650 l 178 650 l 196 764 l 753 764 l 733 639 l 219 114 l 665 114 l 647 0 l 64 0 m 442 896 l 278 1090 l 413 1090 l 510 982 l 638 1090 l 781 1090 l 557 896 l 442 896 z "},"":{"ha":833,"x_min":-65,"x_max":886,"o":"m -65 -250 l -47 -136 l 110 -136 q 240 -28 224 -136 l 369 792 q 458 954 385 894 q 644 1014 532 1014 l 886 1014 l 868 900 l 625 900 q 494 792 511 900 l 365 -28 q 276 -190 350 -131 q 90 -250 203 -250 l -65 -250 z "},"":{"ha":833,"x_min":88,"x_max":786,"o":"m 353 -14 q 153 66 218 -14 q 108 278 88 146 l 151 556 l 610 556 l 639 738 q 618 870 653 824 q 501 917 583 917 q 370 869 421 917 q 306 736 319 822 l 181 736 q 292 949 201 871 q 518 1028 382 1028 q 722 950 657 1028 q 764 736 786 872 l 692 278 q 632 124 678 190 q 515 22 586 58 q 353 -14 443 -14 m 369 90 q 504 139 456 90 q 567 278 553 188 l 594 458 l 263 458 l 233 278 q 252 139 219 188 q 369 90 285 90 z "},"":{"ha":833,"x_min":69,"x_max":821,"o":"m 371 -14 q 201 24 271 -14 q 101 128 132 61 q 83 285 69 196 q 162 453 100 386 q 317 538 224 519 q 204 613 240 556 q 182 758 168 671 q 244 901 196 840 q 366 994 292 961 q 533 1028 440 1028 q 695 992 629 1028 q 791 893 761 957 q 807 743 821 829 l 682 743 q 651 869 694 821 q 521 917 607 917 q 377 871 436 917 q 307 750 318 825 q 339 629 294 675 q 468 583 383 583 l 593 583 l 575 472 l 449 472 q 290 421 356 472 q 210 285 224 369 q 247 149 197 200 q 389 97 296 97 q 540 144 478 97 q 617 267 603 190 l 742 267 q 676 120 728 183 q 547 22 625 57 q 371 -14 468 -14 z "},"":{"ha":833,"x_min":-101,"x_max":843,"o":"m -101 -250 l -83 -136 l 63 -136 q 186 -94 136 -136 q 247 21 236 -51 l 314 435 l 92 435 l 110 549 l 332 549 l 375 821 q 454 963 390 913 q 619 1014 518 1014 l 843 1014 l 825 903 l 601 903 q 499 819 514 903 l 457 549 l 769 549 l 751 435 l 439 435 l 372 21 q 315 -122 360 -61 q 200 -217 269 -183 q 44 -250 131 -250 l -101 -250 z "},"":{"ha":833,"x_min":10,"x_max":753,"o":"m 10 0 l 413 751 l 410 765 l 165 653 l 183 764 l 388 858 l 351 1014 l 485 1014 l 507 914 l 753 1028 l 735 917 l 526 821 l 704 0 l 575 0 l 472 496 q 458 582 463 544 q 449 640 453 619 q 437 582 447 619 q 403 496 426 544 l 150 0 l 10 0 z "},"":{"ha":833,"x_min":83,"x_max":853,"o":"m 353 -14 q 150 64 217 -14 q 106 278 83 142 l 178 736 q 291 950 200 872 q 518 1028 382 1028 q 696 975 629 1028 q 732 1021 726 986 l 749 1125 l 853 1125 l 836 1014 q 753 900 822 933 q 767 738 781 832 l 694 278 q 581 64 672 142 q 353 -14 489 -14 m 371 99 q 504 145 453 99 q 569 278 556 192 l 642 736 q 619 869 656 822 q 500 915 582 915 q 368 869 419 915 q 303 736 317 822 l 231 278 q 253 145 217 192 q 371 99 290 99 z "},"":{"ha":833,"x_min":83,"x_max":829,"o":"m 353 -14 q 150 64 217 -14 q 106 278 83 142 l 138 486 q 251 700 160 622 q 479 778 343 778 q 642 736 578 778 l 653 736 q 708 785 701 736 l 725 889 l 829 889 l 813 778 q 778 703 806 735 q 710 657 751 671 q 728 488 743 588 l 694 278 q 581 64 672 142 q 353 -14 489 -14 m 371 97 q 504 143 453 97 q 569 278 556 189 l 601 486 q 580 621 617 575 q 461 667 543 667 q 329 621 381 667 q 263 486 278 575 l 231 278 q 253 143 217 189 q 371 97 290 97 z "},"":{"ha":833,"x_min":86,"x_max":950,"o":"m 353 -14 q 149 65 211 -14 q 108 278 86 143 l 225 1014 l 350 1014 l 233 278 q 253 146 219 194 q 371 97 286 97 q 503 146 454 97 q 567 278 553 194 l 683 1014 l 774 1014 q 811 1027 796 1014 q 829 1063 826 1040 l 846 1167 l 950 1167 l 932 1056 q 887 967 924 1001 q 794 925 850 933 l 692 278 q 583 64 669 142 q 353 -14 496 -14 z "},"":{"ha":833,"x_min":86,"x_max":918,"o":"m 108 278 l 185 764 l 310 764 l 233 278 q 256 144 219 192 q 369 96 293 96 q 500 144 447 96 q 567 278 553 192 l 643 764 l 740 764 q 797 813 789 764 l 814 917 l 918 917 l 900 806 q 855 710 890 746 q 754 674 819 674 l 692 278 q 631 123 678 189 q 512 22 583 57 q 351 -14 440 -14 q 153 65 219 -14 q 108 278 86 143 z "},"":{"ha":833,"x_min":8,"x_max":815,"o":"m 8 0 l 433 1014 l 601 1014 l 703 0 l 581 0 l 557 269 l 250 269 l 140 0 l 8 0 m 292 375 l 547 375 l 518 688 q 507 836 510 776 q 504 914 504 896 q 477 836 499 896 q 419 689 456 776 l 292 375 m 476 1125 l 313 1319 l 447 1319 l 544 1211 l 672 1319 l 815 1319 l 592 1125 l 476 1125 z "},"":{"ha":833,"x_min":85,"x_max":788,"o":"m 310 -14 q 140 63 196 -14 q 106 269 85 139 l 140 493 q 241 701 161 625 q 436 778 321 778 q 571 735 522 778 q 617 618 619 692 l 621 618 l 642 764 l 767 764 l 646 0 l 521 0 l 544 146 l 542 146 q 458 28 521 71 q 310 -14 396 -14 m 369 94 q 499 143 447 94 q 565 278 551 192 l 597 486 q 574 621 611 572 q 460 669 538 669 q 329 622 381 669 q 264 486 278 575 l 232 278 q 254 142 218 189 q 369 94 290 94 m 449 896 l 285 1090 l 419 1090 l 517 982 l 644 1090 l 788 1090 l 564 896 l 449 896 z "},"":{"ha":833,"x_min":50,"x_max":801,"o":"m 50 0 l 68 114 l 339 114 l 424 650 l 188 650 l 206 764 l 567 764 l 464 114 l 721 114 l 703 0 l 50 0 m 463 896 l 299 1090 l 433 1090 l 531 982 l 658 1090 l 801 1090 l 578 896 l 463 896 z "},"":{"ha":833,"x_min":83,"x_max":781,"o":"m 353 -14 q 150 64 217 -14 q 106 278 83 142 l 138 486 q 251 700 160 622 q 479 778 343 778 q 682 701 615 778 q 728 488 749 624 l 694 278 q 581 64 672 142 q 353 -14 489 -14 m 371 97 q 504 143 453 97 q 569 278 556 189 l 601 486 q 580 621 617 575 q 461 667 543 667 q 329 621 381 667 q 263 486 278 575 l 231 278 q 253 143 217 189 q 371 97 290 97 m 442 896 l 278 1090 l 413 1090 l 510 982 l 638 1090 l 781 1090 l 557 896 l 442 896 z "},"":{"ha":833,"x_min":88,"x_max":781,"o":"m 351 -14 q 153 65 219 -14 q 108 278 88 143 l 185 764 l 310 764 l 233 278 q 256 144 219 192 q 369 96 293 96 q 500 144 447 96 q 567 278 553 192 l 643 764 l 768 764 l 692 278 q 631 123 678 189 q 512 22 583 57 q 351 -14 440 -14 m 442 896 l 278 1090 l 413 1090 l 510 982 l 638 1090 l 781 1090 l 557 896 l 442 896 z "},"":{"ha":833,"x_min":88,"x_max":792,"o":"m 351 -14 q 153 65 219 -14 q 108 278 88 143 l 185 764 l 310 764 l 233 278 q 256 144 219 192 q 369 96 293 96 q 500 144 447 96 q 567 278 553 192 l 643 764 l 768 764 l 692 278 q 631 123 678 189 q 512 22 583 57 q 351 -14 440 -14 m 653 901 q 592 925 613 901 q 578 989 572 949 q 613 1055 585 1031 q 681 1079 640 1079 q 742 1055 721 1079 q 756 989 763 1031 q 722 925 750 949 q 653 901 693 901 m 344 901 q 284 925 304 901 q 269 989 264 949 q 304 1055 276 1031 q 372 1079 332 1079 q 433 1055 413 1079 q 447 989 454 1031 q 413 925 442 949 q 344 901 385 901 m 331 1246 l 347 1350 l 792 1350 l 775 1246 l 331 1246 z "},"":{"ha":833,"x_min":88,"x_max":782,"o":"m 351 -14 q 153 65 219 -14 q 108 278 88 143 l 185 764 l 310 764 l 233 278 q 256 144 219 192 q 369 96 293 96 q 500 144 447 96 q 567 278 553 192 l 643 764 l 768 764 l 692 278 q 631 123 678 189 q 512 22 583 57 q 351 -14 440 -14 m 653 901 q 592 925 613 901 q 578 989 572 949 q 613 1055 585 1031 q 681 1079 640 1079 q 742 1055 721 1079 q 756 989 763 1031 q 722 925 750 949 q 653 901 693 901 m 344 901 q 284 925 304 901 q 269 989 264 949 q 304 1055 276 1031 q 372 1079 332 1079 q 433 1055 413 1079 q 447 989 454 1031 q 413 925 442 949 q 344 901 385 901 m 463 1211 l 640 1406 l 782 1406 l 597 1211 l 463 1211 z "},"":{"ha":833,"x_min":88,"x_max":831,"o":"m 351 -14 q 153 65 219 -14 q 108 278 88 143 l 185 764 l 310 764 l 233 278 q 256 144 219 192 q 369 96 293 96 q 500 144 447 96 q 567 278 553 192 l 643 764 l 768 764 l 692 278 q 631 123 678 189 q 512 22 583 57 q 351 -14 440 -14 m 653 901 q 592 925 613 901 q 578 989 572 949 q 613 1055 585 1031 q 681 1079 640 1079 q 742 1055 721 1079 q 756 989 763 1031 q 722 925 750 949 q 653 901 693 901 m 344 901 q 284 925 304 901 q 269 989 264 949 q 304 1055 276 1031 q 372 1079 332 1079 q 433 1055 413 1079 q 447 989 454 1031 q 413 925 442 949 q 344 901 385 901 m 492 1211 l 328 1406 l 463 1406 l 560 1297 l 688 1406 l 831 1406 l 607 1211 l 492 1211 z "},"":{"ha":833,"x_min":88,"x_max":768,"o":"m 351 -14 q 153 65 219 -14 q 108 278 88 143 l 185 764 l 310 764 l 233 278 q 256 144 219 192 q 369 96 293 96 q 500 144 447 96 q 567 278 553 192 l 643 764 l 768 764 l 692 278 q 631 123 678 189 q 512 22 583 57 q 351 -14 440 -14 m 653 901 q 592 925 613 901 q 578 989 572 949 q 613 1055 585 1031 q 681 1079 640 1079 q 742 1055 721 1079 q 756 989 763 1031 q 722 925 750 949 q 653 901 693 901 m 344 901 q 284 925 304 901 q 269 989 264 949 q 304 1055 276 1031 q 372 1079 332 1079 q 433 1055 413 1079 q 447 989 454 1031 q 413 925 442 949 q 344 901 385 901 m 506 1211 l 376 1406 l 507 1406 l 629 1211 l 506 1211 z "},"":{"ha":833,"x_min":83,"x_max":815,"o":"m 358 -14 q 151 64 219 -14 q 106 278 83 142 l 178 736 q 292 950 200 872 q 524 1028 385 1028 q 728 949 660 1028 q 775 736 796 871 l 650 736 q 626 869 664 822 q 506 915 588 915 q 370 869 424 915 q 303 738 317 824 l 231 278 q 256 144 217 192 q 376 97 294 97 q 511 144 458 97 q 578 278 564 192 l 597 403 l 392 403 l 410 517 l 740 517 l 703 278 q 642 123 689 189 q 522 22 594 57 q 358 -14 450 -14 m 476 1125 l 313 1319 l 447 1319 l 544 1211 l 672 1319 l 815 1319 l 592 1125 l 476 1125 z "},"":{"ha":833,"x_min":96,"x_max":776,"o":"m 125 -250 l 143 -136 l 386 -136 q 517 -28 499 -136 l 532 69 l 557 208 l 554 208 q 474 92 535 135 q 326 49 413 49 q 152 126 208 49 q 117 333 96 203 l 142 494 q 243 701 163 625 q 442 778 324 778 q 576 735 529 778 q 619 618 624 692 l 619 618 l 643 764 l 767 764 l 642 -28 q 552 -190 625 -131 q 367 -250 479 -250 l 125 -250 m 381 157 q 510 206 458 157 q 576 340 563 254 l 599 486 q 576 621 614 572 q 461 669 539 669 q 331 622 382 669 q 265 486 281 575 l 243 340 q 265 204 229 251 q 381 157 301 157 m 438 896 l 274 1090 l 408 1090 l 506 982 l 633 1090 l 776 1090 l 553 896 l 438 896 z "},"":{"ha":833,"x_min":83,"x_max":789,"o":"m 421 -282 q 303 -245 344 -282 q 272 -153 263 -208 q 371 -14 281 -90 l 353 -14 q 150 64 217 -14 q 106 278 83 142 l 178 736 q 291 950 200 872 q 518 1028 382 1028 q 722 951 654 1028 q 767 738 789 874 l 694 278 q 542 35 667 110 l 496 1 q 422 -69 444 -37 q 393 -129 399 -100 q 406 -179 389 -160 q 458 -199 424 -199 l 542 -199 l 529 -282 l 421 -282 m 371 99 q 504 145 453 99 q 569 278 556 192 l 642 736 q 619 869 656 822 q 500 915 582 915 q 368 869 419 915 q 303 736 317 822 l 231 278 q 253 145 217 192 q 371 99 290 99 z "},"":{"ha":833,"x_min":83,"x_max":749,"o":"m 411 -282 q 294 -245 335 -282 q 263 -153 253 -208 q 289 -90 267 -122 q 365 -14 311 -57 l 353 -14 q 150 64 217 -14 q 106 278 83 142 l 138 486 q 251 700 160 622 q 479 778 343 778 q 682 701 615 778 q 728 488 749 624 l 694 278 q 638 128 681 192 q 531 29 596 65 l 493 1 q 415 -69 440 -37 q 383 -129 389 -100 q 397 -179 379 -160 q 449 -199 414 -199 l 532 -199 l 519 -282 l 411 -282 m 371 97 q 504 143 453 97 q 569 278 556 189 l 601 486 q 580 621 617 575 q 461 667 543 667 q 329 621 381 667 q 263 486 278 575 l 231 278 q 253 143 217 189 q 371 97 290 97 z "},"":{"ha":833,"x_min":83,"x_max":796,"o":"m 358 -14 q 151 64 219 -14 q 106 278 83 142 l 178 736 q 292 950 200 872 q 524 1028 385 1028 q 728 949 660 1028 q 775 736 796 871 l 650 736 q 626 869 664 822 q 506 915 588 915 q 370 869 424 915 q 303 738 317 824 l 231 278 q 256 144 217 192 q 376 97 294 97 q 511 144 458 97 q 578 278 564 192 l 597 403 l 392 403 l 410 517 l 740 517 l 703 278 q 642 123 689 189 q 522 22 594 57 q 358 -14 450 -14 m 449 1125 l 626 1319 l 768 1319 l 583 1125 l 449 1125 z "},"":{"ha":833,"x_min":96,"x_max":767,"o":"m 125 -250 l 143 -136 l 386 -136 q 517 -28 499 -136 l 532 69 l 557 208 l 554 208 q 474 92 535 135 q 326 49 413 49 q 152 126 208 49 q 117 333 96 203 l 142 494 q 243 701 163 625 q 442 778 324 778 q 576 735 529 778 q 619 618 624 692 l 619 618 l 643 764 l 767 764 l 642 -28 q 552 -190 625 -131 q 367 -250 479 -250 l 125 -250 m 381 157 q 510 206 458 157 q 576 340 563 254 l 599 486 q 576 621 614 572 q 461 669 539 669 q 331 622 382 669 q 265 486 281 575 l 243 340 q 265 204 229 251 q 381 157 301 157 m 408 896 l 586 1090 l 728 1090 l 543 896 l 408 896 z "},"":{"ha":833,"x_min":-19,"x_max":892,"o":"m -19 0 l 343 1014 l 892 1014 l 874 900 l 621 900 l 571 583 l 789 583 l 771 469 l 553 469 l 496 114 l 749 114 l 731 0 l 358 0 l 403 282 l 207 282 l 107 0 l -19 0 m 243 386 l 419 386 l 501 900 l 424 900 l 243 386 m 449 1125 l 626 1319 l 768 1319 l 583 1125 l 449 1125 z "},"":{"ha":833,"x_min":3,"x_max":828,"o":"m 172 -14 q 44 39 86 -14 q 17 181 3 92 l 29 264 q 108 401 43 350 q 271 451 174 451 l 374 451 l 390 554 q 382 643 400 615 q 315 671 364 671 q 249 647 276 671 q 215 583 222 624 l 97 583 q 170 724 111 671 q 313 778 229 778 q 399 760 367 778 q 447 716 432 742 q 463 667 463 690 l 468 667 q 499 716 476 690 q 558 760 521 742 q 646 778 594 778 q 784 718 740 778 q 811 556 828 658 l 779 354 l 471 354 l 449 208 q 461 125 440 157 q 524 93 482 93 q 598 117 568 93 q 635 181 628 140 l 753 181 q 674 40 739 93 q 519 -14 610 -14 q 437 4 468 -14 q 392 48 406 22 q 378 97 378 74 l 372 97 q 340 48 365 74 q 274 4 315 22 q 172 -14 232 -14 m 486 451 l 676 451 l 693 556 q 681 640 701 608 q 614 671 660 671 q 541 640 571 671 q 503 556 511 608 l 486 451 m 218 93 q 295 125 263 93 q 336 208 328 157 l 358 354 l 258 354 q 188 330 215 354 q 154 264 161 306 l 142 181 q 156 117 135 140 q 218 93 176 93 m 413 896 l 590 1090 l 732 1090 l 547 896 l 413 896 z "},"":{"ha":833,"x_min":-21,"x_max":889,"o":"m -21 -56 l 113 131 q 106 278 92 194 l 178 736 q 291 950 200 872 q 518 1028 382 1028 q 711 961 644 1028 l 769 1042 l 889 1042 l 763 867 q 767 738 778 810 l 694 278 q 581 64 672 142 q 353 -14 489 -14 q 169 43 236 -14 l 99 -56 l -21 -56 m 303 736 l 233 297 l 631 849 q 500 915 599 915 q 368 869 419 915 q 303 736 317 822 m 371 99 q 504 145 453 99 q 569 278 556 192 l 635 688 l 249 153 q 371 99 283 99 m 449 1125 l 626 1319 l 768 1319 l 583 1125 l 449 1125 z "},"":{"ha":833,"x_min":-19,"x_max":853,"o":"m -19 -42 l 118 118 q 106 278 92 185 l 138 486 q 251 700 158 622 q 479 778 343 778 q 649 732 583 778 l 724 819 l 853 819 l 711 656 q 728 488 743 586 l 694 278 q 581 64 672 142 q 353 -14 489 -14 q 178 38 243 -14 l 108 -42 l -19 -42 m 224 278 q 221 236 219 254 l 565 636 q 461 667 526 667 q 324 619 378 667 q 256 486 269 572 l 224 278 m 371 97 q 508 145 454 97 q 576 278 563 193 l 608 486 q 611 540 613 515 l 260 133 q 371 97 299 97 m 413 896 l 590 1090 l 732 1090 l 547 896 l 413 896 z "},"":{"ha":833,"x_min":63,"x_max":797,"o":"m 358 -14 q 136 60 210 -14 q 81 264 63 135 l 206 264 q 238 143 193 188 q 376 99 283 99 q 520 142 464 99 q 589 261 576 185 q 573 372 599 326 q 492 436 547 418 l 361 479 q 218 585 264 511 q 186 758 172 658 q 246 901 200 840 q 364 995 292 961 q 526 1029 436 1029 q 728 955 660 1029 q 779 757 797 881 l 654 757 q 628 874 667 832 q 508 917 590 917 q 376 878 428 917 q 314 769 325 839 q 330 658 304 706 q 413 592 356 611 l 544 547 q 685 440 640 515 q 714 264 729 365 q 652 118 701 181 q 527 21 603 56 q 358 -14 451 -14 m 150 -333 l 314 -132 l 460 -132 l 282 -333 l 150 -333 z "},"":{"ha":833,"x_min":82,"x_max":739,"o":"m 322 -14 q 143 41 204 -14 q 86 188 82 96 l 211 188 q 247 122 214 147 q 340 97 279 97 l 399 97 q 513 128 472 97 q 563 210 554 160 q 453 328 576 307 l 353 344 q 196 413 243 363 q 164 560 149 463 q 254 720 179 663 q 460 778 329 778 l 513 778 q 681 725 622 778 q 739 585 739 672 l 614 585 q 581 644 611 621 q 494 667 551 667 l 442 667 q 334 639 371 667 q 289 558 297 611 q 305 488 282 511 q 386 454 328 464 l 486 438 q 655 367 606 418 q 689 215 704 315 q 594 48 671 110 q 381 -14 517 -14 l 322 -14 m 151 -333 l 315 -132 l 461 -132 l 283 -333 l 151 -333 z "},"":{"ha":833,"x_min":150,"x_max":857,"o":"m 293 0 l 436 900 l 158 900 l 176 1014 l 857 1014 l 839 900 l 561 900 l 418 0 l 293 0 m 150 -333 l 314 -132 l 460 -132 l 282 -333 l 150 -333 z "},"":{"ha":833,"x_min":118,"x_max":782,"o":"m 439 0 q 294 53 340 0 q 263 201 247 106 l 333 650 l 118 650 l 136 764 l 351 764 l 385 972 l 510 972 l 476 764 l 782 764 l 764 650 l 458 650 l 388 201 q 457 114 374 114 l 665 114 l 647 0 l 439 0 m 233 -333 l 397 -132 l 543 -132 l 365 -333 l 233 -333 z "},"":{"ha":833,"x_min":149,"x_max":885,"o":"m 293 0 l 353 379 l 149 1014 l 275 1014 l 410 597 q 427 538 421 563 q 435 503 433 514 q 453 538 440 514 q 489 597 467 563 l 753 1014 l 885 1014 l 478 379 l 418 0 l 293 0 m 318 1167 l 335 1271 l 779 1271 l 763 1167 l 318 1167 z "},"":{"ha":833,"x_min":97,"x_max":768,"o":"m 125 -250 l 143 -136 l 386 -136 q 517 -28 500 -136 l 533 76 l 557 215 l 554 215 q 474 97 533 139 q 326 56 414 56 q 155 126 213 56 q 117 319 97 197 l 188 764 l 313 764 l 244 333 q 267 207 231 253 q 379 161 304 161 q 510 210 457 161 q 578 347 564 258 l 643 764 l 768 764 l 642 -28 q 553 -190 626 -131 q 367 -250 479 -250 l 125 -250 m 281 931 l 297 1035 l 742 1035 l 725 931 l 281 931 z "},"":{"ha":833,"x_min":17,"x_max":664,"o":"m 17 -250 l 36 -135 l 215 -135 q 356 -88 301 -135 q 425 43 411 -42 l 521 650 l 201 650 l 219 764 l 664 764 l 550 43 q 488 -112 536 -46 q 365 -214 439 -178 q 196 -250 290 -250 l 17 -250 z "},"":{"ha":833,"x_min":88,"x_max":746,"o":"m 353 -14 q 153 66 218 -14 q 108 278 88 146 l 129 413 l 590 413 l 601 486 q 583 624 617 576 q 463 672 549 672 q 282 569 319 672 l 157 569 q 272 722 185 665 q 479 778 358 778 q 681 698 615 778 q 724 486 746 618 l 692 278 q 632 124 678 190 q 515 22 586 58 q 353 -14 443 -14 m 369 90 q 506 139 456 90 q 569 278 556 188 l 575 318 l 238 318 l 231 278 q 251 139 217 188 q 369 90 285 90 z "},"":{"ha":833,"x_min":258,"x_max":618,"o":"m 258 569 l 438 1001 l 618 1001 l 369 569 l 258 569 z "},"":{"ha":833,"x_min":106,"x_max":847,"o":"m 488 568 l 667 1000 l 847 1000 l 599 568 l 488 568 m 106 568 l 285 1000 l 465 1000 l 217 568 l 106 568 z "},"":{"ha":833,"x_min":271,"x_max":631,"o":"m 271 646 l 450 1078 l 631 1078 l 382 646 l 271 646 z "},"":{"ha":833,"x_min":247,"x_max":750,"o":"m 247 896 l 471 1090 l 586 1090 l 750 896 l 615 896 l 519 1004 l 390 896 l 247 896 z "},"":{"ha":833,"x_min":278,"x_max":781,"o":"m 442 896 l 278 1090 l 413 1090 l 510 982 l 638 1090 l 781 1090 l 557 896 l 442 896 z "},"":{"ha":833,"x_min":281,"x_max":742,"o":"m 281 931 l 297 1035 l 742 1035 l 725 931 l 281 931 z "},"":{"ha":833,"x_min":293,"x_max":751,"o":"m 497 889 q 345 944 397 889 q 307 1090 293 1000 l 404 1090 q 424 1003 396 1036 q 508 969 453 969 q 604 1003 565 969 q 651 1090 643 1036 l 751 1090 q 667 944 738 1000 q 497 889 597 889 z "},"":{"ha":833,"x_min":408,"x_max":618,"o":"m 499 901 q 431 925 453 901 q 414 989 408 949 q 451 1055 421 1031 q 526 1079 481 1079 q 595 1055 572 1079 q 611 989 618 1031 q 575 925 606 949 q 499 901 544 901 z "},"":{"ha":833,"x_min":339,"x_max":693,"o":"m 490 844 q 377 888 415 844 q 349 1003 339 932 q 413 1117 360 1074 q 540 1161 465 1161 q 654 1117 615 1161 q 682 1003 693 1074 q 619 888 672 932 q 490 844 565 844 m 503 918 q 567 941 540 918 q 599 1003 593 964 q 586 1065 606 1042 q 529 1089 567 1089 q 465 1065 492 1089 q 432 1003 439 1042 q 446 941 426 964 q 503 918 465 918 z "},"":{"ha":833,"x_min":163,"x_max":442,"o":"m 321 -282 q 203 -245 244 -282 q 172 -153 163 -208 q 212 -72 179 -112 q 317 14 244 -32 l 421 14 l 403 1 q 324 -69 350 -37 q 293 -129 299 -100 q 306 -179 289 -160 q 358 -199 324 -199 l 442 -199 l 429 -282 l 321 -282 z "},"":{"ha":833,"x_min":278,"x_max":749,"o":"m 596 903 q 531 917 554 903 q 492 951 507 932 q 462 985 476 971 q 424 1000 447 1000 q 374 951 382 1000 l 368 910 l 278 910 l 283 951 q 335 1049 294 1014 q 431 1083 375 1083 q 496 1069 472 1083 q 534 1035 519 1054 q 563 1001 549 1015 q 601 986 578 986 q 651 1035 643 986 l 658 1076 l 749 1076 l 742 1035 q 692 938 732 972 q 596 903 653 903 z "},"":{"ha":833,"x_min":282,"x_max":847,"o":"m 533 896 l 717 1090 l 847 1090 l 657 896 l 533 896 m 282 896 l 465 1090 l 596 1090 l 406 896 l 282 896 z "},"":{"ha":833,"x_min":147,"x_max":501,"o":"m 301 -347 q 187 -309 226 -347 q 157 -208 147 -271 q 219 -108 168 -146 q 346 -69 271 -69 q 461 -108 421 -69 q 490 -208 501 -146 q 428 -309 481 -271 q 301 -347 376 -347 m 311 -276 q 376 -258 350 -276 q 407 -208 403 -239 q 394 -156 414 -172 q 333 -139 374 -139 q 272 -158 297 -139 q 240 -208 246 -176 q 256 -258 236 -239 q 311 -276 275 -276 z "},"":{"ha":833,"x_min":194,"x_max":639,"o":"m 514 -292 q 446 -277 472 -292 q 401 -243 419 -262 q 367 -209 383 -224 q 326 -194 350 -194 q 285 -243 285 -194 l 285 -285 l 194 -285 l 194 -243 q 229 -146 194 -181 q 319 -111 264 -111 q 388 -126 361 -111 q 432 -160 414 -140 q 467 -194 450 -179 q 507 -208 483 -208 q 549 -160 549 -208 l 549 -118 l 639 -118 l 639 -160 q 605 -257 639 -222 q 514 -292 571 -292 z "},"":{"ha":0,"x_min":-487,"x_max":-235,"o":"m -358 896 l -487 1090 l -357 1090 l -235 896 l -358 896 z "},"":{"ha":0,"x_min":-436,"x_max":-117,"o":"m -436 896 l -258 1090 l -117 1090 l -301 896 l -436 896 z "},"":{"ha":0,"x_min":-586,"x_max":-83,"o":"m -586 896 l -362 1090 l -247 1090 l -83 896 l -218 896 l -314 1004 l -443 896 l -586 896 z "},"":{"ha":0,"x_min":-556,"x_max":-85,"o":"m -237 903 q -303 917 -279 903 q -342 951 -326 932 q -372 985 -357 971 q -410 1000 -386 1000 q -460 951 -451 1000 l -465 910 l -556 910 l -550 951 q -499 1049 -539 1014 q -403 1083 -458 1083 q -337 1069 -361 1083 q -299 1035 -314 1054 q -270 1001 -285 1015 q -232 986 -256 986 q -182 1035 -190 986 l -175 1076 l -85 1076 l -92 1035 q -141 938 -101 972 q -237 903 -181 903 z "},"":{"ha":0,"x_min":-553,"x_max":-92,"o":"m -553 931 l -536 1035 l -92 1035 l -108 931 l -553 931 z "},"":{"ha":0,"x_min":-540,"x_max":-82,"o":"m -336 889 q -488 944 -436 889 q -526 1090 -540 1000 l -429 1090 q -409 1003 -437 1036 q -325 969 -381 969 q -229 1003 -268 969 q -182 1090 -190 1036 l -82 1090 q -166 944 -96 1000 q -336 889 -236 889 z "},"":{"ha":0,"x_min":-425,"x_max":-215,"o":"m -335 901 q -403 925 -381 901 q -419 989 -425 949 q -383 1055 -412 1031 q -307 1079 -353 1079 q -238 1055 -261 1079 q -222 989 -215 1031 q -258 925 -228 949 q -335 901 -289 901 z "},"":{"ha":0,"x_min":-569,"x_max":-71,"o":"m -181 901 q -241 925 -221 901 q -256 989 -261 949 q -221 1055 -249 1031 q -153 1079 -193 1079 q -92 1055 -112 1079 q -78 989 -71 1031 q -112 925 -83 949 q -181 901 -140 901 m -489 901 q -549 925 -529 901 q -564 989 -569 949 q -529 1055 -557 1031 q -461 1079 -501 1079 q -400 1055 -421 1079 q -386 989 -379 1031 q -420 925 -392 949 q -489 901 -449 901 z "},"":{"ha":0,"x_min":-436,"x_max":-167,"o":"m -403 896 l -319 983 q -293 1028 -296 1010 q -328 1056 -289 1056 l -436 1056 l -421 1146 l -275 1146 q -194 1119 -222 1146 q -174 1043 -167 1092 q -186 1003 -176 1022 q -210 968 -196 983 l -276 896 l -403 896 z "},"":{"ha":0,"x_min":-494,"x_max":-140,"o":"m -343 844 q -456 888 -418 844 q -485 1003 -494 932 q -421 1117 -474 1074 q -293 1161 -368 1161 q -179 1117 -218 1161 q -151 1003 -140 1074 q -215 888 -161 932 q -343 844 -268 844 m -331 918 q -267 941 -293 918 q -235 1003 -240 964 q -247 1065 -228 1042 q -304 1089 -267 1089 q -368 1065 -342 1089 q -401 1003 -394 1042 q -387 941 -407 964 q -331 918 -368 918 z "},"":{"ha":0,"x_min":-551,"x_max":14,"o":"m -300 896 l -117 1090 l 14 1090 l -176 896 l -300 896 m -551 896 l -368 1090 l -237 1090 l -428 896 l -551 896 z "},"":{"ha":0,"x_min":-556,"x_max":-53,"o":"m -392 896 l -556 1090 l -421 1090 l -324 982 l -196 1090 l -53 1090 l -276 896 l -392 896 z "},"":{"ha":0,"x_min":-618,"x_max":-128,"o":"m -372 896 l -489 896 l -618 1090 l -494 1090 l -372 896 m -128 896 l -244 896 l -374 1090 l -250 1090 l -128 896 z "},"":{"ha":0,"x_min":-457,"x_max":-129,"o":"m -129 1222 l -292 896 l -457 896 l -225 1222 l -129 1222 z "},"":{"ha":0,"x_min":-276,"x_max":-49,"o":"m -276 674 l -262 764 l -226 764 q -169 813 -178 764 l -153 917 l -49 917 l -67 806 q -122 710 -76 746 q -233 674 -168 674 l -276 674 z "},"":{"ha":0,"x_min":-614,"x_max":-404,"o":"m -524 -296 q -592 -272 -569 -296 q -608 -208 -614 -249 q -571 -142 -601 -167 q -494 -118 -540 -118 q -426 -142 -449 -118 q -411 -208 -404 -167 q -447 -272 -417 -249 q -524 -296 -478 -296 z "},"":{"ha":0,"x_min":-686,"x_max":-332,"o":"m -532 -347 q -647 -309 -607 -347 q -676 -208 -686 -271 q -614 -108 -665 -146 q -487 -69 -562 -69 q -372 -108 -412 -69 q -343 -208 -332 -146 q -405 -309 -353 -271 q -532 -347 -457 -347 m -522 -276 q -457 -258 -483 -276 q -426 -208 -431 -239 q -440 -156 -419 -172 q -500 -139 -460 -139 q -562 -158 -536 -139 q -593 -208 -587 -176 q -578 -258 -597 -239 q -522 -276 -558 -276 z "},"":{"ha":0,"x_min":-683,"x_max":-374,"o":"m -683 -333 l -519 -132 l -374 -132 l -551 -333 l -683 -333 z "},"":{"ha":0,"x_min":-654,"x_max":-346,"o":"m -654 -282 l -642 -206 l -544 -206 q -493 -190 -514 -206 q -469 -156 -472 -174 q -501 -114 -465 -132 q -606 -96 -536 -96 l -536 36 l -457 36 l -500 -49 q -427 -67 -464 -53 q -368 -106 -390 -81 q -351 -167 -346 -131 q -410 -248 -358 -214 q -536 -282 -461 -282 l -654 -282 z "},"":{"ha":0,"x_min":-671,"x_max":-392,"o":"m -512 -282 q -630 -245 -589 -282 q -661 -153 -671 -208 q -622 -72 -654 -112 q -517 14 -589 -32 l -412 14 l -431 1 q -509 -69 -483 -37 q -540 -129 -535 -100 q -527 -179 -544 -160 q -475 -199 -510 -199 l -392 -199 l -404 -282 l -512 -282 z "},"":{"ha":0,"x_min":-872,"x_max":60,"o":"m -872 403 l -857 500 l 60 500 l 44 403 l -872 403 z "},"":{"ha":0,"x_min":-851,"x_max":21,"o":"m -851 -42 l -110 819 l 21 819 l -722 -42 l -851 -42 z "},"":{"ha":0,"x_min":-765,"x_max":-68,"o":"m -765 -153 l -160 917 l -68 917 l -674 -153 l -765 -153 z "},"":{"ha":833,"x_min":258,"x_max":618,"o":"m 258 569 l 438 1001 l 618 1001 l 369 569 l 258 569 z "},"":{"ha":833,"x_min":131,"x_max":496,"o":"m 131 -222 l 310 210 l 496 210 l 247 -222 l 131 -222 z "},"":{"ha":833,"x_min":140,"x_max":588,"o":"m 432 569 q 362 599 386 569 q 344 674 338 628 q 386 748 351 718 q 465 778 421 778 l 493 778 q 563 748 538 778 q 581 674 588 718 q 540 599 574 628 q 460 569 506 569 l 432 569 m 140 -222 l 319 210 l 500 210 l 251 -222 l 140 -222 z "},"":{"ha":833,"x_min":375,"x_max":688,"o":"m 375 896 l 553 1090 l 688 1090 l 503 896 l 375 896 z "},"":{"ha":833,"x_min":264,"x_max":763,"o":"m 468 1068 l 606 1250 l 717 1250 l 565 1068 l 468 1068 m 653 901 q 592 925 613 901 q 578 989 572 949 q 613 1055 585 1031 q 681 1079 640 1079 q 742 1055 721 1079 q 756 989 763 1031 q 722 925 750 949 q 653 901 693 901 m 344 901 q 284 925 304 901 q 269 989 264 949 q 304 1055 276 1031 q 372 1079 332 1079 q 433 1055 413 1079 q 447 989 454 1031 q 413 925 442 949 q 344 901 385 901 z "},"":{"ha":833,"x_min":8,"x_max":703,"o":"m 8 0 l 433 1014 l 601 1014 l 703 0 l 581 0 l 557 269 l 250 269 l 140 0 l 8 0 m 292 375 l 547 375 l 518 688 q 507 836 510 776 q 504 914 504 896 q 477 836 499 896 q 419 689 456 776 l 292 375 m 78 792 l 192 1014 l 322 1014 l 197 792 l 78 792 z "},"":{"ha":833,"x_min":308,"x_max":556,"o":"m 414 368 q 335 399 361 368 q 317 481 308 429 q 362 567 325 535 q 451 599 399 599 q 530 567 504 599 q 547 481 556 535 q 503 399 539 429 q 414 368 467 368 z "},"":{"ha":833,"x_min":-96,"x_max":822,"o":"m 78 0 l 239 1014 l 822 1014 l 804 900 l 344 900 l 294 586 l 706 586 l 688 474 l 276 474 l 219 114 l 679 114 l 661 0 l 78 0 m -96 792 l 18 1014 l 149 1014 l 24 792 l -96 792 z "},"":{"ha":833,"x_min":-96,"x_max":804,"o":"m -96 792 l 18 1014 l 149 1014 l 24 792 l -96 792 m 68 0 l 229 1014 l 354 1014 l 285 581 l 610 581 l 679 1014 l 804 1014 l 643 0 l 518 0 l 592 467 l 267 467 l 193 0 l 68 0 z "},"":{"ha":833,"x_min":-96,"x_max":788,"o":"m -96 792 l 18 1014 l 149 1014 l 24 792 l -96 792 m 85 0 l 103 114 l 310 114 l 435 900 l 228 900 l 246 1014 l 788 1014 l 769 900 l 563 900 l 438 114 l 644 114 l 626 0 l 85 0 z "},"":{"ha":833,"x_min":-47,"x_max":788,"o":"m -47 792 l 67 1014 l 197 1014 l 72 792 l -47 792 m 353 -14 q 150 64 217 -14 q 106 278 83 142 l 178 736 q 291 950 200 872 q 518 1028 382 1028 q 721 951 654 1028 q 767 738 788 874 l 694 278 q 581 64 672 142 q 353 -14 489 -14 m 371 99 q 504 145 453 99 q 569 278 556 192 l 642 736 q 619 869 656 822 q 500 915 582 915 q 368 869 419 915 q 303 736 317 822 l 231 278 q 253 145 217 192 q 371 99 290 99 z "},"":{"ha":833,"x_min":-110,"x_max":885,"o":"m -110 792 l 4 1014 l 135 1014 l 10 792 l -110 792 m 293 0 l 353 379 l 149 1014 l 275 1014 l 410 597 q 427 538 421 563 q 435 503 433 514 q 453 538 440 514 q 489 597 467 563 l 753 1014 l 885 1014 l 478 379 l 418 0 l 293 0 z "},"":{"ha":833,"x_min":-47,"x_max":799,"o":"m 8 0 l 26 111 l 228 111 l 228 118 q 161 147 194 122 q 110 219 128 171 q 104 340 93 267 l 165 729 q 228 888 181 821 q 350 991 275 954 q 518 1028 425 1028 q 728 947 658 1028 q 776 729 799 865 l 715 340 q 671 219 704 267 q 597 148 638 172 q 521 119 556 124 l 519 111 l 722 111 l 704 0 l 411 0 l 435 153 q 533 203 490 153 q 589 333 576 254 l 651 729 q 624 866 665 815 q 501 917 583 917 q 362 866 419 917 q 290 729 304 815 l 228 333 q 242 203 215 254 q 324 153 268 153 l 300 0 l 8 0 m -47 792 l 67 1014 l 197 1014 l 72 792 l -47 792 z "},"":{"ha":833,"x_min":118,"x_max":763,"o":"m 515 0 q 363 59 414 0 q 328 215 313 118 l 396 650 l 118 650 l 136 764 l 539 764 l 453 215 q 467 141 444 168 q 533 114 489 114 l 721 114 l 703 0 l 515 0 m 468 1068 l 606 1250 l 717 1250 l 565 1068 l 468 1068 m 653 901 q 592 925 613 901 q 578 989 572 949 q 613 1055 585 1031 q 681 1079 640 1079 q 742 1055 721 1079 q 756 989 763 1031 q 722 925 750 949 q 653 901 693 901 m 344 901 q 284 925 304 901 q 269 989 264 949 q 304 1055 276 1031 q 372 1079 332 1079 q 433 1055 413 1079 q 447 989 454 1031 q 413 925 442 949 q 344 901 385 901 z "},"":{"ha":833,"x_min":8,"x_max":703,"o":"m 8 0 l 433 1014 l 601 1014 l 703 0 l 581 0 l 557 269 l 250 269 l 140 0 l 8 0 m 292 375 l 547 375 l 518 688 q 507 836 510 776 q 504 914 504 896 q 477 836 499 896 q 419 689 456 776 l 292 375 z "},"":{"ha":833,"x_min":68,"x_max":790,"o":"m 68 0 l 229 1014 l 517 1014 q 723 944 656 1014 q 771 751 790 875 q 709 612 758 668 q 583 535 660 556 q 699 446 663 513 q 719 282 735 379 q 607 76 699 151 q 376 0 515 0 l 68 0 m 282 582 l 446 582 q 580 625 526 582 q 646 742 633 668 q 618 858 657 815 q 499 901 579 901 l 333 901 l 282 582 m 208 113 l 381 113 q 526 159 468 113 q 597 286 583 206 q 567 422 610 369 q 438 474 525 474 l 265 474 l 208 113 z "},"":{"ha":833,"x_min":119,"x_max":871,"o":"m 119 0 l 281 1014 l 871 1014 l 853 900 l 388 900 l 244 0 l 119 0 z "},"":{"ha":833,"x_min":8,"x_max":703,"o":"m 8 0 l 433 1014 l 601 1014 l 703 0 l 8 0 m 183 111 l 569 111 l 517 688 q 508 823 511 760 q 503 917 504 886 q 469 824 492 886 q 418 689 447 761 l 183 111 z "},"":{"ha":833,"x_min":78,"x_max":822,"o":"m 78 0 l 239 1014 l 822 1014 l 804 900 l 344 900 l 294 586 l 706 586 l 688 474 l 276 474 l 219 114 l 679 114 l 661 0 l 78 0 z "},"":{"ha":833,"x_min":57,"x_max":801,"o":"m 57 0 l 76 125 l 653 900 l 207 900 l 225 1014 l 801 1014 l 781 889 l 206 114 l 672 114 l 654 0 l 57 0 z "},"":{"ha":833,"x_min":68,"x_max":804,"o":"m 68 0 l 229 1014 l 354 1014 l 285 581 l 610 581 l 679 1014 l 804 1014 l 643 0 l 518 0 l 592 467 l 267 467 l 193 0 l 68 0 z "},"":{"ha":833,"x_min":83,"x_max":789,"o":"m 353 -14 q 150 64 217 -14 q 106 278 83 142 l 178 736 q 291 950 200 872 q 518 1028 382 1028 q 722 951 654 1028 q 767 738 789 874 l 694 278 q 581 64 672 142 q 353 -14 489 -14 m 371 99 q 504 145 453 99 q 569 278 556 192 l 642 736 q 619 869 656 822 q 500 915 582 915 q 368 869 419 915 q 303 736 317 822 l 231 278 q 253 145 217 192 q 371 99 290 99 m 301 451 l 319 565 l 569 565 l 551 451 l 301 451 z "},"":{"ha":833,"x_min":85,"x_max":788,"o":"m 85 0 l 103 114 l 310 114 l 435 900 l 228 900 l 246 1014 l 788 1014 l 769 900 l 563 900 l 438 114 l 644 114 l 626 0 l 85 0 z "},"":{"ha":833,"x_min":67,"x_max":864,"o":"m 67 0 l 228 1014 l 353 1014 l 283 579 l 431 579 l 725 1014 l 864 1014 l 535 522 l 717 0 l 578 0 l 417 469 l 267 469 l 192 0 l 67 0 z "},"":{"ha":833,"x_min":8,"x_max":703,"o":"m 8 0 l 433 1014 l 601 1014 l 703 0 l 581 0 l 518 688 q 506 851 508 786 q 503 917 503 917 q 481 852 503 917 q 419 689 460 788 l 140 0 l 8 0 z "},"":{"ha":833,"x_min":44,"x_max":828,"o":"m 44 0 l 206 1014 l 367 1014 l 419 686 q 433 598 426 642 q 442 531 439 554 q 469 598 451 554 q 508 688 488 642 l 661 1014 l 828 1014 l 667 0 l 544 0 l 603 368 q 630 511 614 433 q 665 669 646 589 q 703 822 685 749 q 738 951 722 896 l 494 444 l 363 444 l 276 951 q 270 826 275 897 q 259 674 265 754 q 244 515 253 594 q 225 368 236 436 l 167 0 l 44 0 z "},"":{"ha":833,"x_min":64,"x_max":808,"o":"m 64 0 l 225 1014 l 390 1014 l 564 146 q 571 231 567 181 q 582 338 575 282 q 597 444 589 394 l 688 1014 l 808 1014 l 647 0 l 482 0 l 310 868 q 302 784 307 835 q 290 677 297 733 q 275 569 283 621 l 185 0 l 64 0 z "},"":{"ha":833,"x_min":50,"x_max":822,"o":"m 193 900 l 211 1014 l 822 1014 l 804 900 l 193 900 m 164 457 l 182 571 l 710 571 l 692 457 l 164 457 m 50 0 l 68 114 l 679 114 l 661 0 l 50 0 z "},"":{"ha":833,"x_min":83,"x_max":788,"o":"m 353 -14 q 150 64 217 -14 q 106 278 83 142 l 178 736 q 291 950 200 872 q 518 1028 382 1028 q 721 951 654 1028 q 767 738 788 874 l 694 278 q 581 64 672 142 q 353 -14 489 -14 m 371 99 q 504 145 453 99 q 569 278 556 192 l 642 736 q 619 869 656 822 q 500 915 582 915 q 368 869 419 915 q 303 736 317 822 l 231 278 q 253 145 217 192 q 371 99 290 99 z "},"":{"ha":833,"x_min":69,"x_max":803,"o":"m 69 0 l 231 1014 l 803 1014 l 642 0 l 517 0 l 660 900 l 338 900 l 194 0 l 69 0 z "},"":{"ha":833,"x_min":67,"x_max":838,"o":"m 67 0 l 228 1014 l 554 1014 q 767 933 696 1014 q 817 715 838 851 q 753 558 803 625 q 629 453 704 490 q 460 417 554 417 l 258 417 l 192 0 l 67 0 m 275 529 l 476 529 q 616 580 558 529 q 688 715 674 631 q 660 851 701 801 q 536 901 618 901 l 335 901 l 275 529 z "},"":{"ha":833,"x_min":43,"x_max":864,"o":"m 43 0 l 61 111 l 446 528 l 186 903 l 204 1014 l 864 1014 l 846 903 l 329 903 l 599 521 l 214 111 l 721 111 l 703 0 l 43 0 z "},"":{"ha":833,"x_min":158,"x_max":857,"o":"m 293 0 l 436 900 l 158 900 l 176 1014 l 857 1014 l 839 900 l 561 900 l 418 0 l 293 0 z "},"":{"ha":833,"x_min":149,"x_max":885,"o":"m 293 0 l 353 379 l 149 1014 l 275 1014 l 410 597 q 427 538 421 563 q 435 503 433 514 q 453 538 440 514 q 489 597 467 563 l 753 1014 l 885 1014 l 478 379 l 418 0 l 293 0 z "},"":{"ha":833,"x_min":49,"x_max":826,"o":"m 292 -35 l 307 63 q 114 142 179 63 q 69 351 49 221 l 121 676 q 181 833 136 767 q 296 935 226 899 q 451 972 365 972 l 467 1069 l 583 1069 l 568 972 q 762 892 697 972 q 804 676 826 811 l 753 351 q 693 199 739 264 q 578 99 647 135 q 424 63 510 63 l 408 -35 l 292 -35 m 324 168 l 435 867 q 305 816 357 867 q 238 676 253 765 l 186 351 q 209 217 172 267 q 324 168 246 168 m 440 168 q 570 217 518 168 q 636 351 622 267 l 688 676 q 666 816 703 765 q 551 867 629 867 l 440 168 z "},"":{"ha":833,"x_min":-6,"x_max":863,"o":"m -6 0 l 367 517 l 171 1014 l 310 1014 l 419 714 q 438 663 428 690 q 454 621 449 636 q 480 663 464 636 q 513 714 496 690 l 719 1014 l 863 1014 l 510 519 l 717 0 l 579 0 l 456 322 q 437 373 446 346 q 424 417 428 400 q 397 374 414 400 q 364 324 379 347 l 139 0 l -6 0 z "},"":{"ha":833,"x_min":76,"x_max":858,"o":"m 297 0 l 335 236 q 142 315 207 236 q 97 525 76 394 l 175 1014 l 292 1014 l 214 525 q 237 391 200 440 q 351 342 274 342 l 458 1014 l 575 1014 l 468 342 q 598 391 546 342 q 664 525 650 440 l 742 1014 l 858 1014 l 781 525 q 721 373 767 438 q 606 272 675 308 q 451 236 538 236 l 414 0 l 297 0 z "},"":{"ha":833,"x_min":8,"x_max":799,"o":"m 8 0 l 26 111 l 228 111 l 228 118 q 161 147 194 122 q 110 219 128 171 q 104 340 93 267 l 165 729 q 228 888 181 821 q 350 991 275 954 q 518 1028 425 1028 q 728 947 658 1028 q 776 729 799 865 l 715 340 q 671 219 704 267 q 597 148 638 172 q 521 119 556 124 l 519 111 l 722 111 l 704 0 l 411 0 l 435 153 q 533 203 490 153 q 589 333 576 254 l 651 729 q 624 866 665 815 q 501 917 583 917 q 362 866 419 917 q 290 729 304 815 l 228 333 q 242 203 215 254 q 324 153 268 153 l 300 0 l 8 0 z "},"":{"ha":833,"x_min":85,"x_max":799,"o":"m 85 0 l 103 114 l 310 114 l 435 900 l 228 900 l 246 1014 l 788 1014 l 769 900 l 563 900 l 438 114 l 644 114 l 626 0 l 85 0 m 689 1135 q 628 1158 649 1135 q 614 1222 608 1182 q 649 1288 621 1264 q 718 1313 678 1313 q 778 1288 758 1313 q 792 1222 799 1264 q 758 1158 786 1182 q 689 1135 729 1135 m 381 1135 q 320 1158 340 1135 q 306 1222 300 1182 q 341 1288 313 1264 q 410 1313 369 1313 q 470 1288 450 1313 q 483 1222 490 1264 q 449 1158 478 1182 q 381 1135 421 1135 z "},"":{"ha":833,"x_min":149,"x_max":885,"o":"m 293 0 l 353 379 l 149 1014 l 275 1014 l 410 597 q 427 538 421 563 q 435 503 433 514 q 453 538 440 514 q 489 597 467 563 l 753 1014 l 885 1014 l 478 379 l 418 0 l 293 0 m 689 1135 q 628 1158 649 1135 q 614 1222 608 1182 q 649 1288 621 1264 q 718 1313 678 1313 q 778 1288 758 1313 q 792 1222 799 1264 q 758 1158 786 1182 q 689 1135 729 1135 m 381 1135 q 320 1158 340 1135 q 306 1222 300 1182 q 341 1288 313 1264 q 410 1313 369 1313 q 470 1288 450 1313 q 483 1222 490 1264 q 449 1158 478 1182 q 381 1135 421 1135 z "},"":{"ha":833,"x_min":85,"x_max":767,"o":"m 408 896 l 586 1090 l 721 1090 l 536 896 l 408 896 m 310 -14 q 140 63 196 -14 q 106 269 85 139 l 140 493 q 241 701 161 625 q 436 778 321 778 q 571 735 522 778 q 617 618 619 692 l 621 618 l 642 764 l 767 764 l 646 0 l 521 0 l 544 146 l 542 146 q 458 28 521 71 q 310 -14 396 -14 m 369 94 q 499 143 447 94 q 565 278 551 192 l 597 486 q 574 621 611 572 q 460 669 538 669 q 329 622 381 669 q 264 486 278 575 l 232 278 q 254 142 218 189 q 369 94 290 94 z "},"":{"ha":833,"x_min":69,"x_max":760,"o":"m 392 -10 l 326 -10 q 134 50 199 -10 q 85 211 69 110 q 156 344 99 293 q 303 401 214 396 l 303 407 q 182 456 222 413 q 153 574 142 500 q 248 719 168 664 q 450 774 328 774 l 519 774 q 697 721 633 774 q 758 576 760 668 l 626 576 q 593 640 625 617 q 503 663 561 663 l 433 663 q 331 634 372 663 q 283 557 290 606 q 306 479 275 508 q 396 450 336 450 l 553 450 l 536 342 l 382 342 q 272 309 315 342 q 218 221 228 276 q 244 133 210 165 q 344 101 278 101 l 410 101 q 520 124 475 101 q 581 181 565 146 l 713 181 q 598 42 683 93 q 392 -10 513 -10 m 394 896 l 572 1090 l 707 1090 l 522 896 l 394 896 z "},"":{"ha":833,"x_min":67,"x_max":749,"o":"m 67 0 l 188 764 l 313 764 l 289 618 l 292 618 q 372 736 313 694 q 519 778 432 778 q 692 707 635 778 q 729 514 749 636 l 607 -250 l 482 -250 l 601 500 q 578 627 614 582 q 467 672 542 672 q 336 624 389 672 q 268 486 283 575 l 192 0 l 67 0 m 424 896 l 601 1090 l 736 1090 l 551 896 l 424 896 z "},"":{"ha":833,"x_min":118,"x_max":731,"o":"m 515 0 q 363 59 414 0 q 328 215 313 118 l 396 650 l 118 650 l 136 764 l 539 764 l 453 215 q 467 141 444 168 q 533 114 489 114 l 721 114 l 703 0 l 515 0 m 418 896 l 596 1090 l 731 1090 l 546 896 l 418 896 z "},"":{"ha":833,"x_min":88,"x_max":768,"o":"m 351 -14 q 153 65 219 -14 q 108 278 88 143 l 185 764 l 310 764 l 233 278 q 256 144 219 192 q 369 96 293 96 q 500 144 447 96 q 567 278 553 192 l 643 764 l 768 764 l 692 278 q 631 123 678 189 q 512 22 583 57 q 351 -14 440 -14 m 468 1068 l 606 1250 l 717 1250 l 565 1068 l 468 1068 m 653 901 q 592 925 613 901 q 578 989 572 949 q 613 1055 585 1031 q 681 1079 640 1079 q 742 1055 721 1079 q 756 989 763 1031 q 722 925 750 949 q 653 901 693 901 m 344 901 q 284 925 304 901 q 269 989 264 949 q 304 1055 276 1031 q 372 1079 332 1079 q 433 1055 413 1079 q 447 989 454 1031 q 413 925 442 949 q 344 901 385 901 z "},"":{"ha":833,"x_min":85,"x_max":767,"o":"m 310 -14 q 140 63 196 -14 q 106 269 85 139 l 140 493 q 241 701 161 625 q 436 778 321 778 q 571 735 522 778 q 617 618 619 692 l 621 618 l 642 764 l 767 764 l 646 0 l 521 0 l 544 146 l 542 146 q 458 28 521 71 q 310 -14 396 -14 m 369 94 q 499 143 447 94 q 565 278 551 192 l 597 486 q 574 621 611 572 q 460 669 538 669 q 329 622 381 669 q 264 486 278 575 l 232 278 q 254 142 218 189 q 369 94 290 94 z "},"":{"ha":833,"x_min":26,"x_max":797,"o":"m 26 -250 l 185 742 q 244 892 199 828 q 362 992 290 957 q 522 1028 433 1028 q 726 961 656 1028 q 778 769 797 894 q 711 625 764 685 q 579 543 658 565 q 699 455 661 521 q 721 289 736 389 q 660 139 707 204 q 540 37 613 74 q 376 0 467 0 l 192 0 l 151 -250 l 26 -250 m 210 114 l 381 114 q 520 163 464 114 q 589 293 576 213 q 562 419 603 374 q 436 465 521 465 l 375 465 l 392 574 l 450 574 q 580 622 528 574 q 643 744 632 671 q 618 869 656 825 q 504 914 581 914 q 375 868 428 914 q 310 742 322 822 l 210 114 z "},"":{"ha":833,"x_min":144,"x_max":811,"o":"m 254 -250 l 294 0 l 144 764 l 272 764 l 364 257 q 376 173 374 210 q 381 113 379 136 q 398 173 388 136 q 431 257 408 210 l 679 764 l 811 764 l 419 0 l 379 -250 l 254 -250 z "},"":{"ha":833,"x_min":88,"x_max":768,"o":"m 354 -14 q 153 66 219 -14 q 110 285 88 146 l 129 400 q 215 599 149 524 q 372 675 282 675 q 449 658 419 675 q 489 631 478 642 l 496 636 l 235 910 l 251 1014 l 768 1014 l 751 910 l 389 910 l 624 668 q 703 547 681 613 q 713 404 725 482 l 693 285 q 581 66 671 146 q 354 -14 490 -14 m 372 97 q 503 147 451 97 q 568 285 554 196 l 588 404 q 567 548 603 497 q 450 599 531 599 q 320 548 371 599 q 254 404 269 497 l 235 285 q 257 147 221 196 q 372 97 293 97 z "},"":{"ha":833,"x_min":69,"x_max":760,"o":"m 392 -10 l 326 -10 q 134 50 199 -10 q 85 211 69 110 q 156 344 99 293 q 303 401 214 396 l 303 407 q 182 456 222 413 q 153 574 142 500 q 248 719 168 664 q 450 774 328 774 l 519 774 q 697 721 633 774 q 758 576 760 668 l 626 576 q 593 640 625 617 q 503 663 561 663 l 433 663 q 331 634 372 663 q 283 557 290 606 q 306 479 275 508 q 396 450 336 450 l 553 450 l 536 342 l 382 342 q 272 309 315 342 q 218 221 228 276 q 244 133 210 165 q 344 101 278 101 l 410 101 q 520 124 475 101 q 581 181 565 146 l 713 181 q 598 42 683 93 q 392 -10 513 -10 z "},"":{"ha":833,"x_min":56,"x_max":803,"o":"m 518 -250 l 547 -67 q 492 0 558 0 l 314 0 q 118 65 181 0 q 72 233 56 129 q 172 456 88 336 q 403 699 256 576 l 642 900 l 208 900 l 226 1014 l 803 1014 l 782 889 l 485 628 q 286 421 363 522 q 199 242 210 319 q 224 147 189 182 q 333 111 260 111 l 510 111 q 650 71 613 111 q 672 -67 688 31 l 643 -250 l 518 -250 z "},"":{"ha":833,"x_min":67,"x_max":749,"o":"m 67 0 l 188 764 l 313 764 l 289 618 l 292 618 q 372 736 313 694 q 519 778 432 778 q 692 707 635 778 q 729 514 749 636 l 607 -250 l 482 -250 l 601 500 q 578 627 614 582 q 467 672 542 672 q 336 624 389 672 q 268 486 283 575 l 192 0 l 67 0 z "},"":{"ha":833,"x_min":83,"x_max":786,"o":"m 353 -14 q 150 64 217 -14 q 106 278 83 142 l 175 722 q 289 936 197 858 q 517 1014 381 1014 q 719 937 653 1014 q 765 724 786 860 l 694 278 q 581 64 672 142 q 353 -14 489 -14 m 275 560 l 614 560 l 639 722 q 617 857 654 811 q 499 903 581 903 q 367 857 418 903 q 300 722 315 811 l 275 560 m 371 97 q 504 143 453 97 q 569 278 556 189 l 596 451 l 257 451 l 231 278 q 253 143 217 189 q 371 97 290 97 z "},"":{"ha":833,"x_min":118,"x_max":721,"o":"m 515 0 q 363 59 414 0 q 328 215 313 118 l 396 650 l 118 650 l 136 764 l 539 764 l 453 215 q 467 141 444 168 q 533 114 489 114 l 721 114 l 703 0 l 515 0 z "},"":{"ha":833,"x_min":74,"x_max":815,"o":"m 74 0 l 194 764 l 319 764 l 269 449 l 397 449 l 669 764 l 815 764 l 501 396 l 699 0 l 556 0 l 388 340 l 253 340 l 199 0 l 74 0 z "},"":{"ha":833,"x_min":10,"x_max":704,"o":"m 10 0 l 413 751 l 351 1014 l 485 1014 l 704 0 l 575 0 l 472 496 q 458 582 463 544 q 449 640 453 619 q 437 582 447 619 q 403 496 426 544 l 150 0 l 10 0 z "},"":{"ha":833,"x_min":29,"x_max":765,"o":"m 29 -250 l 190 764 l 315 764 l 239 278 q 259 143 225 192 q 369 94 293 94 q 499 143 447 94 q 564 278 550 192 l 640 764 l 765 764 l 644 0 l 522 0 l 546 146 l 542 146 q 481 29 525 72 q 350 -14 436 -14 q 238 29 264 -14 q 218 146 211 72 l 215 146 l 190 -28 l 154 -250 l 29 -250 z "},"":{"ha":833,"x_min":143,"x_max":810,"o":"m 271 0 l 143 764 l 267 764 l 349 250 q 361 162 356 204 q 369 96 367 119 q 399 162 379 119 q 440 250 418 204 l 679 764 l 810 764 l 440 0 l 271 0 z "},"":{"ha":833,"x_min":82,"x_max":800,"o":"m 560 -247 l 588 -67 q 578 -18 593 -36 q 532 0 563 0 l 399 0 q 162 81 242 0 q 104 297 82 161 q 183 465 119 399 q 340 549 246 531 q 224 622 261 565 q 201 763 188 678 q 313 946 221 878 q 543 1014 404 1014 l 800 1014 l 782 900 l 525 900 q 393 859 446 900 q 329 747 340 818 q 358 635 318 676 q 476 593 397 593 l 689 593 l 671 482 l 464 482 q 311 433 372 482 q 236 297 250 383 q 271 163 222 213 q 417 114 319 114 l 550 114 q 683 65 639 114 q 713 -67 726 17 l 685 -247 l 560 -247 z "},"":{"ha":833,"x_min":83,"x_max":749,"o":"m 353 -14 q 150 64 217 -14 q 106 278 83 142 l 138 486 q 251 700 160 622 q 479 778 343 778 q 682 701 615 778 q 728 488 749 624 l 694 278 q 581 64 672 142 q 353 -14 489 -14 m 371 97 q 504 143 453 97 q 569 278 556 189 l 601 486 q 580 621 617 575 q 461 667 543 667 q 329 621 381 667 q 263 486 278 575 l 231 278 q 253 143 217 189 q 371 97 290 97 z "},"":{"ha":833,"x_min":79,"x_max":831,"o":"m 683 -7 q 525 60 578 -7 q 490 236 472 126 l 556 653 l 315 653 l 213 0 l 92 0 l 196 653 l 79 653 l 96 764 l 831 764 l 814 653 l 675 653 l 608 228 q 623 140 599 171 q 696 110 647 110 l 729 110 l 710 -7 l 683 -7 z "},"":{"ha":833,"x_min":26,"x_max":743,"o":"m 26 -250 l 144 494 q 256 702 165 626 q 481 778 346 778 q 679 702 615 778 q 722 494 743 626 l 688 271 q 588 63 667 139 q 394 -14 510 -14 q 261 29 308 -14 q 217 146 214 72 l 213 146 l 188 -28 l 151 -250 l 26 -250 m 371 94 q 500 142 450 94 q 564 278 550 189 l 596 486 q 576 622 611 575 q 461 669 540 669 q 333 622 382 669 q 268 486 283 575 l 236 278 q 258 143 222 192 q 371 94 294 94 z "},"":{"ha":833,"x_min":81,"x_max":757,"o":"m 525 -250 l 554 -67 q 499 0 565 0 l 363 0 q 152 71 224 0 q 103 278 81 142 l 135 486 q 252 700 157 622 q 486 778 347 778 q 688 707 618 778 q 742 514 757 636 l 617 514 q 585 627 624 588 q 468 667 546 667 q 331 620 386 667 q 261 488 275 574 l 228 278 q 256 151 214 192 q 381 111 299 111 l 517 111 q 651 65 608 111 q 679 -67 693 18 l 650 -250 l 525 -250 z "},"":{"ha":833,"x_min":81,"x_max":851,"o":"m 349 -14 q 148 67 215 -14 q 101 278 81 147 l 132 472 q 193 626 146 560 q 312 728 240 692 q 472 764 383 764 l 851 764 l 833 650 l 599 650 l 599 646 q 699 594 667 640 q 721 472 732 547 l 690 278 q 629 125 676 190 q 510 23 582 60 q 349 -14 438 -14 m 367 97 q 499 146 446 97 q 565 278 551 194 l 596 472 q 572 604 610 556 q 454 653 533 653 q 323 604 375 653 q 257 472 271 556 l 226 278 q 250 146 213 194 q 367 97 288 97 z "},"":{"ha":833,"x_min":118,"x_max":782,"o":"m 474 0 q 328 53 375 0 q 297 201 282 106 l 368 650 l 118 650 l 136 764 l 782 764 l 764 650 l 493 650 l 422 201 q 492 114 408 114 l 665 114 l 647 0 l 474 0 z "},"":{"ha":833,"x_min":88,"x_max":768,"o":"m 351 -14 q 153 65 219 -14 q 108 278 88 143 l 185 764 l 310 764 l 233 278 q 256 144 219 192 q 369 96 293 96 q 500 144 447 96 q 567 278 553 192 l 643 764 l 768 764 l 692 278 q 631 123 678 189 q 512 22 583 57 q 351 -14 440 -14 z "},"":{"ha":833,"x_min":39,"x_max":797,"o":"m 258 -250 l 299 0 q 102 76 165 0 q 60 281 39 151 l 136 764 l 251 764 l 175 281 q 199 147 161 196 q 321 99 238 99 l 426 764 l 576 764 q 742 704 688 764 q 782 542 797 644 l 740 281 q 633 76 719 151 q 413 0 546 0 l 372 -250 l 258 -250 m 421 99 q 557 147 503 99 q 625 281 611 196 l 667 542 q 648 633 676 600 q 561 667 619 667 l 511 667 l 421 99 z "},"":{"ha":833,"x_min":-6,"x_max":863,"o":"m -6 -250 l 367 267 l 171 764 l 310 764 l 419 464 q 438 413 428 440 q 454 371 449 386 q 480 413 464 386 q 513 464 496 440 l 719 764 l 863 764 l 510 269 l 717 -250 l 579 -250 l 456 72 q 437 123 446 96 q 424 167 428 150 q 397 124 414 150 q 364 74 379 97 l 139 -250 l -6 -250 z "},"":{"ha":833,"x_min":38,"x_max":818,"o":"m 258 -250 l 299 0 q 101 76 164 0 q 58 281 38 151 l 135 764 l 250 764 l 174 281 q 199 147 160 196 q 321 99 239 99 l 426 764 l 526 764 l 421 99 q 558 147 503 99 q 626 281 613 196 l 703 764 l 818 764 l 742 281 q 634 76 721 151 q 413 0 547 0 l 372 -250 l 258 -250 z "},"":{"ha":833,"x_min":33,"x_max":794,"o":"m 189 -14 q 71 46 108 -14 q 50 210 33 106 l 96 497 q 178 688 114 613 q 335 778 242 764 l 314 646 q 250 599 276 639 q 214 497 224 558 l 168 208 q 176 122 158 153 q 233 92 193 92 q 301 122 274 92 q 339 208 329 153 l 382 479 l 485 479 l 442 208 q 450 122 432 153 q 508 92 468 92 q 613 208 593 92 l 658 497 q 651 592 667 554 q 597 639 636 631 l 618 771 q 752 683 710 757 q 776 497 794 610 l 731 210 q 658 46 714 106 q 519 -14 601 -14 q 413 26 450 -14 q 378 135 376 65 q 307 26 357 65 q 189 -14 257 -14 z "},"":{"ha":833,"x_min":118,"x_max":764,"o":"m 515 0 q 363 59 414 0 q 328 215 313 118 l 396 650 l 118 650 l 136 764 l 539 764 l 453 215 q 467 141 444 168 q 533 114 489 114 l 721 114 l 703 0 l 515 0 m 654 901 q 594 925 614 901 q 579 989 574 949 q 614 1055 586 1031 q 682 1079 642 1079 q 743 1055 722 1079 q 757 989 764 1031 q 723 925 751 949 q 654 901 694 901 m 346 901 q 285 925 306 901 q 271 989 265 949 q 306 1055 278 1031 q 374 1079 333 1079 q 435 1055 414 1079 q 449 989 456 1031 q 415 925 443 949 q 346 901 386 901 z "},"":{"ha":833,"x_min":88,"x_max":768,"o":"m 351 -14 q 153 65 219 -14 q 108 278 88 143 l 185 764 l 310 764 l 233 278 q 256 144 219 192 q 369 96 293 96 q 500 144 447 96 q 567 278 553 192 l 643 764 l 768 764 l 692 278 q 631 123 678 189 q 512 22 583 57 q 351 -14 440 -14 m 653 901 q 592 925 613 901 q 578 989 572 949 q 613 1055 585 1031 q 681 1079 640 1079 q 742 1055 721 1079 q 756 989 763 1031 q 722 925 750 949 q 653 901 693 901 m 344 901 q 284 925 304 901 q 269 989 264 949 q 304 1055 276 1031 q 372 1079 332 1079 q 433 1055 413 1079 q 447 989 454 1031 q 413 925 442 949 q 344 901 385 901 z "},"":{"ha":833,"x_min":83,"x_max":749,"o":"m 353 -14 q 150 64 217 -14 q 106 278 83 142 l 138 486 q 251 700 160 622 q 479 778 343 778 q 682 701 615 778 q 728 488 749 624 l 694 278 q 581 64 672 142 q 353 -14 489 -14 m 371 97 q 504 143 453 97 q 569 278 556 189 l 601 486 q 580 621 617 575 q 461 667 543 667 q 329 621 381 667 q 263 486 278 575 l 231 278 q 253 143 217 189 q 371 97 290 97 m 417 896 l 594 1090 l 729 1090 l 544 896 l 417 896 z "},"":{"ha":833,"x_min":88,"x_max":768,"o":"m 351 -14 q 153 65 219 -14 q 108 278 88 143 l 185 764 l 310 764 l 233 278 q 256 144 219 192 q 369 96 293 96 q 500 144 447 96 q 567 278 553 192 l 643 764 l 768 764 l 692 278 q 631 123 678 189 q 512 22 583 57 q 351 -14 440 -14 m 417 896 l 594 1090 l 729 1090 l 544 896 l 417 896 z "},"":{"ha":833,"x_min":33,"x_max":794,"o":"m 189 -14 q 71 46 108 -14 q 50 210 33 106 l 96 497 q 178 688 114 613 q 335 778 242 764 l 314 646 q 250 599 276 639 q 214 497 224 558 l 168 208 q 176 122 158 153 q 233 92 193 92 q 301 122 274 92 q 339 208 329 153 l 382 479 l 485 479 l 442 208 q 450 122 432 153 q 508 92 468 92 q 613 208 593 92 l 658 497 q 651 592 667 554 q 597 639 636 631 l 618 771 q 752 683 710 757 q 776 497 794 610 l 731 210 q 658 46 714 106 q 519 -14 601 -14 q 413 26 450 -14 q 378 135 376 65 q 307 26 357 65 q 189 -14 257 -14 m 403 896 l 581 1090 l 715 1090 l 531 896 l 403 896 z "},"":{"ha":833,"x_min":67,"x_max":864,"o":"m 67 0 l 228 1014 l 353 1014 l 283 579 l 431 579 l 725 1014 l 864 1014 l 535 522 l 682 99 l 760 99 l 744 0 q 649 -186 725 -122 q 444 -250 572 -250 l 404 -250 l 422 -140 l 463 -140 q 570 -102 525 -140 q 625 0 615 -64 l 578 0 l 417 469 l 267 469 l 192 0 l 67 0 z "},"":{"ha":833,"x_min":-12,"x_max":844,"o":"m 296 -28 l 300 0 q 102 75 167 0 q 58 281 38 150 l 90 486 q 200 690 111 615 q 421 764 289 764 l 425 792 q 507 954 440 894 q 686 1014 574 1014 l 844 1014 l 826 904 l 667 904 q 536 792 553 904 l 532 764 q 730 690 665 764 q 774 486 794 615 l 742 281 q 633 75 721 150 q 411 0 544 0 l 407 -28 q 328 -190 397 -131 q 146 -250 258 -250 l -12 -250 l 6 -140 l 165 -140 q 296 -28 283 -140 m 318 99 l 408 665 q 274 618 328 665 q 207 486 221 571 l 175 281 q 199 147 161 196 q 318 99 238 99 m 424 99 q 558 147 506 99 q 625 281 611 196 l 657 486 q 633 618 671 571 q 514 665 596 665 l 424 99 z "},"":{"ha":833,"x_min":33,"x_max":874,"o":"m 189 -14 q 71 46 108 -14 q 50 210 33 106 l 92 471 q 136 581 101 535 q 225 650 171 626 l 64 650 l 82 764 l 874 764 l 856 650 l 696 650 q 762 581 742 626 q 772 471 782 535 l 731 210 q 658 46 714 106 q 519 -14 601 -14 q 415 26 451 -14 q 378 135 378 65 q 308 26 357 65 q 189 -14 258 -14 m 233 92 q 301 122 274 92 q 339 208 329 153 l 382 479 l 485 479 l 442 208 q 450 122 432 153 q 508 92 468 92 q 613 208 593 92 l 664 533 q 597 650 681 650 l 322 650 q 219 533 236 650 l 168 208 q 176 122 158 153 q 233 92 193 92 z "},"":{"ha":833,"x_min":69,"x_max":763,"o":"m 363 -250 l 381 -140 l 421 -140 q 528 -103 483 -140 q 583 -3 574 -65 l 583 0 l 522 0 l 589 417 q 614 546 599 478 q 642 654 629 614 l 229 0 l 69 0 l 190 764 l 310 764 l 244 347 q 219 219 235 288 q 192 111 203 151 l 603 764 l 763 764 l 657 99 l 718 99 l 703 0 q 607 -186 683 -122 q 403 -250 531 -250 l 363 -250 z "},"":{"ha":833,"x_min":78,"x_max":826,"o":"m 78 0 l 239 1014 l 822 1014 l 804 900 l 344 900 l 294 586 l 706 586 l 688 474 l 276 474 l 219 114 l 679 114 l 661 0 l 78 0 m 717 1135 q 656 1158 676 1135 q 642 1222 636 1182 q 677 1288 649 1264 q 746 1313 706 1313 q 806 1288 786 1313 q 819 1222 826 1264 q 785 1158 814 1182 q 717 1135 757 1135 m 408 1135 q 348 1158 368 1135 q 333 1222 328 1182 q 369 1288 340 1264 q 438 1313 397 1313 q 498 1288 478 1313 q 511 1222 518 1264 q 477 1158 506 1182 q 408 1135 449 1135 z "},"":{"ha":833,"x_min":82,"x_max":769,"o":"m 260 -250 l 278 -136 l 375 -136 q 499 -94 449 -136 q 560 21 549 -51 l 622 411 q 611 539 636 496 q 528 582 586 582 q 357 496 449 582 l 285 431 l 217 0 l 92 0 l 235 904 l 82 904 l 100 1014 l 544 1014 l 526 904 l 360 904 l 304 550 l 329 574 q 574 688 453 688 q 721 620 672 688 q 751 439 769 553 l 685 21 q 627 -122 672 -61 q 513 -217 582 -183 q 357 -250 443 -250 l 260 -250 z "},"":{"ha":833,"x_min":119,"x_max":871,"o":"m 119 0 l 281 1014 l 871 1014 l 853 900 l 388 900 l 244 0 l 119 0 m 476 1125 l 654 1319 l 796 1319 l 611 1125 l 476 1125 z "},"":{"ha":833,"x_min":86,"x_max":793,"o":"m 358 -14 q 153 64 219 -14 q 108 278 86 142 l 181 736 q 294 950 203 872 q 524 1028 385 1028 q 726 949 660 1028 q 772 736 793 871 l 647 736 q 625 869 661 822 q 507 917 589 917 q 372 870 425 917 q 306 738 319 824 l 279 568 l 592 568 l 574 454 l 261 454 l 233 278 q 257 144 219 192 q 376 97 294 97 q 510 144 458 97 q 575 278 561 192 l 700 278 q 586 65 678 143 q 358 -14 494 -14 z "}}}
